G04 #@! TF.GenerationSoftware,KiCad,Pcbnew,(5.1.2)-1*
G04 #@! TF.CreationDate,2022-10-08T12:37:54+09:00*
G04 #@! TF.ProjectId,thamp,7468616d-702e-46b6-9963-61645f706362,v1.2*
G04 #@! TF.SameCoordinates,Original*
G04 #@! TF.FileFunction,Paste,Top*
G04 #@! TF.FilePolarity,Positive*
%FSLAX46Y46*%
G04 Gerber Fmt 4.6, Leading zero omitted, Abs format (unit mm)*
G04 Created by KiCad (PCBNEW (5.1.2)-1) date 2022-10-08 12:37:54*
%MOMM*%
%LPD*%
G04 APERTURE LIST*
%ADD10C,0.100000*%
%ADD11C,0.875000*%
%ADD12R,1.450000X0.450000*%
%ADD13R,1.060000X0.650000*%
%ADD14C,0.600000*%
%ADD15R,0.900000X0.800000*%
%ADD16C,0.975000*%
G04 APERTURE END LIST*
D10*
G36*
X142365191Y-118626053D02*
G01*
X142386426Y-118629203D01*
X142407250Y-118634419D01*
X142427462Y-118641651D01*
X142446868Y-118650830D01*
X142465281Y-118661866D01*
X142482524Y-118674654D01*
X142498430Y-118689070D01*
X142512846Y-118704976D01*
X142525634Y-118722219D01*
X142536670Y-118740632D01*
X142545849Y-118760038D01*
X142553081Y-118780250D01*
X142558297Y-118801074D01*
X142561447Y-118822309D01*
X142562500Y-118843750D01*
X142562500Y-119356250D01*
X142561447Y-119377691D01*
X142558297Y-119398926D01*
X142553081Y-119419750D01*
X142545849Y-119439962D01*
X142536670Y-119459368D01*
X142525634Y-119477781D01*
X142512846Y-119495024D01*
X142498430Y-119510930D01*
X142482524Y-119525346D01*
X142465281Y-119538134D01*
X142446868Y-119549170D01*
X142427462Y-119558349D01*
X142407250Y-119565581D01*
X142386426Y-119570797D01*
X142365191Y-119573947D01*
X142343750Y-119575000D01*
X141906250Y-119575000D01*
X141884809Y-119573947D01*
X141863574Y-119570797D01*
X141842750Y-119565581D01*
X141822538Y-119558349D01*
X141803132Y-119549170D01*
X141784719Y-119538134D01*
X141767476Y-119525346D01*
X141751570Y-119510930D01*
X141737154Y-119495024D01*
X141724366Y-119477781D01*
X141713330Y-119459368D01*
X141704151Y-119439962D01*
X141696919Y-119419750D01*
X141691703Y-119398926D01*
X141688553Y-119377691D01*
X141687500Y-119356250D01*
X141687500Y-118843750D01*
X141688553Y-118822309D01*
X141691703Y-118801074D01*
X141696919Y-118780250D01*
X141704151Y-118760038D01*
X141713330Y-118740632D01*
X141724366Y-118722219D01*
X141737154Y-118704976D01*
X141751570Y-118689070D01*
X141767476Y-118674654D01*
X141784719Y-118661866D01*
X141803132Y-118650830D01*
X141822538Y-118641651D01*
X141842750Y-118634419D01*
X141863574Y-118629203D01*
X141884809Y-118626053D01*
X141906250Y-118625000D01*
X142343750Y-118625000D01*
X142365191Y-118626053D01*
X142365191Y-118626053D01*
G37*
D11*
X142125000Y-119100000D03*
D10*
G36*
X143940191Y-118626053D02*
G01*
X143961426Y-118629203D01*
X143982250Y-118634419D01*
X144002462Y-118641651D01*
X144021868Y-118650830D01*
X144040281Y-118661866D01*
X144057524Y-118674654D01*
X144073430Y-118689070D01*
X144087846Y-118704976D01*
X144100634Y-118722219D01*
X144111670Y-118740632D01*
X144120849Y-118760038D01*
X144128081Y-118780250D01*
X144133297Y-118801074D01*
X144136447Y-118822309D01*
X144137500Y-118843750D01*
X144137500Y-119356250D01*
X144136447Y-119377691D01*
X144133297Y-119398926D01*
X144128081Y-119419750D01*
X144120849Y-119439962D01*
X144111670Y-119459368D01*
X144100634Y-119477781D01*
X144087846Y-119495024D01*
X144073430Y-119510930D01*
X144057524Y-119525346D01*
X144040281Y-119538134D01*
X144021868Y-119549170D01*
X144002462Y-119558349D01*
X143982250Y-119565581D01*
X143961426Y-119570797D01*
X143940191Y-119573947D01*
X143918750Y-119575000D01*
X143481250Y-119575000D01*
X143459809Y-119573947D01*
X143438574Y-119570797D01*
X143417750Y-119565581D01*
X143397538Y-119558349D01*
X143378132Y-119549170D01*
X143359719Y-119538134D01*
X143342476Y-119525346D01*
X143326570Y-119510930D01*
X143312154Y-119495024D01*
X143299366Y-119477781D01*
X143288330Y-119459368D01*
X143279151Y-119439962D01*
X143271919Y-119419750D01*
X143266703Y-119398926D01*
X143263553Y-119377691D01*
X143262500Y-119356250D01*
X143262500Y-118843750D01*
X143263553Y-118822309D01*
X143266703Y-118801074D01*
X143271919Y-118780250D01*
X143279151Y-118760038D01*
X143288330Y-118740632D01*
X143299366Y-118722219D01*
X143312154Y-118704976D01*
X143326570Y-118689070D01*
X143342476Y-118674654D01*
X143359719Y-118661866D01*
X143378132Y-118650830D01*
X143397538Y-118641651D01*
X143417750Y-118634419D01*
X143438574Y-118629203D01*
X143459809Y-118626053D01*
X143481250Y-118625000D01*
X143918750Y-118625000D01*
X143940191Y-118626053D01*
X143940191Y-118626053D01*
G37*
D11*
X143700000Y-119100000D03*
D12*
X127350000Y-120545000D03*
X127350000Y-119895000D03*
X127350000Y-119245000D03*
X127350000Y-118595000D03*
X127350000Y-117945000D03*
X127350000Y-117295000D03*
X127350000Y-116645000D03*
X127350000Y-115995000D03*
X127350000Y-115345000D03*
X127350000Y-114695000D03*
X133250000Y-114695000D03*
X133250000Y-115345000D03*
X133250000Y-115995000D03*
X133250000Y-116645000D03*
X133250000Y-117295000D03*
X133250000Y-117945000D03*
X133250000Y-118595000D03*
X133250000Y-119245000D03*
X133250000Y-119895000D03*
X133250000Y-120545000D03*
D10*
G36*
X138615691Y-115006053D02*
G01*
X138636926Y-115009203D01*
X138657750Y-115014419D01*
X138677962Y-115021651D01*
X138697368Y-115030830D01*
X138715781Y-115041866D01*
X138733024Y-115054654D01*
X138748930Y-115069070D01*
X138763346Y-115084976D01*
X138776134Y-115102219D01*
X138787170Y-115120632D01*
X138796349Y-115140038D01*
X138803581Y-115160250D01*
X138808797Y-115181074D01*
X138811947Y-115202309D01*
X138813000Y-115223750D01*
X138813000Y-115736250D01*
X138811947Y-115757691D01*
X138808797Y-115778926D01*
X138803581Y-115799750D01*
X138796349Y-115819962D01*
X138787170Y-115839368D01*
X138776134Y-115857781D01*
X138763346Y-115875024D01*
X138748930Y-115890930D01*
X138733024Y-115905346D01*
X138715781Y-115918134D01*
X138697368Y-115929170D01*
X138677962Y-115938349D01*
X138657750Y-115945581D01*
X138636926Y-115950797D01*
X138615691Y-115953947D01*
X138594250Y-115955000D01*
X138156750Y-115955000D01*
X138135309Y-115953947D01*
X138114074Y-115950797D01*
X138093250Y-115945581D01*
X138073038Y-115938349D01*
X138053632Y-115929170D01*
X138035219Y-115918134D01*
X138017976Y-115905346D01*
X138002070Y-115890930D01*
X137987654Y-115875024D01*
X137974866Y-115857781D01*
X137963830Y-115839368D01*
X137954651Y-115819962D01*
X137947419Y-115799750D01*
X137942203Y-115778926D01*
X137939053Y-115757691D01*
X137938000Y-115736250D01*
X137938000Y-115223750D01*
X137939053Y-115202309D01*
X137942203Y-115181074D01*
X137947419Y-115160250D01*
X137954651Y-115140038D01*
X137963830Y-115120632D01*
X137974866Y-115102219D01*
X137987654Y-115084976D01*
X138002070Y-115069070D01*
X138017976Y-115054654D01*
X138035219Y-115041866D01*
X138053632Y-115030830D01*
X138073038Y-115021651D01*
X138093250Y-115014419D01*
X138114074Y-115009203D01*
X138135309Y-115006053D01*
X138156750Y-115005000D01*
X138594250Y-115005000D01*
X138615691Y-115006053D01*
X138615691Y-115006053D01*
G37*
D11*
X138375500Y-115480000D03*
D10*
G36*
X137040691Y-115006053D02*
G01*
X137061926Y-115009203D01*
X137082750Y-115014419D01*
X137102962Y-115021651D01*
X137122368Y-115030830D01*
X137140781Y-115041866D01*
X137158024Y-115054654D01*
X137173930Y-115069070D01*
X137188346Y-115084976D01*
X137201134Y-115102219D01*
X137212170Y-115120632D01*
X137221349Y-115140038D01*
X137228581Y-115160250D01*
X137233797Y-115181074D01*
X137236947Y-115202309D01*
X137238000Y-115223750D01*
X137238000Y-115736250D01*
X137236947Y-115757691D01*
X137233797Y-115778926D01*
X137228581Y-115799750D01*
X137221349Y-115819962D01*
X137212170Y-115839368D01*
X137201134Y-115857781D01*
X137188346Y-115875024D01*
X137173930Y-115890930D01*
X137158024Y-115905346D01*
X137140781Y-115918134D01*
X137122368Y-115929170D01*
X137102962Y-115938349D01*
X137082750Y-115945581D01*
X137061926Y-115950797D01*
X137040691Y-115953947D01*
X137019250Y-115955000D01*
X136581750Y-115955000D01*
X136560309Y-115953947D01*
X136539074Y-115950797D01*
X136518250Y-115945581D01*
X136498038Y-115938349D01*
X136478632Y-115929170D01*
X136460219Y-115918134D01*
X136442976Y-115905346D01*
X136427070Y-115890930D01*
X136412654Y-115875024D01*
X136399866Y-115857781D01*
X136388830Y-115839368D01*
X136379651Y-115819962D01*
X136372419Y-115799750D01*
X136367203Y-115778926D01*
X136364053Y-115757691D01*
X136363000Y-115736250D01*
X136363000Y-115223750D01*
X136364053Y-115202309D01*
X136367203Y-115181074D01*
X136372419Y-115160250D01*
X136379651Y-115140038D01*
X136388830Y-115120632D01*
X136399866Y-115102219D01*
X136412654Y-115084976D01*
X136427070Y-115069070D01*
X136442976Y-115054654D01*
X136460219Y-115041866D01*
X136478632Y-115030830D01*
X136498038Y-115021651D01*
X136518250Y-115014419D01*
X136539074Y-115009203D01*
X136560309Y-115006053D01*
X136581750Y-115005000D01*
X137019250Y-115005000D01*
X137040691Y-115006053D01*
X137040691Y-115006053D01*
G37*
D11*
X136800500Y-115480000D03*
D10*
G36*
X138625691Y-116666053D02*
G01*
X138646926Y-116669203D01*
X138667750Y-116674419D01*
X138687962Y-116681651D01*
X138707368Y-116690830D01*
X138725781Y-116701866D01*
X138743024Y-116714654D01*
X138758930Y-116729070D01*
X138773346Y-116744976D01*
X138786134Y-116762219D01*
X138797170Y-116780632D01*
X138806349Y-116800038D01*
X138813581Y-116820250D01*
X138818797Y-116841074D01*
X138821947Y-116862309D01*
X138823000Y-116883750D01*
X138823000Y-117396250D01*
X138821947Y-117417691D01*
X138818797Y-117438926D01*
X138813581Y-117459750D01*
X138806349Y-117479962D01*
X138797170Y-117499368D01*
X138786134Y-117517781D01*
X138773346Y-117535024D01*
X138758930Y-117550930D01*
X138743024Y-117565346D01*
X138725781Y-117578134D01*
X138707368Y-117589170D01*
X138687962Y-117598349D01*
X138667750Y-117605581D01*
X138646926Y-117610797D01*
X138625691Y-117613947D01*
X138604250Y-117615000D01*
X138166750Y-117615000D01*
X138145309Y-117613947D01*
X138124074Y-117610797D01*
X138103250Y-117605581D01*
X138083038Y-117598349D01*
X138063632Y-117589170D01*
X138045219Y-117578134D01*
X138027976Y-117565346D01*
X138012070Y-117550930D01*
X137997654Y-117535024D01*
X137984866Y-117517781D01*
X137973830Y-117499368D01*
X137964651Y-117479962D01*
X137957419Y-117459750D01*
X137952203Y-117438926D01*
X137949053Y-117417691D01*
X137948000Y-117396250D01*
X137948000Y-116883750D01*
X137949053Y-116862309D01*
X137952203Y-116841074D01*
X137957419Y-116820250D01*
X137964651Y-116800038D01*
X137973830Y-116780632D01*
X137984866Y-116762219D01*
X137997654Y-116744976D01*
X138012070Y-116729070D01*
X138027976Y-116714654D01*
X138045219Y-116701866D01*
X138063632Y-116690830D01*
X138083038Y-116681651D01*
X138103250Y-116674419D01*
X138124074Y-116669203D01*
X138145309Y-116666053D01*
X138166750Y-116665000D01*
X138604250Y-116665000D01*
X138625691Y-116666053D01*
X138625691Y-116666053D01*
G37*
D11*
X138385500Y-117140000D03*
D10*
G36*
X137050691Y-116666053D02*
G01*
X137071926Y-116669203D01*
X137092750Y-116674419D01*
X137112962Y-116681651D01*
X137132368Y-116690830D01*
X137150781Y-116701866D01*
X137168024Y-116714654D01*
X137183930Y-116729070D01*
X137198346Y-116744976D01*
X137211134Y-116762219D01*
X137222170Y-116780632D01*
X137231349Y-116800038D01*
X137238581Y-116820250D01*
X137243797Y-116841074D01*
X137246947Y-116862309D01*
X137248000Y-116883750D01*
X137248000Y-117396250D01*
X137246947Y-117417691D01*
X137243797Y-117438926D01*
X137238581Y-117459750D01*
X137231349Y-117479962D01*
X137222170Y-117499368D01*
X137211134Y-117517781D01*
X137198346Y-117535024D01*
X137183930Y-117550930D01*
X137168024Y-117565346D01*
X137150781Y-117578134D01*
X137132368Y-117589170D01*
X137112962Y-117598349D01*
X137092750Y-117605581D01*
X137071926Y-117610797D01*
X137050691Y-117613947D01*
X137029250Y-117615000D01*
X136591750Y-117615000D01*
X136570309Y-117613947D01*
X136549074Y-117610797D01*
X136528250Y-117605581D01*
X136508038Y-117598349D01*
X136488632Y-117589170D01*
X136470219Y-117578134D01*
X136452976Y-117565346D01*
X136437070Y-117550930D01*
X136422654Y-117535024D01*
X136409866Y-117517781D01*
X136398830Y-117499368D01*
X136389651Y-117479962D01*
X136382419Y-117459750D01*
X136377203Y-117438926D01*
X136374053Y-117417691D01*
X136373000Y-117396250D01*
X136373000Y-116883750D01*
X136374053Y-116862309D01*
X136377203Y-116841074D01*
X136382419Y-116820250D01*
X136389651Y-116800038D01*
X136398830Y-116780632D01*
X136409866Y-116762219D01*
X136422654Y-116744976D01*
X136437070Y-116729070D01*
X136452976Y-116714654D01*
X136470219Y-116701866D01*
X136488632Y-116690830D01*
X136508038Y-116681651D01*
X136528250Y-116674419D01*
X136549074Y-116669203D01*
X136570309Y-116666053D01*
X136591750Y-116665000D01*
X137029250Y-116665000D01*
X137050691Y-116666053D01*
X137050691Y-116666053D01*
G37*
D11*
X136810500Y-117140000D03*
D13*
X147862000Y-120952000D03*
X147862000Y-122852000D03*
X145662000Y-122852000D03*
X145662000Y-121902000D03*
X145662000Y-120952000D03*
D10*
G36*
X133144703Y-112085722D02*
G01*
X133159264Y-112087882D01*
X133173543Y-112091459D01*
X133187403Y-112096418D01*
X133200710Y-112102712D01*
X133213336Y-112110280D01*
X133225159Y-112119048D01*
X133236066Y-112128934D01*
X133245952Y-112139841D01*
X133254720Y-112151664D01*
X133262288Y-112164290D01*
X133268582Y-112177597D01*
X133273541Y-112191457D01*
X133277118Y-112205736D01*
X133279278Y-112220297D01*
X133280000Y-112235000D01*
X133280000Y-112535000D01*
X133279278Y-112549703D01*
X133277118Y-112564264D01*
X133273541Y-112578543D01*
X133268582Y-112592403D01*
X133262288Y-112605710D01*
X133254720Y-112618336D01*
X133245952Y-112630159D01*
X133236066Y-112641066D01*
X133225159Y-112650952D01*
X133213336Y-112659720D01*
X133200710Y-112667288D01*
X133187403Y-112673582D01*
X133173543Y-112678541D01*
X133159264Y-112682118D01*
X133144703Y-112684278D01*
X133130000Y-112685000D01*
X131480000Y-112685000D01*
X131465297Y-112684278D01*
X131450736Y-112682118D01*
X131436457Y-112678541D01*
X131422597Y-112673582D01*
X131409290Y-112667288D01*
X131396664Y-112659720D01*
X131384841Y-112650952D01*
X131373934Y-112641066D01*
X131364048Y-112630159D01*
X131355280Y-112618336D01*
X131347712Y-112605710D01*
X131341418Y-112592403D01*
X131336459Y-112578543D01*
X131332882Y-112564264D01*
X131330722Y-112549703D01*
X131330000Y-112535000D01*
X131330000Y-112235000D01*
X131330722Y-112220297D01*
X131332882Y-112205736D01*
X131336459Y-112191457D01*
X131341418Y-112177597D01*
X131347712Y-112164290D01*
X131355280Y-112151664D01*
X131364048Y-112139841D01*
X131373934Y-112128934D01*
X131384841Y-112119048D01*
X131396664Y-112110280D01*
X131409290Y-112102712D01*
X131422597Y-112096418D01*
X131436457Y-112091459D01*
X131450736Y-112087882D01*
X131465297Y-112085722D01*
X131480000Y-112085000D01*
X133130000Y-112085000D01*
X133144703Y-112085722D01*
X133144703Y-112085722D01*
G37*
D14*
X132305000Y-112385000D03*
D10*
G36*
X133144703Y-110815722D02*
G01*
X133159264Y-110817882D01*
X133173543Y-110821459D01*
X133187403Y-110826418D01*
X133200710Y-110832712D01*
X133213336Y-110840280D01*
X133225159Y-110849048D01*
X133236066Y-110858934D01*
X133245952Y-110869841D01*
X133254720Y-110881664D01*
X133262288Y-110894290D01*
X133268582Y-110907597D01*
X133273541Y-110921457D01*
X133277118Y-110935736D01*
X133279278Y-110950297D01*
X133280000Y-110965000D01*
X133280000Y-111265000D01*
X133279278Y-111279703D01*
X133277118Y-111294264D01*
X133273541Y-111308543D01*
X133268582Y-111322403D01*
X133262288Y-111335710D01*
X133254720Y-111348336D01*
X133245952Y-111360159D01*
X133236066Y-111371066D01*
X133225159Y-111380952D01*
X133213336Y-111389720D01*
X133200710Y-111397288D01*
X133187403Y-111403582D01*
X133173543Y-111408541D01*
X133159264Y-111412118D01*
X133144703Y-111414278D01*
X133130000Y-111415000D01*
X131480000Y-111415000D01*
X131465297Y-111414278D01*
X131450736Y-111412118D01*
X131436457Y-111408541D01*
X131422597Y-111403582D01*
X131409290Y-111397288D01*
X131396664Y-111389720D01*
X131384841Y-111380952D01*
X131373934Y-111371066D01*
X131364048Y-111360159D01*
X131355280Y-111348336D01*
X131347712Y-111335710D01*
X131341418Y-111322403D01*
X131336459Y-111308543D01*
X131332882Y-111294264D01*
X131330722Y-111279703D01*
X131330000Y-111265000D01*
X131330000Y-110965000D01*
X131330722Y-110950297D01*
X131332882Y-110935736D01*
X131336459Y-110921457D01*
X131341418Y-110907597D01*
X131347712Y-110894290D01*
X131355280Y-110881664D01*
X131364048Y-110869841D01*
X131373934Y-110858934D01*
X131384841Y-110849048D01*
X131396664Y-110840280D01*
X131409290Y-110832712D01*
X131422597Y-110826418D01*
X131436457Y-110821459D01*
X131450736Y-110817882D01*
X131465297Y-110815722D01*
X131480000Y-110815000D01*
X133130000Y-110815000D01*
X133144703Y-110815722D01*
X133144703Y-110815722D01*
G37*
D14*
X132305000Y-111115000D03*
D10*
G36*
X133144703Y-109545722D02*
G01*
X133159264Y-109547882D01*
X133173543Y-109551459D01*
X133187403Y-109556418D01*
X133200710Y-109562712D01*
X133213336Y-109570280D01*
X133225159Y-109579048D01*
X133236066Y-109588934D01*
X133245952Y-109599841D01*
X133254720Y-109611664D01*
X133262288Y-109624290D01*
X133268582Y-109637597D01*
X133273541Y-109651457D01*
X133277118Y-109665736D01*
X133279278Y-109680297D01*
X133280000Y-109695000D01*
X133280000Y-109995000D01*
X133279278Y-110009703D01*
X133277118Y-110024264D01*
X133273541Y-110038543D01*
X133268582Y-110052403D01*
X133262288Y-110065710D01*
X133254720Y-110078336D01*
X133245952Y-110090159D01*
X133236066Y-110101066D01*
X133225159Y-110110952D01*
X133213336Y-110119720D01*
X133200710Y-110127288D01*
X133187403Y-110133582D01*
X133173543Y-110138541D01*
X133159264Y-110142118D01*
X133144703Y-110144278D01*
X133130000Y-110145000D01*
X131480000Y-110145000D01*
X131465297Y-110144278D01*
X131450736Y-110142118D01*
X131436457Y-110138541D01*
X131422597Y-110133582D01*
X131409290Y-110127288D01*
X131396664Y-110119720D01*
X131384841Y-110110952D01*
X131373934Y-110101066D01*
X131364048Y-110090159D01*
X131355280Y-110078336D01*
X131347712Y-110065710D01*
X131341418Y-110052403D01*
X131336459Y-110038543D01*
X131332882Y-110024264D01*
X131330722Y-110009703D01*
X131330000Y-109995000D01*
X131330000Y-109695000D01*
X131330722Y-109680297D01*
X131332882Y-109665736D01*
X131336459Y-109651457D01*
X131341418Y-109637597D01*
X131347712Y-109624290D01*
X131355280Y-109611664D01*
X131364048Y-109599841D01*
X131373934Y-109588934D01*
X131384841Y-109579048D01*
X131396664Y-109570280D01*
X131409290Y-109562712D01*
X131422597Y-109556418D01*
X131436457Y-109551459D01*
X131450736Y-109547882D01*
X131465297Y-109545722D01*
X131480000Y-109545000D01*
X133130000Y-109545000D01*
X133144703Y-109545722D01*
X133144703Y-109545722D01*
G37*
D14*
X132305000Y-109845000D03*
D10*
G36*
X133144703Y-108275722D02*
G01*
X133159264Y-108277882D01*
X133173543Y-108281459D01*
X133187403Y-108286418D01*
X133200710Y-108292712D01*
X133213336Y-108300280D01*
X133225159Y-108309048D01*
X133236066Y-108318934D01*
X133245952Y-108329841D01*
X133254720Y-108341664D01*
X133262288Y-108354290D01*
X133268582Y-108367597D01*
X133273541Y-108381457D01*
X133277118Y-108395736D01*
X133279278Y-108410297D01*
X133280000Y-108425000D01*
X133280000Y-108725000D01*
X133279278Y-108739703D01*
X133277118Y-108754264D01*
X133273541Y-108768543D01*
X133268582Y-108782403D01*
X133262288Y-108795710D01*
X133254720Y-108808336D01*
X133245952Y-108820159D01*
X133236066Y-108831066D01*
X133225159Y-108840952D01*
X133213336Y-108849720D01*
X133200710Y-108857288D01*
X133187403Y-108863582D01*
X133173543Y-108868541D01*
X133159264Y-108872118D01*
X133144703Y-108874278D01*
X133130000Y-108875000D01*
X131480000Y-108875000D01*
X131465297Y-108874278D01*
X131450736Y-108872118D01*
X131436457Y-108868541D01*
X131422597Y-108863582D01*
X131409290Y-108857288D01*
X131396664Y-108849720D01*
X131384841Y-108840952D01*
X131373934Y-108831066D01*
X131364048Y-108820159D01*
X131355280Y-108808336D01*
X131347712Y-108795710D01*
X131341418Y-108782403D01*
X131336459Y-108768543D01*
X131332882Y-108754264D01*
X131330722Y-108739703D01*
X131330000Y-108725000D01*
X131330000Y-108425000D01*
X131330722Y-108410297D01*
X131332882Y-108395736D01*
X131336459Y-108381457D01*
X131341418Y-108367597D01*
X131347712Y-108354290D01*
X131355280Y-108341664D01*
X131364048Y-108329841D01*
X131373934Y-108318934D01*
X131384841Y-108309048D01*
X131396664Y-108300280D01*
X131409290Y-108292712D01*
X131422597Y-108286418D01*
X131436457Y-108281459D01*
X131450736Y-108277882D01*
X131465297Y-108275722D01*
X131480000Y-108275000D01*
X133130000Y-108275000D01*
X133144703Y-108275722D01*
X133144703Y-108275722D01*
G37*
D14*
X132305000Y-108575000D03*
D10*
G36*
X138094703Y-108275722D02*
G01*
X138109264Y-108277882D01*
X138123543Y-108281459D01*
X138137403Y-108286418D01*
X138150710Y-108292712D01*
X138163336Y-108300280D01*
X138175159Y-108309048D01*
X138186066Y-108318934D01*
X138195952Y-108329841D01*
X138204720Y-108341664D01*
X138212288Y-108354290D01*
X138218582Y-108367597D01*
X138223541Y-108381457D01*
X138227118Y-108395736D01*
X138229278Y-108410297D01*
X138230000Y-108425000D01*
X138230000Y-108725000D01*
X138229278Y-108739703D01*
X138227118Y-108754264D01*
X138223541Y-108768543D01*
X138218582Y-108782403D01*
X138212288Y-108795710D01*
X138204720Y-108808336D01*
X138195952Y-108820159D01*
X138186066Y-108831066D01*
X138175159Y-108840952D01*
X138163336Y-108849720D01*
X138150710Y-108857288D01*
X138137403Y-108863582D01*
X138123543Y-108868541D01*
X138109264Y-108872118D01*
X138094703Y-108874278D01*
X138080000Y-108875000D01*
X136430000Y-108875000D01*
X136415297Y-108874278D01*
X136400736Y-108872118D01*
X136386457Y-108868541D01*
X136372597Y-108863582D01*
X136359290Y-108857288D01*
X136346664Y-108849720D01*
X136334841Y-108840952D01*
X136323934Y-108831066D01*
X136314048Y-108820159D01*
X136305280Y-108808336D01*
X136297712Y-108795710D01*
X136291418Y-108782403D01*
X136286459Y-108768543D01*
X136282882Y-108754264D01*
X136280722Y-108739703D01*
X136280000Y-108725000D01*
X136280000Y-108425000D01*
X136280722Y-108410297D01*
X136282882Y-108395736D01*
X136286459Y-108381457D01*
X136291418Y-108367597D01*
X136297712Y-108354290D01*
X136305280Y-108341664D01*
X136314048Y-108329841D01*
X136323934Y-108318934D01*
X136334841Y-108309048D01*
X136346664Y-108300280D01*
X136359290Y-108292712D01*
X136372597Y-108286418D01*
X136386457Y-108281459D01*
X136400736Y-108277882D01*
X136415297Y-108275722D01*
X136430000Y-108275000D01*
X138080000Y-108275000D01*
X138094703Y-108275722D01*
X138094703Y-108275722D01*
G37*
D14*
X137255000Y-108575000D03*
D10*
G36*
X138094703Y-109545722D02*
G01*
X138109264Y-109547882D01*
X138123543Y-109551459D01*
X138137403Y-109556418D01*
X138150710Y-109562712D01*
X138163336Y-109570280D01*
X138175159Y-109579048D01*
X138186066Y-109588934D01*
X138195952Y-109599841D01*
X138204720Y-109611664D01*
X138212288Y-109624290D01*
X138218582Y-109637597D01*
X138223541Y-109651457D01*
X138227118Y-109665736D01*
X138229278Y-109680297D01*
X138230000Y-109695000D01*
X138230000Y-109995000D01*
X138229278Y-110009703D01*
X138227118Y-110024264D01*
X138223541Y-110038543D01*
X138218582Y-110052403D01*
X138212288Y-110065710D01*
X138204720Y-110078336D01*
X138195952Y-110090159D01*
X138186066Y-110101066D01*
X138175159Y-110110952D01*
X138163336Y-110119720D01*
X138150710Y-110127288D01*
X138137403Y-110133582D01*
X138123543Y-110138541D01*
X138109264Y-110142118D01*
X138094703Y-110144278D01*
X138080000Y-110145000D01*
X136430000Y-110145000D01*
X136415297Y-110144278D01*
X136400736Y-110142118D01*
X136386457Y-110138541D01*
X136372597Y-110133582D01*
X136359290Y-110127288D01*
X136346664Y-110119720D01*
X136334841Y-110110952D01*
X136323934Y-110101066D01*
X136314048Y-110090159D01*
X136305280Y-110078336D01*
X136297712Y-110065710D01*
X136291418Y-110052403D01*
X136286459Y-110038543D01*
X136282882Y-110024264D01*
X136280722Y-110009703D01*
X136280000Y-109995000D01*
X136280000Y-109695000D01*
X136280722Y-109680297D01*
X136282882Y-109665736D01*
X136286459Y-109651457D01*
X136291418Y-109637597D01*
X136297712Y-109624290D01*
X136305280Y-109611664D01*
X136314048Y-109599841D01*
X136323934Y-109588934D01*
X136334841Y-109579048D01*
X136346664Y-109570280D01*
X136359290Y-109562712D01*
X136372597Y-109556418D01*
X136386457Y-109551459D01*
X136400736Y-109547882D01*
X136415297Y-109545722D01*
X136430000Y-109545000D01*
X138080000Y-109545000D01*
X138094703Y-109545722D01*
X138094703Y-109545722D01*
G37*
D14*
X137255000Y-109845000D03*
D10*
G36*
X138094703Y-110815722D02*
G01*
X138109264Y-110817882D01*
X138123543Y-110821459D01*
X138137403Y-110826418D01*
X138150710Y-110832712D01*
X138163336Y-110840280D01*
X138175159Y-110849048D01*
X138186066Y-110858934D01*
X138195952Y-110869841D01*
X138204720Y-110881664D01*
X138212288Y-110894290D01*
X138218582Y-110907597D01*
X138223541Y-110921457D01*
X138227118Y-110935736D01*
X138229278Y-110950297D01*
X138230000Y-110965000D01*
X138230000Y-111265000D01*
X138229278Y-111279703D01*
X138227118Y-111294264D01*
X138223541Y-111308543D01*
X138218582Y-111322403D01*
X138212288Y-111335710D01*
X138204720Y-111348336D01*
X138195952Y-111360159D01*
X138186066Y-111371066D01*
X138175159Y-111380952D01*
X138163336Y-111389720D01*
X138150710Y-111397288D01*
X138137403Y-111403582D01*
X138123543Y-111408541D01*
X138109264Y-111412118D01*
X138094703Y-111414278D01*
X138080000Y-111415000D01*
X136430000Y-111415000D01*
X136415297Y-111414278D01*
X136400736Y-111412118D01*
X136386457Y-111408541D01*
X136372597Y-111403582D01*
X136359290Y-111397288D01*
X136346664Y-111389720D01*
X136334841Y-111380952D01*
X136323934Y-111371066D01*
X136314048Y-111360159D01*
X136305280Y-111348336D01*
X136297712Y-111335710D01*
X136291418Y-111322403D01*
X136286459Y-111308543D01*
X136282882Y-111294264D01*
X136280722Y-111279703D01*
X136280000Y-111265000D01*
X136280000Y-110965000D01*
X136280722Y-110950297D01*
X136282882Y-110935736D01*
X136286459Y-110921457D01*
X136291418Y-110907597D01*
X136297712Y-110894290D01*
X136305280Y-110881664D01*
X136314048Y-110869841D01*
X136323934Y-110858934D01*
X136334841Y-110849048D01*
X136346664Y-110840280D01*
X136359290Y-110832712D01*
X136372597Y-110826418D01*
X136386457Y-110821459D01*
X136400736Y-110817882D01*
X136415297Y-110815722D01*
X136430000Y-110815000D01*
X138080000Y-110815000D01*
X138094703Y-110815722D01*
X138094703Y-110815722D01*
G37*
D14*
X137255000Y-111115000D03*
D10*
G36*
X138094703Y-112085722D02*
G01*
X138109264Y-112087882D01*
X138123543Y-112091459D01*
X138137403Y-112096418D01*
X138150710Y-112102712D01*
X138163336Y-112110280D01*
X138175159Y-112119048D01*
X138186066Y-112128934D01*
X138195952Y-112139841D01*
X138204720Y-112151664D01*
X138212288Y-112164290D01*
X138218582Y-112177597D01*
X138223541Y-112191457D01*
X138227118Y-112205736D01*
X138229278Y-112220297D01*
X138230000Y-112235000D01*
X138230000Y-112535000D01*
X138229278Y-112549703D01*
X138227118Y-112564264D01*
X138223541Y-112578543D01*
X138218582Y-112592403D01*
X138212288Y-112605710D01*
X138204720Y-112618336D01*
X138195952Y-112630159D01*
X138186066Y-112641066D01*
X138175159Y-112650952D01*
X138163336Y-112659720D01*
X138150710Y-112667288D01*
X138137403Y-112673582D01*
X138123543Y-112678541D01*
X138109264Y-112682118D01*
X138094703Y-112684278D01*
X138080000Y-112685000D01*
X136430000Y-112685000D01*
X136415297Y-112684278D01*
X136400736Y-112682118D01*
X136386457Y-112678541D01*
X136372597Y-112673582D01*
X136359290Y-112667288D01*
X136346664Y-112659720D01*
X136334841Y-112650952D01*
X136323934Y-112641066D01*
X136314048Y-112630159D01*
X136305280Y-112618336D01*
X136297712Y-112605710D01*
X136291418Y-112592403D01*
X136286459Y-112578543D01*
X136282882Y-112564264D01*
X136280722Y-112549703D01*
X136280000Y-112535000D01*
X136280000Y-112235000D01*
X136280722Y-112220297D01*
X136282882Y-112205736D01*
X136286459Y-112191457D01*
X136291418Y-112177597D01*
X136297712Y-112164290D01*
X136305280Y-112151664D01*
X136314048Y-112139841D01*
X136323934Y-112128934D01*
X136334841Y-112119048D01*
X136346664Y-112110280D01*
X136359290Y-112102712D01*
X136372597Y-112096418D01*
X136386457Y-112091459D01*
X136400736Y-112087882D01*
X136415297Y-112085722D01*
X136430000Y-112085000D01*
X138080000Y-112085000D01*
X138094703Y-112085722D01*
X138094703Y-112085722D01*
G37*
D14*
X137255000Y-112385000D03*
D13*
X134140000Y-102236000D03*
X134140000Y-104136000D03*
X131940000Y-104136000D03*
X131940000Y-103186000D03*
X131940000Y-102236000D03*
D10*
G36*
X146653691Y-103708053D02*
G01*
X146674926Y-103711203D01*
X146695750Y-103716419D01*
X146715962Y-103723651D01*
X146735368Y-103732830D01*
X146753781Y-103743866D01*
X146771024Y-103756654D01*
X146786930Y-103771070D01*
X146801346Y-103786976D01*
X146814134Y-103804219D01*
X146825170Y-103822632D01*
X146834349Y-103842038D01*
X146841581Y-103862250D01*
X146846797Y-103883074D01*
X146849947Y-103904309D01*
X146851000Y-103925750D01*
X146851000Y-104438250D01*
X146849947Y-104459691D01*
X146846797Y-104480926D01*
X146841581Y-104501750D01*
X146834349Y-104521962D01*
X146825170Y-104541368D01*
X146814134Y-104559781D01*
X146801346Y-104577024D01*
X146786930Y-104592930D01*
X146771024Y-104607346D01*
X146753781Y-104620134D01*
X146735368Y-104631170D01*
X146715962Y-104640349D01*
X146695750Y-104647581D01*
X146674926Y-104652797D01*
X146653691Y-104655947D01*
X146632250Y-104657000D01*
X146194750Y-104657000D01*
X146173309Y-104655947D01*
X146152074Y-104652797D01*
X146131250Y-104647581D01*
X146111038Y-104640349D01*
X146091632Y-104631170D01*
X146073219Y-104620134D01*
X146055976Y-104607346D01*
X146040070Y-104592930D01*
X146025654Y-104577024D01*
X146012866Y-104559781D01*
X146001830Y-104541368D01*
X145992651Y-104521962D01*
X145985419Y-104501750D01*
X145980203Y-104480926D01*
X145977053Y-104459691D01*
X145976000Y-104438250D01*
X145976000Y-103925750D01*
X145977053Y-103904309D01*
X145980203Y-103883074D01*
X145985419Y-103862250D01*
X145992651Y-103842038D01*
X146001830Y-103822632D01*
X146012866Y-103804219D01*
X146025654Y-103786976D01*
X146040070Y-103771070D01*
X146055976Y-103756654D01*
X146073219Y-103743866D01*
X146091632Y-103732830D01*
X146111038Y-103723651D01*
X146131250Y-103716419D01*
X146152074Y-103711203D01*
X146173309Y-103708053D01*
X146194750Y-103707000D01*
X146632250Y-103707000D01*
X146653691Y-103708053D01*
X146653691Y-103708053D01*
G37*
D11*
X146413500Y-104182000D03*
D10*
G36*
X145078691Y-103708053D02*
G01*
X145099926Y-103711203D01*
X145120750Y-103716419D01*
X145140962Y-103723651D01*
X145160368Y-103732830D01*
X145178781Y-103743866D01*
X145196024Y-103756654D01*
X145211930Y-103771070D01*
X145226346Y-103786976D01*
X145239134Y-103804219D01*
X145250170Y-103822632D01*
X145259349Y-103842038D01*
X145266581Y-103862250D01*
X145271797Y-103883074D01*
X145274947Y-103904309D01*
X145276000Y-103925750D01*
X145276000Y-104438250D01*
X145274947Y-104459691D01*
X145271797Y-104480926D01*
X145266581Y-104501750D01*
X145259349Y-104521962D01*
X145250170Y-104541368D01*
X145239134Y-104559781D01*
X145226346Y-104577024D01*
X145211930Y-104592930D01*
X145196024Y-104607346D01*
X145178781Y-104620134D01*
X145160368Y-104631170D01*
X145140962Y-104640349D01*
X145120750Y-104647581D01*
X145099926Y-104652797D01*
X145078691Y-104655947D01*
X145057250Y-104657000D01*
X144619750Y-104657000D01*
X144598309Y-104655947D01*
X144577074Y-104652797D01*
X144556250Y-104647581D01*
X144536038Y-104640349D01*
X144516632Y-104631170D01*
X144498219Y-104620134D01*
X144480976Y-104607346D01*
X144465070Y-104592930D01*
X144450654Y-104577024D01*
X144437866Y-104559781D01*
X144426830Y-104541368D01*
X144417651Y-104521962D01*
X144410419Y-104501750D01*
X144405203Y-104480926D01*
X144402053Y-104459691D01*
X144401000Y-104438250D01*
X144401000Y-103925750D01*
X144402053Y-103904309D01*
X144405203Y-103883074D01*
X144410419Y-103862250D01*
X144417651Y-103842038D01*
X144426830Y-103822632D01*
X144437866Y-103804219D01*
X144450654Y-103786976D01*
X144465070Y-103771070D01*
X144480976Y-103756654D01*
X144498219Y-103743866D01*
X144516632Y-103732830D01*
X144536038Y-103723651D01*
X144556250Y-103716419D01*
X144577074Y-103711203D01*
X144598309Y-103708053D01*
X144619750Y-103707000D01*
X145057250Y-103707000D01*
X145078691Y-103708053D01*
X145078691Y-103708053D01*
G37*
D11*
X144838500Y-104182000D03*
D10*
G36*
X142378691Y-122444053D02*
G01*
X142399926Y-122447203D01*
X142420750Y-122452419D01*
X142440962Y-122459651D01*
X142460368Y-122468830D01*
X142478781Y-122479866D01*
X142496024Y-122492654D01*
X142511930Y-122507070D01*
X142526346Y-122522976D01*
X142539134Y-122540219D01*
X142550170Y-122558632D01*
X142559349Y-122578038D01*
X142566581Y-122598250D01*
X142571797Y-122619074D01*
X142574947Y-122640309D01*
X142576000Y-122661750D01*
X142576000Y-123174250D01*
X142574947Y-123195691D01*
X142571797Y-123216926D01*
X142566581Y-123237750D01*
X142559349Y-123257962D01*
X142550170Y-123277368D01*
X142539134Y-123295781D01*
X142526346Y-123313024D01*
X142511930Y-123328930D01*
X142496024Y-123343346D01*
X142478781Y-123356134D01*
X142460368Y-123367170D01*
X142440962Y-123376349D01*
X142420750Y-123383581D01*
X142399926Y-123388797D01*
X142378691Y-123391947D01*
X142357250Y-123393000D01*
X141919750Y-123393000D01*
X141898309Y-123391947D01*
X141877074Y-123388797D01*
X141856250Y-123383581D01*
X141836038Y-123376349D01*
X141816632Y-123367170D01*
X141798219Y-123356134D01*
X141780976Y-123343346D01*
X141765070Y-123328930D01*
X141750654Y-123313024D01*
X141737866Y-123295781D01*
X141726830Y-123277368D01*
X141717651Y-123257962D01*
X141710419Y-123237750D01*
X141705203Y-123216926D01*
X141702053Y-123195691D01*
X141701000Y-123174250D01*
X141701000Y-122661750D01*
X141702053Y-122640309D01*
X141705203Y-122619074D01*
X141710419Y-122598250D01*
X141717651Y-122578038D01*
X141726830Y-122558632D01*
X141737866Y-122540219D01*
X141750654Y-122522976D01*
X141765070Y-122507070D01*
X141780976Y-122492654D01*
X141798219Y-122479866D01*
X141816632Y-122468830D01*
X141836038Y-122459651D01*
X141856250Y-122452419D01*
X141877074Y-122447203D01*
X141898309Y-122444053D01*
X141919750Y-122443000D01*
X142357250Y-122443000D01*
X142378691Y-122444053D01*
X142378691Y-122444053D01*
G37*
D11*
X142138500Y-122918000D03*
D10*
G36*
X143953691Y-122444053D02*
G01*
X143974926Y-122447203D01*
X143995750Y-122452419D01*
X144015962Y-122459651D01*
X144035368Y-122468830D01*
X144053781Y-122479866D01*
X144071024Y-122492654D01*
X144086930Y-122507070D01*
X144101346Y-122522976D01*
X144114134Y-122540219D01*
X144125170Y-122558632D01*
X144134349Y-122578038D01*
X144141581Y-122598250D01*
X144146797Y-122619074D01*
X144149947Y-122640309D01*
X144151000Y-122661750D01*
X144151000Y-123174250D01*
X144149947Y-123195691D01*
X144146797Y-123216926D01*
X144141581Y-123237750D01*
X144134349Y-123257962D01*
X144125170Y-123277368D01*
X144114134Y-123295781D01*
X144101346Y-123313024D01*
X144086930Y-123328930D01*
X144071024Y-123343346D01*
X144053781Y-123356134D01*
X144035368Y-123367170D01*
X144015962Y-123376349D01*
X143995750Y-123383581D01*
X143974926Y-123388797D01*
X143953691Y-123391947D01*
X143932250Y-123393000D01*
X143494750Y-123393000D01*
X143473309Y-123391947D01*
X143452074Y-123388797D01*
X143431250Y-123383581D01*
X143411038Y-123376349D01*
X143391632Y-123367170D01*
X143373219Y-123356134D01*
X143355976Y-123343346D01*
X143340070Y-123328930D01*
X143325654Y-123313024D01*
X143312866Y-123295781D01*
X143301830Y-123277368D01*
X143292651Y-123257962D01*
X143285419Y-123237750D01*
X143280203Y-123216926D01*
X143277053Y-123195691D01*
X143276000Y-123174250D01*
X143276000Y-122661750D01*
X143277053Y-122640309D01*
X143280203Y-122619074D01*
X143285419Y-122598250D01*
X143292651Y-122578038D01*
X143301830Y-122558632D01*
X143312866Y-122540219D01*
X143325654Y-122522976D01*
X143340070Y-122507070D01*
X143355976Y-122492654D01*
X143373219Y-122479866D01*
X143391632Y-122468830D01*
X143411038Y-122459651D01*
X143431250Y-122452419D01*
X143452074Y-122447203D01*
X143473309Y-122444053D01*
X143494750Y-122443000D01*
X143932250Y-122443000D01*
X143953691Y-122444053D01*
X143953691Y-122444053D01*
G37*
D11*
X143713500Y-122918000D03*
D10*
G36*
X138591691Y-119944053D02*
G01*
X138612926Y-119947203D01*
X138633750Y-119952419D01*
X138653962Y-119959651D01*
X138673368Y-119968830D01*
X138691781Y-119979866D01*
X138709024Y-119992654D01*
X138724930Y-120007070D01*
X138739346Y-120022976D01*
X138752134Y-120040219D01*
X138763170Y-120058632D01*
X138772349Y-120078038D01*
X138779581Y-120098250D01*
X138784797Y-120119074D01*
X138787947Y-120140309D01*
X138789000Y-120161750D01*
X138789000Y-120674250D01*
X138787947Y-120695691D01*
X138784797Y-120716926D01*
X138779581Y-120737750D01*
X138772349Y-120757962D01*
X138763170Y-120777368D01*
X138752134Y-120795781D01*
X138739346Y-120813024D01*
X138724930Y-120828930D01*
X138709024Y-120843346D01*
X138691781Y-120856134D01*
X138673368Y-120867170D01*
X138653962Y-120876349D01*
X138633750Y-120883581D01*
X138612926Y-120888797D01*
X138591691Y-120891947D01*
X138570250Y-120893000D01*
X138132750Y-120893000D01*
X138111309Y-120891947D01*
X138090074Y-120888797D01*
X138069250Y-120883581D01*
X138049038Y-120876349D01*
X138029632Y-120867170D01*
X138011219Y-120856134D01*
X137993976Y-120843346D01*
X137978070Y-120828930D01*
X137963654Y-120813024D01*
X137950866Y-120795781D01*
X137939830Y-120777368D01*
X137930651Y-120757962D01*
X137923419Y-120737750D01*
X137918203Y-120716926D01*
X137915053Y-120695691D01*
X137914000Y-120674250D01*
X137914000Y-120161750D01*
X137915053Y-120140309D01*
X137918203Y-120119074D01*
X137923419Y-120098250D01*
X137930651Y-120078038D01*
X137939830Y-120058632D01*
X137950866Y-120040219D01*
X137963654Y-120022976D01*
X137978070Y-120007070D01*
X137993976Y-119992654D01*
X138011219Y-119979866D01*
X138029632Y-119968830D01*
X138049038Y-119959651D01*
X138069250Y-119952419D01*
X138090074Y-119947203D01*
X138111309Y-119944053D01*
X138132750Y-119943000D01*
X138570250Y-119943000D01*
X138591691Y-119944053D01*
X138591691Y-119944053D01*
G37*
D11*
X138351500Y-120418000D03*
D10*
G36*
X137016691Y-119944053D02*
G01*
X137037926Y-119947203D01*
X137058750Y-119952419D01*
X137078962Y-119959651D01*
X137098368Y-119968830D01*
X137116781Y-119979866D01*
X137134024Y-119992654D01*
X137149930Y-120007070D01*
X137164346Y-120022976D01*
X137177134Y-120040219D01*
X137188170Y-120058632D01*
X137197349Y-120078038D01*
X137204581Y-120098250D01*
X137209797Y-120119074D01*
X137212947Y-120140309D01*
X137214000Y-120161750D01*
X137214000Y-120674250D01*
X137212947Y-120695691D01*
X137209797Y-120716926D01*
X137204581Y-120737750D01*
X137197349Y-120757962D01*
X137188170Y-120777368D01*
X137177134Y-120795781D01*
X137164346Y-120813024D01*
X137149930Y-120828930D01*
X137134024Y-120843346D01*
X137116781Y-120856134D01*
X137098368Y-120867170D01*
X137078962Y-120876349D01*
X137058750Y-120883581D01*
X137037926Y-120888797D01*
X137016691Y-120891947D01*
X136995250Y-120893000D01*
X136557750Y-120893000D01*
X136536309Y-120891947D01*
X136515074Y-120888797D01*
X136494250Y-120883581D01*
X136474038Y-120876349D01*
X136454632Y-120867170D01*
X136436219Y-120856134D01*
X136418976Y-120843346D01*
X136403070Y-120828930D01*
X136388654Y-120813024D01*
X136375866Y-120795781D01*
X136364830Y-120777368D01*
X136355651Y-120757962D01*
X136348419Y-120737750D01*
X136343203Y-120716926D01*
X136340053Y-120695691D01*
X136339000Y-120674250D01*
X136339000Y-120161750D01*
X136340053Y-120140309D01*
X136343203Y-120119074D01*
X136348419Y-120098250D01*
X136355651Y-120078038D01*
X136364830Y-120058632D01*
X136375866Y-120040219D01*
X136388654Y-120022976D01*
X136403070Y-120007070D01*
X136418976Y-119992654D01*
X136436219Y-119979866D01*
X136454632Y-119968830D01*
X136474038Y-119959651D01*
X136494250Y-119952419D01*
X136515074Y-119947203D01*
X136536309Y-119944053D01*
X136557750Y-119943000D01*
X136995250Y-119943000D01*
X137016691Y-119944053D01*
X137016691Y-119944053D01*
G37*
D11*
X136776500Y-120418000D03*
D10*
G36*
X146627691Y-101676053D02*
G01*
X146648926Y-101679203D01*
X146669750Y-101684419D01*
X146689962Y-101691651D01*
X146709368Y-101700830D01*
X146727781Y-101711866D01*
X146745024Y-101724654D01*
X146760930Y-101739070D01*
X146775346Y-101754976D01*
X146788134Y-101772219D01*
X146799170Y-101790632D01*
X146808349Y-101810038D01*
X146815581Y-101830250D01*
X146820797Y-101851074D01*
X146823947Y-101872309D01*
X146825000Y-101893750D01*
X146825000Y-102406250D01*
X146823947Y-102427691D01*
X146820797Y-102448926D01*
X146815581Y-102469750D01*
X146808349Y-102489962D01*
X146799170Y-102509368D01*
X146788134Y-102527781D01*
X146775346Y-102545024D01*
X146760930Y-102560930D01*
X146745024Y-102575346D01*
X146727781Y-102588134D01*
X146709368Y-102599170D01*
X146689962Y-102608349D01*
X146669750Y-102615581D01*
X146648926Y-102620797D01*
X146627691Y-102623947D01*
X146606250Y-102625000D01*
X146168750Y-102625000D01*
X146147309Y-102623947D01*
X146126074Y-102620797D01*
X146105250Y-102615581D01*
X146085038Y-102608349D01*
X146065632Y-102599170D01*
X146047219Y-102588134D01*
X146029976Y-102575346D01*
X146014070Y-102560930D01*
X145999654Y-102545024D01*
X145986866Y-102527781D01*
X145975830Y-102509368D01*
X145966651Y-102489962D01*
X145959419Y-102469750D01*
X145954203Y-102448926D01*
X145951053Y-102427691D01*
X145950000Y-102406250D01*
X145950000Y-101893750D01*
X145951053Y-101872309D01*
X145954203Y-101851074D01*
X145959419Y-101830250D01*
X145966651Y-101810038D01*
X145975830Y-101790632D01*
X145986866Y-101772219D01*
X145999654Y-101754976D01*
X146014070Y-101739070D01*
X146029976Y-101724654D01*
X146047219Y-101711866D01*
X146065632Y-101700830D01*
X146085038Y-101691651D01*
X146105250Y-101684419D01*
X146126074Y-101679203D01*
X146147309Y-101676053D01*
X146168750Y-101675000D01*
X146606250Y-101675000D01*
X146627691Y-101676053D01*
X146627691Y-101676053D01*
G37*
D11*
X146387500Y-102150000D03*
D10*
G36*
X145052691Y-101676053D02*
G01*
X145073926Y-101679203D01*
X145094750Y-101684419D01*
X145114962Y-101691651D01*
X145134368Y-101700830D01*
X145152781Y-101711866D01*
X145170024Y-101724654D01*
X145185930Y-101739070D01*
X145200346Y-101754976D01*
X145213134Y-101772219D01*
X145224170Y-101790632D01*
X145233349Y-101810038D01*
X145240581Y-101830250D01*
X145245797Y-101851074D01*
X145248947Y-101872309D01*
X145250000Y-101893750D01*
X145250000Y-102406250D01*
X145248947Y-102427691D01*
X145245797Y-102448926D01*
X145240581Y-102469750D01*
X145233349Y-102489962D01*
X145224170Y-102509368D01*
X145213134Y-102527781D01*
X145200346Y-102545024D01*
X145185930Y-102560930D01*
X145170024Y-102575346D01*
X145152781Y-102588134D01*
X145134368Y-102599170D01*
X145114962Y-102608349D01*
X145094750Y-102615581D01*
X145073926Y-102620797D01*
X145052691Y-102623947D01*
X145031250Y-102625000D01*
X144593750Y-102625000D01*
X144572309Y-102623947D01*
X144551074Y-102620797D01*
X144530250Y-102615581D01*
X144510038Y-102608349D01*
X144490632Y-102599170D01*
X144472219Y-102588134D01*
X144454976Y-102575346D01*
X144439070Y-102560930D01*
X144424654Y-102545024D01*
X144411866Y-102527781D01*
X144400830Y-102509368D01*
X144391651Y-102489962D01*
X144384419Y-102469750D01*
X144379203Y-102448926D01*
X144376053Y-102427691D01*
X144375000Y-102406250D01*
X144375000Y-101893750D01*
X144376053Y-101872309D01*
X144379203Y-101851074D01*
X144384419Y-101830250D01*
X144391651Y-101810038D01*
X144400830Y-101790632D01*
X144411866Y-101772219D01*
X144424654Y-101754976D01*
X144439070Y-101739070D01*
X144454976Y-101724654D01*
X144472219Y-101711866D01*
X144490632Y-101700830D01*
X144510038Y-101691651D01*
X144530250Y-101684419D01*
X144551074Y-101679203D01*
X144572309Y-101676053D01*
X144593750Y-101675000D01*
X145031250Y-101675000D01*
X145052691Y-101676053D01*
X145052691Y-101676053D01*
G37*
D11*
X144812500Y-102150000D03*
D10*
G36*
X144675691Y-115576053D02*
G01*
X144696926Y-115579203D01*
X144717750Y-115584419D01*
X144737962Y-115591651D01*
X144757368Y-115600830D01*
X144775781Y-115611866D01*
X144793024Y-115624654D01*
X144808930Y-115639070D01*
X144823346Y-115654976D01*
X144836134Y-115672219D01*
X144847170Y-115690632D01*
X144856349Y-115710038D01*
X144863581Y-115730250D01*
X144868797Y-115751074D01*
X144871947Y-115772309D01*
X144873000Y-115793750D01*
X144873000Y-116306250D01*
X144871947Y-116327691D01*
X144868797Y-116348926D01*
X144863581Y-116369750D01*
X144856349Y-116389962D01*
X144847170Y-116409368D01*
X144836134Y-116427781D01*
X144823346Y-116445024D01*
X144808930Y-116460930D01*
X144793024Y-116475346D01*
X144775781Y-116488134D01*
X144757368Y-116499170D01*
X144737962Y-116508349D01*
X144717750Y-116515581D01*
X144696926Y-116520797D01*
X144675691Y-116523947D01*
X144654250Y-116525000D01*
X144216750Y-116525000D01*
X144195309Y-116523947D01*
X144174074Y-116520797D01*
X144153250Y-116515581D01*
X144133038Y-116508349D01*
X144113632Y-116499170D01*
X144095219Y-116488134D01*
X144077976Y-116475346D01*
X144062070Y-116460930D01*
X144047654Y-116445024D01*
X144034866Y-116427781D01*
X144023830Y-116409368D01*
X144014651Y-116389962D01*
X144007419Y-116369750D01*
X144002203Y-116348926D01*
X143999053Y-116327691D01*
X143998000Y-116306250D01*
X143998000Y-115793750D01*
X143999053Y-115772309D01*
X144002203Y-115751074D01*
X144007419Y-115730250D01*
X144014651Y-115710038D01*
X144023830Y-115690632D01*
X144034866Y-115672219D01*
X144047654Y-115654976D01*
X144062070Y-115639070D01*
X144077976Y-115624654D01*
X144095219Y-115611866D01*
X144113632Y-115600830D01*
X144133038Y-115591651D01*
X144153250Y-115584419D01*
X144174074Y-115579203D01*
X144195309Y-115576053D01*
X144216750Y-115575000D01*
X144654250Y-115575000D01*
X144675691Y-115576053D01*
X144675691Y-115576053D01*
G37*
D11*
X144435500Y-116050000D03*
D10*
G36*
X143100691Y-115576053D02*
G01*
X143121926Y-115579203D01*
X143142750Y-115584419D01*
X143162962Y-115591651D01*
X143182368Y-115600830D01*
X143200781Y-115611866D01*
X143218024Y-115624654D01*
X143233930Y-115639070D01*
X143248346Y-115654976D01*
X143261134Y-115672219D01*
X143272170Y-115690632D01*
X143281349Y-115710038D01*
X143288581Y-115730250D01*
X143293797Y-115751074D01*
X143296947Y-115772309D01*
X143298000Y-115793750D01*
X143298000Y-116306250D01*
X143296947Y-116327691D01*
X143293797Y-116348926D01*
X143288581Y-116369750D01*
X143281349Y-116389962D01*
X143272170Y-116409368D01*
X143261134Y-116427781D01*
X143248346Y-116445024D01*
X143233930Y-116460930D01*
X143218024Y-116475346D01*
X143200781Y-116488134D01*
X143182368Y-116499170D01*
X143162962Y-116508349D01*
X143142750Y-116515581D01*
X143121926Y-116520797D01*
X143100691Y-116523947D01*
X143079250Y-116525000D01*
X142641750Y-116525000D01*
X142620309Y-116523947D01*
X142599074Y-116520797D01*
X142578250Y-116515581D01*
X142558038Y-116508349D01*
X142538632Y-116499170D01*
X142520219Y-116488134D01*
X142502976Y-116475346D01*
X142487070Y-116460930D01*
X142472654Y-116445024D01*
X142459866Y-116427781D01*
X142448830Y-116409368D01*
X142439651Y-116389962D01*
X142432419Y-116369750D01*
X142427203Y-116348926D01*
X142424053Y-116327691D01*
X142423000Y-116306250D01*
X142423000Y-115793750D01*
X142424053Y-115772309D01*
X142427203Y-115751074D01*
X142432419Y-115730250D01*
X142439651Y-115710038D01*
X142448830Y-115690632D01*
X142459866Y-115672219D01*
X142472654Y-115654976D01*
X142487070Y-115639070D01*
X142502976Y-115624654D01*
X142520219Y-115611866D01*
X142538632Y-115600830D01*
X142558038Y-115591651D01*
X142578250Y-115584419D01*
X142599074Y-115579203D01*
X142620309Y-115576053D01*
X142641750Y-115575000D01*
X143079250Y-115575000D01*
X143100691Y-115576053D01*
X143100691Y-115576053D01*
G37*
D11*
X142860500Y-116050000D03*
D10*
G36*
X144677691Y-109616053D02*
G01*
X144698926Y-109619203D01*
X144719750Y-109624419D01*
X144739962Y-109631651D01*
X144759368Y-109640830D01*
X144777781Y-109651866D01*
X144795024Y-109664654D01*
X144810930Y-109679070D01*
X144825346Y-109694976D01*
X144838134Y-109712219D01*
X144849170Y-109730632D01*
X144858349Y-109750038D01*
X144865581Y-109770250D01*
X144870797Y-109791074D01*
X144873947Y-109812309D01*
X144875000Y-109833750D01*
X144875000Y-110346250D01*
X144873947Y-110367691D01*
X144870797Y-110388926D01*
X144865581Y-110409750D01*
X144858349Y-110429962D01*
X144849170Y-110449368D01*
X144838134Y-110467781D01*
X144825346Y-110485024D01*
X144810930Y-110500930D01*
X144795024Y-110515346D01*
X144777781Y-110528134D01*
X144759368Y-110539170D01*
X144739962Y-110548349D01*
X144719750Y-110555581D01*
X144698926Y-110560797D01*
X144677691Y-110563947D01*
X144656250Y-110565000D01*
X144218750Y-110565000D01*
X144197309Y-110563947D01*
X144176074Y-110560797D01*
X144155250Y-110555581D01*
X144135038Y-110548349D01*
X144115632Y-110539170D01*
X144097219Y-110528134D01*
X144079976Y-110515346D01*
X144064070Y-110500930D01*
X144049654Y-110485024D01*
X144036866Y-110467781D01*
X144025830Y-110449368D01*
X144016651Y-110429962D01*
X144009419Y-110409750D01*
X144004203Y-110388926D01*
X144001053Y-110367691D01*
X144000000Y-110346250D01*
X144000000Y-109833750D01*
X144001053Y-109812309D01*
X144004203Y-109791074D01*
X144009419Y-109770250D01*
X144016651Y-109750038D01*
X144025830Y-109730632D01*
X144036866Y-109712219D01*
X144049654Y-109694976D01*
X144064070Y-109679070D01*
X144079976Y-109664654D01*
X144097219Y-109651866D01*
X144115632Y-109640830D01*
X144135038Y-109631651D01*
X144155250Y-109624419D01*
X144176074Y-109619203D01*
X144197309Y-109616053D01*
X144218750Y-109615000D01*
X144656250Y-109615000D01*
X144677691Y-109616053D01*
X144677691Y-109616053D01*
G37*
D11*
X144437500Y-110090000D03*
D10*
G36*
X143102691Y-109616053D02*
G01*
X143123926Y-109619203D01*
X143144750Y-109624419D01*
X143164962Y-109631651D01*
X143184368Y-109640830D01*
X143202781Y-109651866D01*
X143220024Y-109664654D01*
X143235930Y-109679070D01*
X143250346Y-109694976D01*
X143263134Y-109712219D01*
X143274170Y-109730632D01*
X143283349Y-109750038D01*
X143290581Y-109770250D01*
X143295797Y-109791074D01*
X143298947Y-109812309D01*
X143300000Y-109833750D01*
X143300000Y-110346250D01*
X143298947Y-110367691D01*
X143295797Y-110388926D01*
X143290581Y-110409750D01*
X143283349Y-110429962D01*
X143274170Y-110449368D01*
X143263134Y-110467781D01*
X143250346Y-110485024D01*
X143235930Y-110500930D01*
X143220024Y-110515346D01*
X143202781Y-110528134D01*
X143184368Y-110539170D01*
X143164962Y-110548349D01*
X143144750Y-110555581D01*
X143123926Y-110560797D01*
X143102691Y-110563947D01*
X143081250Y-110565000D01*
X142643750Y-110565000D01*
X142622309Y-110563947D01*
X142601074Y-110560797D01*
X142580250Y-110555581D01*
X142560038Y-110548349D01*
X142540632Y-110539170D01*
X142522219Y-110528134D01*
X142504976Y-110515346D01*
X142489070Y-110500930D01*
X142474654Y-110485024D01*
X142461866Y-110467781D01*
X142450830Y-110449368D01*
X142441651Y-110429962D01*
X142434419Y-110409750D01*
X142429203Y-110388926D01*
X142426053Y-110367691D01*
X142425000Y-110346250D01*
X142425000Y-109833750D01*
X142426053Y-109812309D01*
X142429203Y-109791074D01*
X142434419Y-109770250D01*
X142441651Y-109750038D01*
X142450830Y-109730632D01*
X142461866Y-109712219D01*
X142474654Y-109694976D01*
X142489070Y-109679070D01*
X142504976Y-109664654D01*
X142522219Y-109651866D01*
X142540632Y-109640830D01*
X142560038Y-109631651D01*
X142580250Y-109624419D01*
X142601074Y-109619203D01*
X142622309Y-109616053D01*
X142643750Y-109615000D01*
X143081250Y-109615000D01*
X143102691Y-109616053D01*
X143102691Y-109616053D01*
G37*
D11*
X142862500Y-110090000D03*
D10*
G36*
X142817691Y-103708053D02*
G01*
X142838926Y-103711203D01*
X142859750Y-103716419D01*
X142879962Y-103723651D01*
X142899368Y-103732830D01*
X142917781Y-103743866D01*
X142935024Y-103756654D01*
X142950930Y-103771070D01*
X142965346Y-103786976D01*
X142978134Y-103804219D01*
X142989170Y-103822632D01*
X142998349Y-103842038D01*
X143005581Y-103862250D01*
X143010797Y-103883074D01*
X143013947Y-103904309D01*
X143015000Y-103925750D01*
X143015000Y-104438250D01*
X143013947Y-104459691D01*
X143010797Y-104480926D01*
X143005581Y-104501750D01*
X142998349Y-104521962D01*
X142989170Y-104541368D01*
X142978134Y-104559781D01*
X142965346Y-104577024D01*
X142950930Y-104592930D01*
X142935024Y-104607346D01*
X142917781Y-104620134D01*
X142899368Y-104631170D01*
X142879962Y-104640349D01*
X142859750Y-104647581D01*
X142838926Y-104652797D01*
X142817691Y-104655947D01*
X142796250Y-104657000D01*
X142358750Y-104657000D01*
X142337309Y-104655947D01*
X142316074Y-104652797D01*
X142295250Y-104647581D01*
X142275038Y-104640349D01*
X142255632Y-104631170D01*
X142237219Y-104620134D01*
X142219976Y-104607346D01*
X142204070Y-104592930D01*
X142189654Y-104577024D01*
X142176866Y-104559781D01*
X142165830Y-104541368D01*
X142156651Y-104521962D01*
X142149419Y-104501750D01*
X142144203Y-104480926D01*
X142141053Y-104459691D01*
X142140000Y-104438250D01*
X142140000Y-103925750D01*
X142141053Y-103904309D01*
X142144203Y-103883074D01*
X142149419Y-103862250D01*
X142156651Y-103842038D01*
X142165830Y-103822632D01*
X142176866Y-103804219D01*
X142189654Y-103786976D01*
X142204070Y-103771070D01*
X142219976Y-103756654D01*
X142237219Y-103743866D01*
X142255632Y-103732830D01*
X142275038Y-103723651D01*
X142295250Y-103716419D01*
X142316074Y-103711203D01*
X142337309Y-103708053D01*
X142358750Y-103707000D01*
X142796250Y-103707000D01*
X142817691Y-103708053D01*
X142817691Y-103708053D01*
G37*
D11*
X142577500Y-104182000D03*
D10*
G36*
X141242691Y-103708053D02*
G01*
X141263926Y-103711203D01*
X141284750Y-103716419D01*
X141304962Y-103723651D01*
X141324368Y-103732830D01*
X141342781Y-103743866D01*
X141360024Y-103756654D01*
X141375930Y-103771070D01*
X141390346Y-103786976D01*
X141403134Y-103804219D01*
X141414170Y-103822632D01*
X141423349Y-103842038D01*
X141430581Y-103862250D01*
X141435797Y-103883074D01*
X141438947Y-103904309D01*
X141440000Y-103925750D01*
X141440000Y-104438250D01*
X141438947Y-104459691D01*
X141435797Y-104480926D01*
X141430581Y-104501750D01*
X141423349Y-104521962D01*
X141414170Y-104541368D01*
X141403134Y-104559781D01*
X141390346Y-104577024D01*
X141375930Y-104592930D01*
X141360024Y-104607346D01*
X141342781Y-104620134D01*
X141324368Y-104631170D01*
X141304962Y-104640349D01*
X141284750Y-104647581D01*
X141263926Y-104652797D01*
X141242691Y-104655947D01*
X141221250Y-104657000D01*
X140783750Y-104657000D01*
X140762309Y-104655947D01*
X140741074Y-104652797D01*
X140720250Y-104647581D01*
X140700038Y-104640349D01*
X140680632Y-104631170D01*
X140662219Y-104620134D01*
X140644976Y-104607346D01*
X140629070Y-104592930D01*
X140614654Y-104577024D01*
X140601866Y-104559781D01*
X140590830Y-104541368D01*
X140581651Y-104521962D01*
X140574419Y-104501750D01*
X140569203Y-104480926D01*
X140566053Y-104459691D01*
X140565000Y-104438250D01*
X140565000Y-103925750D01*
X140566053Y-103904309D01*
X140569203Y-103883074D01*
X140574419Y-103862250D01*
X140581651Y-103842038D01*
X140590830Y-103822632D01*
X140601866Y-103804219D01*
X140614654Y-103786976D01*
X140629070Y-103771070D01*
X140644976Y-103756654D01*
X140662219Y-103743866D01*
X140680632Y-103732830D01*
X140700038Y-103723651D01*
X140720250Y-103716419D01*
X140741074Y-103711203D01*
X140762309Y-103708053D01*
X140783750Y-103707000D01*
X141221250Y-103707000D01*
X141242691Y-103708053D01*
X141242691Y-103708053D01*
G37*
D11*
X141002500Y-104182000D03*
D10*
G36*
X142843691Y-101676053D02*
G01*
X142864926Y-101679203D01*
X142885750Y-101684419D01*
X142905962Y-101691651D01*
X142925368Y-101700830D01*
X142943781Y-101711866D01*
X142961024Y-101724654D01*
X142976930Y-101739070D01*
X142991346Y-101754976D01*
X143004134Y-101772219D01*
X143015170Y-101790632D01*
X143024349Y-101810038D01*
X143031581Y-101830250D01*
X143036797Y-101851074D01*
X143039947Y-101872309D01*
X143041000Y-101893750D01*
X143041000Y-102406250D01*
X143039947Y-102427691D01*
X143036797Y-102448926D01*
X143031581Y-102469750D01*
X143024349Y-102489962D01*
X143015170Y-102509368D01*
X143004134Y-102527781D01*
X142991346Y-102545024D01*
X142976930Y-102560930D01*
X142961024Y-102575346D01*
X142943781Y-102588134D01*
X142925368Y-102599170D01*
X142905962Y-102608349D01*
X142885750Y-102615581D01*
X142864926Y-102620797D01*
X142843691Y-102623947D01*
X142822250Y-102625000D01*
X142384750Y-102625000D01*
X142363309Y-102623947D01*
X142342074Y-102620797D01*
X142321250Y-102615581D01*
X142301038Y-102608349D01*
X142281632Y-102599170D01*
X142263219Y-102588134D01*
X142245976Y-102575346D01*
X142230070Y-102560930D01*
X142215654Y-102545024D01*
X142202866Y-102527781D01*
X142191830Y-102509368D01*
X142182651Y-102489962D01*
X142175419Y-102469750D01*
X142170203Y-102448926D01*
X142167053Y-102427691D01*
X142166000Y-102406250D01*
X142166000Y-101893750D01*
X142167053Y-101872309D01*
X142170203Y-101851074D01*
X142175419Y-101830250D01*
X142182651Y-101810038D01*
X142191830Y-101790632D01*
X142202866Y-101772219D01*
X142215654Y-101754976D01*
X142230070Y-101739070D01*
X142245976Y-101724654D01*
X142263219Y-101711866D01*
X142281632Y-101700830D01*
X142301038Y-101691651D01*
X142321250Y-101684419D01*
X142342074Y-101679203D01*
X142363309Y-101676053D01*
X142384750Y-101675000D01*
X142822250Y-101675000D01*
X142843691Y-101676053D01*
X142843691Y-101676053D01*
G37*
D11*
X142603500Y-102150000D03*
D10*
G36*
X141268691Y-101676053D02*
G01*
X141289926Y-101679203D01*
X141310750Y-101684419D01*
X141330962Y-101691651D01*
X141350368Y-101700830D01*
X141368781Y-101711866D01*
X141386024Y-101724654D01*
X141401930Y-101739070D01*
X141416346Y-101754976D01*
X141429134Y-101772219D01*
X141440170Y-101790632D01*
X141449349Y-101810038D01*
X141456581Y-101830250D01*
X141461797Y-101851074D01*
X141464947Y-101872309D01*
X141466000Y-101893750D01*
X141466000Y-102406250D01*
X141464947Y-102427691D01*
X141461797Y-102448926D01*
X141456581Y-102469750D01*
X141449349Y-102489962D01*
X141440170Y-102509368D01*
X141429134Y-102527781D01*
X141416346Y-102545024D01*
X141401930Y-102560930D01*
X141386024Y-102575346D01*
X141368781Y-102588134D01*
X141350368Y-102599170D01*
X141330962Y-102608349D01*
X141310750Y-102615581D01*
X141289926Y-102620797D01*
X141268691Y-102623947D01*
X141247250Y-102625000D01*
X140809750Y-102625000D01*
X140788309Y-102623947D01*
X140767074Y-102620797D01*
X140746250Y-102615581D01*
X140726038Y-102608349D01*
X140706632Y-102599170D01*
X140688219Y-102588134D01*
X140670976Y-102575346D01*
X140655070Y-102560930D01*
X140640654Y-102545024D01*
X140627866Y-102527781D01*
X140616830Y-102509368D01*
X140607651Y-102489962D01*
X140600419Y-102469750D01*
X140595203Y-102448926D01*
X140592053Y-102427691D01*
X140591000Y-102406250D01*
X140591000Y-101893750D01*
X140592053Y-101872309D01*
X140595203Y-101851074D01*
X140600419Y-101830250D01*
X140607651Y-101810038D01*
X140616830Y-101790632D01*
X140627866Y-101772219D01*
X140640654Y-101754976D01*
X140655070Y-101739070D01*
X140670976Y-101724654D01*
X140688219Y-101711866D01*
X140706632Y-101700830D01*
X140726038Y-101691651D01*
X140746250Y-101684419D01*
X140767074Y-101679203D01*
X140788309Y-101676053D01*
X140809750Y-101675000D01*
X141247250Y-101675000D01*
X141268691Y-101676053D01*
X141268691Y-101676053D01*
G37*
D11*
X141028500Y-102150000D03*
D15*
X144856000Y-113100000D03*
X142856000Y-114050000D03*
X142856000Y-112150000D03*
D10*
G36*
X150027691Y-122253053D02*
G01*
X150048926Y-122256203D01*
X150069750Y-122261419D01*
X150089962Y-122268651D01*
X150109368Y-122277830D01*
X150127781Y-122288866D01*
X150145024Y-122301654D01*
X150160930Y-122316070D01*
X150175346Y-122331976D01*
X150188134Y-122349219D01*
X150199170Y-122367632D01*
X150208349Y-122387038D01*
X150215581Y-122407250D01*
X150220797Y-122428074D01*
X150223947Y-122449309D01*
X150225000Y-122470750D01*
X150225000Y-122908250D01*
X150223947Y-122929691D01*
X150220797Y-122950926D01*
X150215581Y-122971750D01*
X150208349Y-122991962D01*
X150199170Y-123011368D01*
X150188134Y-123029781D01*
X150175346Y-123047024D01*
X150160930Y-123062930D01*
X150145024Y-123077346D01*
X150127781Y-123090134D01*
X150109368Y-123101170D01*
X150089962Y-123110349D01*
X150069750Y-123117581D01*
X150048926Y-123122797D01*
X150027691Y-123125947D01*
X150006250Y-123127000D01*
X149493750Y-123127000D01*
X149472309Y-123125947D01*
X149451074Y-123122797D01*
X149430250Y-123117581D01*
X149410038Y-123110349D01*
X149390632Y-123101170D01*
X149372219Y-123090134D01*
X149354976Y-123077346D01*
X149339070Y-123062930D01*
X149324654Y-123047024D01*
X149311866Y-123029781D01*
X149300830Y-123011368D01*
X149291651Y-122991962D01*
X149284419Y-122971750D01*
X149279203Y-122950926D01*
X149276053Y-122929691D01*
X149275000Y-122908250D01*
X149275000Y-122470750D01*
X149276053Y-122449309D01*
X149279203Y-122428074D01*
X149284419Y-122407250D01*
X149291651Y-122387038D01*
X149300830Y-122367632D01*
X149311866Y-122349219D01*
X149324654Y-122331976D01*
X149339070Y-122316070D01*
X149354976Y-122301654D01*
X149372219Y-122288866D01*
X149390632Y-122277830D01*
X149410038Y-122268651D01*
X149430250Y-122261419D01*
X149451074Y-122256203D01*
X149472309Y-122253053D01*
X149493750Y-122252000D01*
X150006250Y-122252000D01*
X150027691Y-122253053D01*
X150027691Y-122253053D01*
G37*
D11*
X149750000Y-122689500D03*
D10*
G36*
X150027691Y-120678053D02*
G01*
X150048926Y-120681203D01*
X150069750Y-120686419D01*
X150089962Y-120693651D01*
X150109368Y-120702830D01*
X150127781Y-120713866D01*
X150145024Y-120726654D01*
X150160930Y-120741070D01*
X150175346Y-120756976D01*
X150188134Y-120774219D01*
X150199170Y-120792632D01*
X150208349Y-120812038D01*
X150215581Y-120832250D01*
X150220797Y-120853074D01*
X150223947Y-120874309D01*
X150225000Y-120895750D01*
X150225000Y-121333250D01*
X150223947Y-121354691D01*
X150220797Y-121375926D01*
X150215581Y-121396750D01*
X150208349Y-121416962D01*
X150199170Y-121436368D01*
X150188134Y-121454781D01*
X150175346Y-121472024D01*
X150160930Y-121487930D01*
X150145024Y-121502346D01*
X150127781Y-121515134D01*
X150109368Y-121526170D01*
X150089962Y-121535349D01*
X150069750Y-121542581D01*
X150048926Y-121547797D01*
X150027691Y-121550947D01*
X150006250Y-121552000D01*
X149493750Y-121552000D01*
X149472309Y-121550947D01*
X149451074Y-121547797D01*
X149430250Y-121542581D01*
X149410038Y-121535349D01*
X149390632Y-121526170D01*
X149372219Y-121515134D01*
X149354976Y-121502346D01*
X149339070Y-121487930D01*
X149324654Y-121472024D01*
X149311866Y-121454781D01*
X149300830Y-121436368D01*
X149291651Y-121416962D01*
X149284419Y-121396750D01*
X149279203Y-121375926D01*
X149276053Y-121354691D01*
X149275000Y-121333250D01*
X149275000Y-120895750D01*
X149276053Y-120874309D01*
X149279203Y-120853074D01*
X149284419Y-120832250D01*
X149291651Y-120812038D01*
X149300830Y-120792632D01*
X149311866Y-120774219D01*
X149324654Y-120756976D01*
X149339070Y-120741070D01*
X149354976Y-120726654D01*
X149372219Y-120713866D01*
X149390632Y-120702830D01*
X149410038Y-120693651D01*
X149430250Y-120686419D01*
X149451074Y-120681203D01*
X149472309Y-120678053D01*
X149493750Y-120677000D01*
X150006250Y-120677000D01*
X150027691Y-120678053D01*
X150027691Y-120678053D01*
G37*
D11*
X149750000Y-121114500D03*
D10*
G36*
X142378691Y-120412053D02*
G01*
X142399926Y-120415203D01*
X142420750Y-120420419D01*
X142440962Y-120427651D01*
X142460368Y-120436830D01*
X142478781Y-120447866D01*
X142496024Y-120460654D01*
X142511930Y-120475070D01*
X142526346Y-120490976D01*
X142539134Y-120508219D01*
X142550170Y-120526632D01*
X142559349Y-120546038D01*
X142566581Y-120566250D01*
X142571797Y-120587074D01*
X142574947Y-120608309D01*
X142576000Y-120629750D01*
X142576000Y-121142250D01*
X142574947Y-121163691D01*
X142571797Y-121184926D01*
X142566581Y-121205750D01*
X142559349Y-121225962D01*
X142550170Y-121245368D01*
X142539134Y-121263781D01*
X142526346Y-121281024D01*
X142511930Y-121296930D01*
X142496024Y-121311346D01*
X142478781Y-121324134D01*
X142460368Y-121335170D01*
X142440962Y-121344349D01*
X142420750Y-121351581D01*
X142399926Y-121356797D01*
X142378691Y-121359947D01*
X142357250Y-121361000D01*
X141919750Y-121361000D01*
X141898309Y-121359947D01*
X141877074Y-121356797D01*
X141856250Y-121351581D01*
X141836038Y-121344349D01*
X141816632Y-121335170D01*
X141798219Y-121324134D01*
X141780976Y-121311346D01*
X141765070Y-121296930D01*
X141750654Y-121281024D01*
X141737866Y-121263781D01*
X141726830Y-121245368D01*
X141717651Y-121225962D01*
X141710419Y-121205750D01*
X141705203Y-121184926D01*
X141702053Y-121163691D01*
X141701000Y-121142250D01*
X141701000Y-120629750D01*
X141702053Y-120608309D01*
X141705203Y-120587074D01*
X141710419Y-120566250D01*
X141717651Y-120546038D01*
X141726830Y-120526632D01*
X141737866Y-120508219D01*
X141750654Y-120490976D01*
X141765070Y-120475070D01*
X141780976Y-120460654D01*
X141798219Y-120447866D01*
X141816632Y-120436830D01*
X141836038Y-120427651D01*
X141856250Y-120420419D01*
X141877074Y-120415203D01*
X141898309Y-120412053D01*
X141919750Y-120411000D01*
X142357250Y-120411000D01*
X142378691Y-120412053D01*
X142378691Y-120412053D01*
G37*
D11*
X142138500Y-120886000D03*
D10*
G36*
X143953691Y-120412053D02*
G01*
X143974926Y-120415203D01*
X143995750Y-120420419D01*
X144015962Y-120427651D01*
X144035368Y-120436830D01*
X144053781Y-120447866D01*
X144071024Y-120460654D01*
X144086930Y-120475070D01*
X144101346Y-120490976D01*
X144114134Y-120508219D01*
X144125170Y-120526632D01*
X144134349Y-120546038D01*
X144141581Y-120566250D01*
X144146797Y-120587074D01*
X144149947Y-120608309D01*
X144151000Y-120629750D01*
X144151000Y-121142250D01*
X144149947Y-121163691D01*
X144146797Y-121184926D01*
X144141581Y-121205750D01*
X144134349Y-121225962D01*
X144125170Y-121245368D01*
X144114134Y-121263781D01*
X144101346Y-121281024D01*
X144086930Y-121296930D01*
X144071024Y-121311346D01*
X144053781Y-121324134D01*
X144035368Y-121335170D01*
X144015962Y-121344349D01*
X143995750Y-121351581D01*
X143974926Y-121356797D01*
X143953691Y-121359947D01*
X143932250Y-121361000D01*
X143494750Y-121361000D01*
X143473309Y-121359947D01*
X143452074Y-121356797D01*
X143431250Y-121351581D01*
X143411038Y-121344349D01*
X143391632Y-121335170D01*
X143373219Y-121324134D01*
X143355976Y-121311346D01*
X143340070Y-121296930D01*
X143325654Y-121281024D01*
X143312866Y-121263781D01*
X143301830Y-121245368D01*
X143292651Y-121225962D01*
X143285419Y-121205750D01*
X143280203Y-121184926D01*
X143277053Y-121163691D01*
X143276000Y-121142250D01*
X143276000Y-120629750D01*
X143277053Y-120608309D01*
X143280203Y-120587074D01*
X143285419Y-120566250D01*
X143292651Y-120546038D01*
X143301830Y-120526632D01*
X143312866Y-120508219D01*
X143325654Y-120490976D01*
X143340070Y-120475070D01*
X143355976Y-120460654D01*
X143373219Y-120447866D01*
X143391632Y-120436830D01*
X143411038Y-120427651D01*
X143431250Y-120420419D01*
X143452074Y-120415203D01*
X143473309Y-120412053D01*
X143494750Y-120411000D01*
X143932250Y-120411000D01*
X143953691Y-120412053D01*
X143953691Y-120412053D01*
G37*
D11*
X143713500Y-120886000D03*
D10*
G36*
X138595691Y-118286053D02*
G01*
X138616926Y-118289203D01*
X138637750Y-118294419D01*
X138657962Y-118301651D01*
X138677368Y-118310830D01*
X138695781Y-118321866D01*
X138713024Y-118334654D01*
X138728930Y-118349070D01*
X138743346Y-118364976D01*
X138756134Y-118382219D01*
X138767170Y-118400632D01*
X138776349Y-118420038D01*
X138783581Y-118440250D01*
X138788797Y-118461074D01*
X138791947Y-118482309D01*
X138793000Y-118503750D01*
X138793000Y-119016250D01*
X138791947Y-119037691D01*
X138788797Y-119058926D01*
X138783581Y-119079750D01*
X138776349Y-119099962D01*
X138767170Y-119119368D01*
X138756134Y-119137781D01*
X138743346Y-119155024D01*
X138728930Y-119170930D01*
X138713024Y-119185346D01*
X138695781Y-119198134D01*
X138677368Y-119209170D01*
X138657962Y-119218349D01*
X138637750Y-119225581D01*
X138616926Y-119230797D01*
X138595691Y-119233947D01*
X138574250Y-119235000D01*
X138136750Y-119235000D01*
X138115309Y-119233947D01*
X138094074Y-119230797D01*
X138073250Y-119225581D01*
X138053038Y-119218349D01*
X138033632Y-119209170D01*
X138015219Y-119198134D01*
X137997976Y-119185346D01*
X137982070Y-119170930D01*
X137967654Y-119155024D01*
X137954866Y-119137781D01*
X137943830Y-119119368D01*
X137934651Y-119099962D01*
X137927419Y-119079750D01*
X137922203Y-119058926D01*
X137919053Y-119037691D01*
X137918000Y-119016250D01*
X137918000Y-118503750D01*
X137919053Y-118482309D01*
X137922203Y-118461074D01*
X137927419Y-118440250D01*
X137934651Y-118420038D01*
X137943830Y-118400632D01*
X137954866Y-118382219D01*
X137967654Y-118364976D01*
X137982070Y-118349070D01*
X137997976Y-118334654D01*
X138015219Y-118321866D01*
X138033632Y-118310830D01*
X138053038Y-118301651D01*
X138073250Y-118294419D01*
X138094074Y-118289203D01*
X138115309Y-118286053D01*
X138136750Y-118285000D01*
X138574250Y-118285000D01*
X138595691Y-118286053D01*
X138595691Y-118286053D01*
G37*
D11*
X138355500Y-118760000D03*
D10*
G36*
X137020691Y-118286053D02*
G01*
X137041926Y-118289203D01*
X137062750Y-118294419D01*
X137082962Y-118301651D01*
X137102368Y-118310830D01*
X137120781Y-118321866D01*
X137138024Y-118334654D01*
X137153930Y-118349070D01*
X137168346Y-118364976D01*
X137181134Y-118382219D01*
X137192170Y-118400632D01*
X137201349Y-118420038D01*
X137208581Y-118440250D01*
X137213797Y-118461074D01*
X137216947Y-118482309D01*
X137218000Y-118503750D01*
X137218000Y-119016250D01*
X137216947Y-119037691D01*
X137213797Y-119058926D01*
X137208581Y-119079750D01*
X137201349Y-119099962D01*
X137192170Y-119119368D01*
X137181134Y-119137781D01*
X137168346Y-119155024D01*
X137153930Y-119170930D01*
X137138024Y-119185346D01*
X137120781Y-119198134D01*
X137102368Y-119209170D01*
X137082962Y-119218349D01*
X137062750Y-119225581D01*
X137041926Y-119230797D01*
X137020691Y-119233947D01*
X136999250Y-119235000D01*
X136561750Y-119235000D01*
X136540309Y-119233947D01*
X136519074Y-119230797D01*
X136498250Y-119225581D01*
X136478038Y-119218349D01*
X136458632Y-119209170D01*
X136440219Y-119198134D01*
X136422976Y-119185346D01*
X136407070Y-119170930D01*
X136392654Y-119155024D01*
X136379866Y-119137781D01*
X136368830Y-119119368D01*
X136359651Y-119099962D01*
X136352419Y-119079750D01*
X136347203Y-119058926D01*
X136344053Y-119037691D01*
X136343000Y-119016250D01*
X136343000Y-118503750D01*
X136344053Y-118482309D01*
X136347203Y-118461074D01*
X136352419Y-118440250D01*
X136359651Y-118420038D01*
X136368830Y-118400632D01*
X136379866Y-118382219D01*
X136392654Y-118364976D01*
X136407070Y-118349070D01*
X136422976Y-118334654D01*
X136440219Y-118321866D01*
X136458632Y-118310830D01*
X136478038Y-118301651D01*
X136498250Y-118294419D01*
X136519074Y-118289203D01*
X136540309Y-118286053D01*
X136561750Y-118285000D01*
X136999250Y-118285000D01*
X137020691Y-118286053D01*
X137020691Y-118286053D01*
G37*
D11*
X136780500Y-118760000D03*
D10*
G36*
X137330142Y-103637174D02*
G01*
X137353803Y-103640684D01*
X137377007Y-103646496D01*
X137399529Y-103654554D01*
X137421153Y-103664782D01*
X137441670Y-103677079D01*
X137460883Y-103691329D01*
X137478607Y-103707393D01*
X137494671Y-103725117D01*
X137508921Y-103744330D01*
X137521218Y-103764847D01*
X137531446Y-103786471D01*
X137539504Y-103808993D01*
X137545316Y-103832197D01*
X137548826Y-103855858D01*
X137550000Y-103879750D01*
X137550000Y-104367250D01*
X137548826Y-104391142D01*
X137545316Y-104414803D01*
X137539504Y-104438007D01*
X137531446Y-104460529D01*
X137521218Y-104482153D01*
X137508921Y-104502670D01*
X137494671Y-104521883D01*
X137478607Y-104539607D01*
X137460883Y-104555671D01*
X137441670Y-104569921D01*
X137421153Y-104582218D01*
X137399529Y-104592446D01*
X137377007Y-104600504D01*
X137353803Y-104606316D01*
X137330142Y-104609826D01*
X137306250Y-104611000D01*
X136393750Y-104611000D01*
X136369858Y-104609826D01*
X136346197Y-104606316D01*
X136322993Y-104600504D01*
X136300471Y-104592446D01*
X136278847Y-104582218D01*
X136258330Y-104569921D01*
X136239117Y-104555671D01*
X136221393Y-104539607D01*
X136205329Y-104521883D01*
X136191079Y-104502670D01*
X136178782Y-104482153D01*
X136168554Y-104460529D01*
X136160496Y-104438007D01*
X136154684Y-104414803D01*
X136151174Y-104391142D01*
X136150000Y-104367250D01*
X136150000Y-103879750D01*
X136151174Y-103855858D01*
X136154684Y-103832197D01*
X136160496Y-103808993D01*
X136168554Y-103786471D01*
X136178782Y-103764847D01*
X136191079Y-103744330D01*
X136205329Y-103725117D01*
X136221393Y-103707393D01*
X136239117Y-103691329D01*
X136258330Y-103677079D01*
X136278847Y-103664782D01*
X136300471Y-103654554D01*
X136322993Y-103646496D01*
X136346197Y-103640684D01*
X136369858Y-103637174D01*
X136393750Y-103636000D01*
X137306250Y-103636000D01*
X137330142Y-103637174D01*
X137330142Y-103637174D01*
G37*
D16*
X136850000Y-104123500D03*
D10*
G36*
X137330142Y-101762174D02*
G01*
X137353803Y-101765684D01*
X137377007Y-101771496D01*
X137399529Y-101779554D01*
X137421153Y-101789782D01*
X137441670Y-101802079D01*
X137460883Y-101816329D01*
X137478607Y-101832393D01*
X137494671Y-101850117D01*
X137508921Y-101869330D01*
X137521218Y-101889847D01*
X137531446Y-101911471D01*
X137539504Y-101933993D01*
X137545316Y-101957197D01*
X137548826Y-101980858D01*
X137550000Y-102004750D01*
X137550000Y-102492250D01*
X137548826Y-102516142D01*
X137545316Y-102539803D01*
X137539504Y-102563007D01*
X137531446Y-102585529D01*
X137521218Y-102607153D01*
X137508921Y-102627670D01*
X137494671Y-102646883D01*
X137478607Y-102664607D01*
X137460883Y-102680671D01*
X137441670Y-102694921D01*
X137421153Y-102707218D01*
X137399529Y-102717446D01*
X137377007Y-102725504D01*
X137353803Y-102731316D01*
X137330142Y-102734826D01*
X137306250Y-102736000D01*
X136393750Y-102736000D01*
X136369858Y-102734826D01*
X136346197Y-102731316D01*
X136322993Y-102725504D01*
X136300471Y-102717446D01*
X136278847Y-102707218D01*
X136258330Y-102694921D01*
X136239117Y-102680671D01*
X136221393Y-102664607D01*
X136205329Y-102646883D01*
X136191079Y-102627670D01*
X136178782Y-102607153D01*
X136168554Y-102585529D01*
X136160496Y-102563007D01*
X136154684Y-102539803D01*
X136151174Y-102516142D01*
X136150000Y-102492250D01*
X136150000Y-102004750D01*
X136151174Y-101980858D01*
X136154684Y-101957197D01*
X136160496Y-101933993D01*
X136168554Y-101911471D01*
X136178782Y-101889847D01*
X136191079Y-101869330D01*
X136205329Y-101850117D01*
X136221393Y-101832393D01*
X136239117Y-101816329D01*
X136258330Y-101802079D01*
X136278847Y-101789782D01*
X136300471Y-101779554D01*
X136322993Y-101771496D01*
X136346197Y-101765684D01*
X136369858Y-101762174D01*
X136393750Y-101761000D01*
X137306250Y-101761000D01*
X137330142Y-101762174D01*
X137330142Y-101762174D01*
G37*
D16*
X136850000Y-102248500D03*
D10*
G36*
X132054691Y-105946053D02*
G01*
X132075926Y-105949203D01*
X132096750Y-105954419D01*
X132116962Y-105961651D01*
X132136368Y-105970830D01*
X132154781Y-105981866D01*
X132172024Y-105994654D01*
X132187930Y-106009070D01*
X132202346Y-106024976D01*
X132215134Y-106042219D01*
X132226170Y-106060632D01*
X132235349Y-106080038D01*
X132242581Y-106100250D01*
X132247797Y-106121074D01*
X132250947Y-106142309D01*
X132252000Y-106163750D01*
X132252000Y-106676250D01*
X132250947Y-106697691D01*
X132247797Y-106718926D01*
X132242581Y-106739750D01*
X132235349Y-106759962D01*
X132226170Y-106779368D01*
X132215134Y-106797781D01*
X132202346Y-106815024D01*
X132187930Y-106830930D01*
X132172024Y-106845346D01*
X132154781Y-106858134D01*
X132136368Y-106869170D01*
X132116962Y-106878349D01*
X132096750Y-106885581D01*
X132075926Y-106890797D01*
X132054691Y-106893947D01*
X132033250Y-106895000D01*
X131595750Y-106895000D01*
X131574309Y-106893947D01*
X131553074Y-106890797D01*
X131532250Y-106885581D01*
X131512038Y-106878349D01*
X131492632Y-106869170D01*
X131474219Y-106858134D01*
X131456976Y-106845346D01*
X131441070Y-106830930D01*
X131426654Y-106815024D01*
X131413866Y-106797781D01*
X131402830Y-106779368D01*
X131393651Y-106759962D01*
X131386419Y-106739750D01*
X131381203Y-106718926D01*
X131378053Y-106697691D01*
X131377000Y-106676250D01*
X131377000Y-106163750D01*
X131378053Y-106142309D01*
X131381203Y-106121074D01*
X131386419Y-106100250D01*
X131393651Y-106080038D01*
X131402830Y-106060632D01*
X131413866Y-106042219D01*
X131426654Y-106024976D01*
X131441070Y-106009070D01*
X131456976Y-105994654D01*
X131474219Y-105981866D01*
X131492632Y-105970830D01*
X131512038Y-105961651D01*
X131532250Y-105954419D01*
X131553074Y-105949203D01*
X131574309Y-105946053D01*
X131595750Y-105945000D01*
X132033250Y-105945000D01*
X132054691Y-105946053D01*
X132054691Y-105946053D01*
G37*
D11*
X131814500Y-106420000D03*
D10*
G36*
X133629691Y-105946053D02*
G01*
X133650926Y-105949203D01*
X133671750Y-105954419D01*
X133691962Y-105961651D01*
X133711368Y-105970830D01*
X133729781Y-105981866D01*
X133747024Y-105994654D01*
X133762930Y-106009070D01*
X133777346Y-106024976D01*
X133790134Y-106042219D01*
X133801170Y-106060632D01*
X133810349Y-106080038D01*
X133817581Y-106100250D01*
X133822797Y-106121074D01*
X133825947Y-106142309D01*
X133827000Y-106163750D01*
X133827000Y-106676250D01*
X133825947Y-106697691D01*
X133822797Y-106718926D01*
X133817581Y-106739750D01*
X133810349Y-106759962D01*
X133801170Y-106779368D01*
X133790134Y-106797781D01*
X133777346Y-106815024D01*
X133762930Y-106830930D01*
X133747024Y-106845346D01*
X133729781Y-106858134D01*
X133711368Y-106869170D01*
X133691962Y-106878349D01*
X133671750Y-106885581D01*
X133650926Y-106890797D01*
X133629691Y-106893947D01*
X133608250Y-106895000D01*
X133170750Y-106895000D01*
X133149309Y-106893947D01*
X133128074Y-106890797D01*
X133107250Y-106885581D01*
X133087038Y-106878349D01*
X133067632Y-106869170D01*
X133049219Y-106858134D01*
X133031976Y-106845346D01*
X133016070Y-106830930D01*
X133001654Y-106815024D01*
X132988866Y-106797781D01*
X132977830Y-106779368D01*
X132968651Y-106759962D01*
X132961419Y-106739750D01*
X132956203Y-106718926D01*
X132953053Y-106697691D01*
X132952000Y-106676250D01*
X132952000Y-106163750D01*
X132953053Y-106142309D01*
X132956203Y-106121074D01*
X132961419Y-106100250D01*
X132968651Y-106080038D01*
X132977830Y-106060632D01*
X132988866Y-106042219D01*
X133001654Y-106024976D01*
X133016070Y-106009070D01*
X133031976Y-105994654D01*
X133049219Y-105981866D01*
X133067632Y-105970830D01*
X133087038Y-105961651D01*
X133107250Y-105954419D01*
X133128074Y-105949203D01*
X133149309Y-105946053D01*
X133170750Y-105945000D01*
X133608250Y-105945000D01*
X133629691Y-105946053D01*
X133629691Y-105946053D01*
G37*
D11*
X133389500Y-106420000D03*
D10*
G36*
X136410691Y-105926053D02*
G01*
X136431926Y-105929203D01*
X136452750Y-105934419D01*
X136472962Y-105941651D01*
X136492368Y-105950830D01*
X136510781Y-105961866D01*
X136528024Y-105974654D01*
X136543930Y-105989070D01*
X136558346Y-106004976D01*
X136571134Y-106022219D01*
X136582170Y-106040632D01*
X136591349Y-106060038D01*
X136598581Y-106080250D01*
X136603797Y-106101074D01*
X136606947Y-106122309D01*
X136608000Y-106143750D01*
X136608000Y-106656250D01*
X136606947Y-106677691D01*
X136603797Y-106698926D01*
X136598581Y-106719750D01*
X136591349Y-106739962D01*
X136582170Y-106759368D01*
X136571134Y-106777781D01*
X136558346Y-106795024D01*
X136543930Y-106810930D01*
X136528024Y-106825346D01*
X136510781Y-106838134D01*
X136492368Y-106849170D01*
X136472962Y-106858349D01*
X136452750Y-106865581D01*
X136431926Y-106870797D01*
X136410691Y-106873947D01*
X136389250Y-106875000D01*
X135951750Y-106875000D01*
X135930309Y-106873947D01*
X135909074Y-106870797D01*
X135888250Y-106865581D01*
X135868038Y-106858349D01*
X135848632Y-106849170D01*
X135830219Y-106838134D01*
X135812976Y-106825346D01*
X135797070Y-106810930D01*
X135782654Y-106795024D01*
X135769866Y-106777781D01*
X135758830Y-106759368D01*
X135749651Y-106739962D01*
X135742419Y-106719750D01*
X135737203Y-106698926D01*
X135734053Y-106677691D01*
X135733000Y-106656250D01*
X135733000Y-106143750D01*
X135734053Y-106122309D01*
X135737203Y-106101074D01*
X135742419Y-106080250D01*
X135749651Y-106060038D01*
X135758830Y-106040632D01*
X135769866Y-106022219D01*
X135782654Y-106004976D01*
X135797070Y-105989070D01*
X135812976Y-105974654D01*
X135830219Y-105961866D01*
X135848632Y-105950830D01*
X135868038Y-105941651D01*
X135888250Y-105934419D01*
X135909074Y-105929203D01*
X135930309Y-105926053D01*
X135951750Y-105925000D01*
X136389250Y-105925000D01*
X136410691Y-105926053D01*
X136410691Y-105926053D01*
G37*
D11*
X136170500Y-106400000D03*
D10*
G36*
X137985691Y-105926053D02*
G01*
X138006926Y-105929203D01*
X138027750Y-105934419D01*
X138047962Y-105941651D01*
X138067368Y-105950830D01*
X138085781Y-105961866D01*
X138103024Y-105974654D01*
X138118930Y-105989070D01*
X138133346Y-106004976D01*
X138146134Y-106022219D01*
X138157170Y-106040632D01*
X138166349Y-106060038D01*
X138173581Y-106080250D01*
X138178797Y-106101074D01*
X138181947Y-106122309D01*
X138183000Y-106143750D01*
X138183000Y-106656250D01*
X138181947Y-106677691D01*
X138178797Y-106698926D01*
X138173581Y-106719750D01*
X138166349Y-106739962D01*
X138157170Y-106759368D01*
X138146134Y-106777781D01*
X138133346Y-106795024D01*
X138118930Y-106810930D01*
X138103024Y-106825346D01*
X138085781Y-106838134D01*
X138067368Y-106849170D01*
X138047962Y-106858349D01*
X138027750Y-106865581D01*
X138006926Y-106870797D01*
X137985691Y-106873947D01*
X137964250Y-106875000D01*
X137526750Y-106875000D01*
X137505309Y-106873947D01*
X137484074Y-106870797D01*
X137463250Y-106865581D01*
X137443038Y-106858349D01*
X137423632Y-106849170D01*
X137405219Y-106838134D01*
X137387976Y-106825346D01*
X137372070Y-106810930D01*
X137357654Y-106795024D01*
X137344866Y-106777781D01*
X137333830Y-106759368D01*
X137324651Y-106739962D01*
X137317419Y-106719750D01*
X137312203Y-106698926D01*
X137309053Y-106677691D01*
X137308000Y-106656250D01*
X137308000Y-106143750D01*
X137309053Y-106122309D01*
X137312203Y-106101074D01*
X137317419Y-106080250D01*
X137324651Y-106060038D01*
X137333830Y-106040632D01*
X137344866Y-106022219D01*
X137357654Y-106004976D01*
X137372070Y-105989070D01*
X137387976Y-105974654D01*
X137405219Y-105961866D01*
X137423632Y-105950830D01*
X137443038Y-105941651D01*
X137463250Y-105934419D01*
X137484074Y-105929203D01*
X137505309Y-105926053D01*
X137526750Y-105925000D01*
X137964250Y-105925000D01*
X137985691Y-105926053D01*
X137985691Y-105926053D01*
G37*
D11*
X137745500Y-106400000D03*
D10*
G36*
X129710142Y-103637174D02*
G01*
X129733803Y-103640684D01*
X129757007Y-103646496D01*
X129779529Y-103654554D01*
X129801153Y-103664782D01*
X129821670Y-103677079D01*
X129840883Y-103691329D01*
X129858607Y-103707393D01*
X129874671Y-103725117D01*
X129888921Y-103744330D01*
X129901218Y-103764847D01*
X129911446Y-103786471D01*
X129919504Y-103808993D01*
X129925316Y-103832197D01*
X129928826Y-103855858D01*
X129930000Y-103879750D01*
X129930000Y-104367250D01*
X129928826Y-104391142D01*
X129925316Y-104414803D01*
X129919504Y-104438007D01*
X129911446Y-104460529D01*
X129901218Y-104482153D01*
X129888921Y-104502670D01*
X129874671Y-104521883D01*
X129858607Y-104539607D01*
X129840883Y-104555671D01*
X129821670Y-104569921D01*
X129801153Y-104582218D01*
X129779529Y-104592446D01*
X129757007Y-104600504D01*
X129733803Y-104606316D01*
X129710142Y-104609826D01*
X129686250Y-104611000D01*
X128773750Y-104611000D01*
X128749858Y-104609826D01*
X128726197Y-104606316D01*
X128702993Y-104600504D01*
X128680471Y-104592446D01*
X128658847Y-104582218D01*
X128638330Y-104569921D01*
X128619117Y-104555671D01*
X128601393Y-104539607D01*
X128585329Y-104521883D01*
X128571079Y-104502670D01*
X128558782Y-104482153D01*
X128548554Y-104460529D01*
X128540496Y-104438007D01*
X128534684Y-104414803D01*
X128531174Y-104391142D01*
X128530000Y-104367250D01*
X128530000Y-103879750D01*
X128531174Y-103855858D01*
X128534684Y-103832197D01*
X128540496Y-103808993D01*
X128548554Y-103786471D01*
X128558782Y-103764847D01*
X128571079Y-103744330D01*
X128585329Y-103725117D01*
X128601393Y-103707393D01*
X128619117Y-103691329D01*
X128638330Y-103677079D01*
X128658847Y-103664782D01*
X128680471Y-103654554D01*
X128702993Y-103646496D01*
X128726197Y-103640684D01*
X128749858Y-103637174D01*
X128773750Y-103636000D01*
X129686250Y-103636000D01*
X129710142Y-103637174D01*
X129710142Y-103637174D01*
G37*
D16*
X129230000Y-104123500D03*
D10*
G36*
X129710142Y-101762174D02*
G01*
X129733803Y-101765684D01*
X129757007Y-101771496D01*
X129779529Y-101779554D01*
X129801153Y-101789782D01*
X129821670Y-101802079D01*
X129840883Y-101816329D01*
X129858607Y-101832393D01*
X129874671Y-101850117D01*
X129888921Y-101869330D01*
X129901218Y-101889847D01*
X129911446Y-101911471D01*
X129919504Y-101933993D01*
X129925316Y-101957197D01*
X129928826Y-101980858D01*
X129930000Y-102004750D01*
X129930000Y-102492250D01*
X129928826Y-102516142D01*
X129925316Y-102539803D01*
X129919504Y-102563007D01*
X129911446Y-102585529D01*
X129901218Y-102607153D01*
X129888921Y-102627670D01*
X129874671Y-102646883D01*
X129858607Y-102664607D01*
X129840883Y-102680671D01*
X129821670Y-102694921D01*
X129801153Y-102707218D01*
X129779529Y-102717446D01*
X129757007Y-102725504D01*
X129733803Y-102731316D01*
X129710142Y-102734826D01*
X129686250Y-102736000D01*
X128773750Y-102736000D01*
X128749858Y-102734826D01*
X128726197Y-102731316D01*
X128702993Y-102725504D01*
X128680471Y-102717446D01*
X128658847Y-102707218D01*
X128638330Y-102694921D01*
X128619117Y-102680671D01*
X128601393Y-102664607D01*
X128585329Y-102646883D01*
X128571079Y-102627670D01*
X128558782Y-102607153D01*
X128548554Y-102585529D01*
X128540496Y-102563007D01*
X128534684Y-102539803D01*
X128531174Y-102516142D01*
X128530000Y-102492250D01*
X128530000Y-102004750D01*
X128531174Y-101980858D01*
X128534684Y-101957197D01*
X128540496Y-101933993D01*
X128548554Y-101911471D01*
X128558782Y-101889847D01*
X128571079Y-101869330D01*
X128585329Y-101850117D01*
X128601393Y-101832393D01*
X128619117Y-101816329D01*
X128638330Y-101802079D01*
X128658847Y-101789782D01*
X128680471Y-101779554D01*
X128702993Y-101771496D01*
X128726197Y-101765684D01*
X128749858Y-101762174D01*
X128773750Y-101761000D01*
X129686250Y-101761000D01*
X129710142Y-101762174D01*
X129710142Y-101762174D01*
G37*
D16*
X129230000Y-102248500D03*
D10*
G36*
X140857691Y-113429053D02*
G01*
X140878926Y-113432203D01*
X140899750Y-113437419D01*
X140919962Y-113444651D01*
X140939368Y-113453830D01*
X140957781Y-113464866D01*
X140975024Y-113477654D01*
X140990930Y-113492070D01*
X141005346Y-113507976D01*
X141018134Y-113525219D01*
X141029170Y-113543632D01*
X141038349Y-113563038D01*
X141045581Y-113583250D01*
X141050797Y-113604074D01*
X141053947Y-113625309D01*
X141055000Y-113646750D01*
X141055000Y-114084250D01*
X141053947Y-114105691D01*
X141050797Y-114126926D01*
X141045581Y-114147750D01*
X141038349Y-114167962D01*
X141029170Y-114187368D01*
X141018134Y-114205781D01*
X141005346Y-114223024D01*
X140990930Y-114238930D01*
X140975024Y-114253346D01*
X140957781Y-114266134D01*
X140939368Y-114277170D01*
X140919962Y-114286349D01*
X140899750Y-114293581D01*
X140878926Y-114298797D01*
X140857691Y-114301947D01*
X140836250Y-114303000D01*
X140323750Y-114303000D01*
X140302309Y-114301947D01*
X140281074Y-114298797D01*
X140260250Y-114293581D01*
X140240038Y-114286349D01*
X140220632Y-114277170D01*
X140202219Y-114266134D01*
X140184976Y-114253346D01*
X140169070Y-114238930D01*
X140154654Y-114223024D01*
X140141866Y-114205781D01*
X140130830Y-114187368D01*
X140121651Y-114167962D01*
X140114419Y-114147750D01*
X140109203Y-114126926D01*
X140106053Y-114105691D01*
X140105000Y-114084250D01*
X140105000Y-113646750D01*
X140106053Y-113625309D01*
X140109203Y-113604074D01*
X140114419Y-113583250D01*
X140121651Y-113563038D01*
X140130830Y-113543632D01*
X140141866Y-113525219D01*
X140154654Y-113507976D01*
X140169070Y-113492070D01*
X140184976Y-113477654D01*
X140202219Y-113464866D01*
X140220632Y-113453830D01*
X140240038Y-113444651D01*
X140260250Y-113437419D01*
X140281074Y-113432203D01*
X140302309Y-113429053D01*
X140323750Y-113428000D01*
X140836250Y-113428000D01*
X140857691Y-113429053D01*
X140857691Y-113429053D01*
G37*
D11*
X140580000Y-113865500D03*
D10*
G36*
X140857691Y-111854053D02*
G01*
X140878926Y-111857203D01*
X140899750Y-111862419D01*
X140919962Y-111869651D01*
X140939368Y-111878830D01*
X140957781Y-111889866D01*
X140975024Y-111902654D01*
X140990930Y-111917070D01*
X141005346Y-111932976D01*
X141018134Y-111950219D01*
X141029170Y-111968632D01*
X141038349Y-111988038D01*
X141045581Y-112008250D01*
X141050797Y-112029074D01*
X141053947Y-112050309D01*
X141055000Y-112071750D01*
X141055000Y-112509250D01*
X141053947Y-112530691D01*
X141050797Y-112551926D01*
X141045581Y-112572750D01*
X141038349Y-112592962D01*
X141029170Y-112612368D01*
X141018134Y-112630781D01*
X141005346Y-112648024D01*
X140990930Y-112663930D01*
X140975024Y-112678346D01*
X140957781Y-112691134D01*
X140939368Y-112702170D01*
X140919962Y-112711349D01*
X140899750Y-112718581D01*
X140878926Y-112723797D01*
X140857691Y-112726947D01*
X140836250Y-112728000D01*
X140323750Y-112728000D01*
X140302309Y-112726947D01*
X140281074Y-112723797D01*
X140260250Y-112718581D01*
X140240038Y-112711349D01*
X140220632Y-112702170D01*
X140202219Y-112691134D01*
X140184976Y-112678346D01*
X140169070Y-112663930D01*
X140154654Y-112648024D01*
X140141866Y-112630781D01*
X140130830Y-112612368D01*
X140121651Y-112592962D01*
X140114419Y-112572750D01*
X140109203Y-112551926D01*
X140106053Y-112530691D01*
X140105000Y-112509250D01*
X140105000Y-112071750D01*
X140106053Y-112050309D01*
X140109203Y-112029074D01*
X140114419Y-112008250D01*
X140121651Y-111988038D01*
X140130830Y-111968632D01*
X140141866Y-111950219D01*
X140154654Y-111932976D01*
X140169070Y-111917070D01*
X140184976Y-111902654D01*
X140202219Y-111889866D01*
X140220632Y-111878830D01*
X140240038Y-111869651D01*
X140260250Y-111862419D01*
X140281074Y-111857203D01*
X140302309Y-111854053D01*
X140323750Y-111853000D01*
X140836250Y-111853000D01*
X140857691Y-111854053D01*
X140857691Y-111854053D01*
G37*
D11*
X140580000Y-112290500D03*
M02*
