G04 #@! TF.GenerationSoftware,KiCad,Pcbnew,(5.1.2)-1*
G04 #@! TF.CreationDate,2022-10-08T12:37:54+09:00*
G04 #@! TF.ProjectId,thamp,7468616d-702e-46b6-9963-61645f706362,v1.2*
G04 #@! TF.SameCoordinates,Original*
G04 #@! TF.FileFunction,Soldermask,Top*
G04 #@! TF.FilePolarity,Negative*
%FSLAX46Y46*%
G04 Gerber Fmt 4.6, Leading zero omitted, Abs format (unit mm)*
G04 Created by KiCad (PCBNEW (5.1.2)-1) date 2022-10-08 12:37:54*
%MOMM*%
%LPD*%
G04 APERTURE LIST*
%ADD10C,0.100000*%
G04 APERTURE END LIST*
D10*
G36*
X132140443Y-122565519D02*
G01*
X132206627Y-122572037D01*
X132376466Y-122623557D01*
X132532991Y-122707222D01*
X132568729Y-122736552D01*
X132670186Y-122819814D01*
X132753448Y-122921271D01*
X132782778Y-122957009D01*
X132866443Y-123113534D01*
X132917963Y-123283373D01*
X132935359Y-123460000D01*
X132917963Y-123636627D01*
X132866443Y-123806466D01*
X132782778Y-123962991D01*
X132753448Y-123998729D01*
X132670186Y-124100186D01*
X132568729Y-124183448D01*
X132532991Y-124212778D01*
X132376466Y-124296443D01*
X132206627Y-124347963D01*
X132140442Y-124354482D01*
X132074260Y-124361000D01*
X131985740Y-124361000D01*
X131919558Y-124354482D01*
X131853373Y-124347963D01*
X131683534Y-124296443D01*
X131527009Y-124212778D01*
X131491271Y-124183448D01*
X131389814Y-124100186D01*
X131306552Y-123998729D01*
X131277222Y-123962991D01*
X131193557Y-123806466D01*
X131142037Y-123636627D01*
X131124641Y-123460000D01*
X131142037Y-123283373D01*
X131193557Y-123113534D01*
X131277222Y-122957009D01*
X131306552Y-122921271D01*
X131389814Y-122819814D01*
X131491271Y-122736552D01*
X131527009Y-122707222D01*
X131683534Y-122623557D01*
X131853373Y-122572037D01*
X131919557Y-122565519D01*
X131985740Y-122559000D01*
X132074260Y-122559000D01*
X132140443Y-122565519D01*
X132140443Y-122565519D01*
G37*
G36*
X134680443Y-122565519D02*
G01*
X134746627Y-122572037D01*
X134916466Y-122623557D01*
X135072991Y-122707222D01*
X135108729Y-122736552D01*
X135210186Y-122819814D01*
X135293448Y-122921271D01*
X135322778Y-122957009D01*
X135406443Y-123113534D01*
X135457963Y-123283373D01*
X135475359Y-123460000D01*
X135457963Y-123636627D01*
X135406443Y-123806466D01*
X135322778Y-123962991D01*
X135293448Y-123998729D01*
X135210186Y-124100186D01*
X135108729Y-124183448D01*
X135072991Y-124212778D01*
X134916466Y-124296443D01*
X134746627Y-124347963D01*
X134680442Y-124354482D01*
X134614260Y-124361000D01*
X134525740Y-124361000D01*
X134459558Y-124354482D01*
X134393373Y-124347963D01*
X134223534Y-124296443D01*
X134067009Y-124212778D01*
X134031271Y-124183448D01*
X133929814Y-124100186D01*
X133846552Y-123998729D01*
X133817222Y-123962991D01*
X133733557Y-123806466D01*
X133682037Y-123636627D01*
X133664641Y-123460000D01*
X133682037Y-123283373D01*
X133733557Y-123113534D01*
X133817222Y-122957009D01*
X133846552Y-122921271D01*
X133929814Y-122819814D01*
X134031271Y-122736552D01*
X134067009Y-122707222D01*
X134223534Y-122623557D01*
X134393373Y-122572037D01*
X134459557Y-122565519D01*
X134525740Y-122559000D01*
X134614260Y-122559000D01*
X134680443Y-122565519D01*
X134680443Y-122565519D01*
G37*
G36*
X137220443Y-122565519D02*
G01*
X137286627Y-122572037D01*
X137456466Y-122623557D01*
X137612991Y-122707222D01*
X137648729Y-122736552D01*
X137750186Y-122819814D01*
X137833448Y-122921271D01*
X137862778Y-122957009D01*
X137946443Y-123113534D01*
X137997963Y-123283373D01*
X138015359Y-123460000D01*
X137997963Y-123636627D01*
X137946443Y-123806466D01*
X137862778Y-123962991D01*
X137833448Y-123998729D01*
X137750186Y-124100186D01*
X137648729Y-124183448D01*
X137612991Y-124212778D01*
X137456466Y-124296443D01*
X137286627Y-124347963D01*
X137220442Y-124354482D01*
X137154260Y-124361000D01*
X137065740Y-124361000D01*
X136999558Y-124354482D01*
X136933373Y-124347963D01*
X136763534Y-124296443D01*
X136607009Y-124212778D01*
X136571271Y-124183448D01*
X136469814Y-124100186D01*
X136386552Y-123998729D01*
X136357222Y-123962991D01*
X136273557Y-123806466D01*
X136222037Y-123636627D01*
X136204641Y-123460000D01*
X136222037Y-123283373D01*
X136273557Y-123113534D01*
X136357222Y-122957009D01*
X136386552Y-122921271D01*
X136469814Y-122819814D01*
X136571271Y-122736552D01*
X136607009Y-122707222D01*
X136763534Y-122623557D01*
X136933373Y-122572037D01*
X136999557Y-122565519D01*
X137065740Y-122559000D01*
X137154260Y-122559000D01*
X137220443Y-122565519D01*
X137220443Y-122565519D01*
G37*
G36*
X130391000Y-124361000D02*
G01*
X128589000Y-124361000D01*
X128589000Y-122559000D01*
X130391000Y-122559000D01*
X130391000Y-124361000D01*
X130391000Y-124361000D01*
G37*
G36*
X123374431Y-120391134D02*
G01*
X123481579Y-120412447D01*
X123782042Y-120536903D01*
X124052451Y-120717585D01*
X124282415Y-120947549D01*
X124463097Y-121217958D01*
X124587553Y-121518421D01*
X124590147Y-121531461D01*
X124651000Y-121837389D01*
X124651000Y-122162611D01*
X124627230Y-122282110D01*
X124587553Y-122481579D01*
X124555484Y-122559000D01*
X124494089Y-122707222D01*
X124463097Y-122782042D01*
X124282415Y-123052451D01*
X124052451Y-123282415D01*
X123782042Y-123463097D01*
X123481579Y-123587553D01*
X123375256Y-123608702D01*
X123162611Y-123651000D01*
X122837389Y-123651000D01*
X122624744Y-123608702D01*
X122518421Y-123587553D01*
X122217958Y-123463097D01*
X121947549Y-123282415D01*
X121717585Y-123052451D01*
X121536903Y-122782042D01*
X121505912Y-122707222D01*
X121444516Y-122559000D01*
X121412447Y-122481579D01*
X121372770Y-122282110D01*
X121349000Y-122162611D01*
X121349000Y-121837389D01*
X121409853Y-121531461D01*
X121412447Y-121518421D01*
X121536903Y-121217958D01*
X121717585Y-120947549D01*
X121947549Y-120717585D01*
X122217958Y-120536903D01*
X122518421Y-120412447D01*
X122625569Y-120391134D01*
X122837389Y-120349000D01*
X123162611Y-120349000D01*
X123374431Y-120391134D01*
X123374431Y-120391134D01*
G37*
G36*
X142480591Y-122396085D02*
G01*
X142514569Y-122406393D01*
X142545890Y-122423134D01*
X142573339Y-122445661D01*
X142595866Y-122473110D01*
X142612607Y-122504431D01*
X142622915Y-122538409D01*
X142627000Y-122579890D01*
X142627000Y-123256110D01*
X142622915Y-123297591D01*
X142612607Y-123331569D01*
X142595866Y-123362890D01*
X142573339Y-123390339D01*
X142545890Y-123412866D01*
X142514569Y-123429607D01*
X142480591Y-123439915D01*
X142439110Y-123444000D01*
X141837890Y-123444000D01*
X141796409Y-123439915D01*
X141762431Y-123429607D01*
X141731110Y-123412866D01*
X141703661Y-123390339D01*
X141681134Y-123362890D01*
X141664393Y-123331569D01*
X141654085Y-123297591D01*
X141650000Y-123256110D01*
X141650000Y-122579890D01*
X141654085Y-122538409D01*
X141664393Y-122504431D01*
X141681134Y-122473110D01*
X141703661Y-122445661D01*
X141731110Y-122423134D01*
X141762431Y-122406393D01*
X141796409Y-122396085D01*
X141837890Y-122392000D01*
X142439110Y-122392000D01*
X142480591Y-122396085D01*
X142480591Y-122396085D01*
G37*
G36*
X144055591Y-122396085D02*
G01*
X144089569Y-122406393D01*
X144120890Y-122423134D01*
X144148339Y-122445661D01*
X144170866Y-122473110D01*
X144187607Y-122504431D01*
X144197915Y-122538409D01*
X144202000Y-122579890D01*
X144202000Y-123256110D01*
X144197915Y-123297591D01*
X144187607Y-123331569D01*
X144170866Y-123362890D01*
X144148339Y-123390339D01*
X144120890Y-123412866D01*
X144089569Y-123429607D01*
X144055591Y-123439915D01*
X144014110Y-123444000D01*
X143412890Y-123444000D01*
X143371409Y-123439915D01*
X143337431Y-123429607D01*
X143306110Y-123412866D01*
X143278661Y-123390339D01*
X143256134Y-123362890D01*
X143239393Y-123331569D01*
X143229085Y-123297591D01*
X143225000Y-123256110D01*
X143225000Y-122579890D01*
X143229085Y-122538409D01*
X143239393Y-122504431D01*
X143256134Y-122473110D01*
X143278661Y-122445661D01*
X143306110Y-122423134D01*
X143337431Y-122406393D01*
X143371409Y-122396085D01*
X143412890Y-122392000D01*
X144014110Y-122392000D01*
X144055591Y-122396085D01*
X144055591Y-122396085D01*
G37*
G36*
X148443000Y-123228000D02*
G01*
X147281000Y-123228000D01*
X147281000Y-122476000D01*
X148443000Y-122476000D01*
X148443000Y-123228000D01*
X148443000Y-123228000D01*
G37*
G36*
X146243000Y-123228000D02*
G01*
X145081000Y-123228000D01*
X145081000Y-120576000D01*
X146243000Y-120576000D01*
X146243000Y-123228000D01*
X146243000Y-123228000D01*
G37*
G36*
X150129591Y-122205085D02*
G01*
X150163569Y-122215393D01*
X150194890Y-122232134D01*
X150222339Y-122254661D01*
X150244866Y-122282110D01*
X150261607Y-122313431D01*
X150271915Y-122347409D01*
X150276000Y-122388890D01*
X150276000Y-122990110D01*
X150271915Y-123031591D01*
X150261607Y-123065569D01*
X150244866Y-123096890D01*
X150222339Y-123124339D01*
X150194890Y-123146866D01*
X150163569Y-123163607D01*
X150129591Y-123173915D01*
X150088110Y-123178000D01*
X149411890Y-123178000D01*
X149370409Y-123173915D01*
X149336431Y-123163607D01*
X149305110Y-123146866D01*
X149277661Y-123124339D01*
X149255134Y-123096890D01*
X149238393Y-123065569D01*
X149228085Y-123031591D01*
X149224000Y-122990110D01*
X149224000Y-122388890D01*
X149228085Y-122347409D01*
X149238393Y-122313431D01*
X149255134Y-122282110D01*
X149277661Y-122254661D01*
X149305110Y-122232134D01*
X149336431Y-122215393D01*
X149370409Y-122205085D01*
X149411890Y-122201000D01*
X150088110Y-122201000D01*
X150129591Y-122205085D01*
X150129591Y-122205085D01*
G37*
G36*
X150129591Y-120630085D02*
G01*
X150163569Y-120640393D01*
X150194890Y-120657134D01*
X150222339Y-120679661D01*
X150244866Y-120707110D01*
X150261607Y-120738431D01*
X150271915Y-120772409D01*
X150276000Y-120813890D01*
X150276000Y-121415110D01*
X150271915Y-121456591D01*
X150261607Y-121490569D01*
X150244866Y-121521890D01*
X150222339Y-121549339D01*
X150194890Y-121571866D01*
X150163569Y-121588607D01*
X150129591Y-121598915D01*
X150088110Y-121603000D01*
X149411890Y-121603000D01*
X149370409Y-121598915D01*
X149336431Y-121588607D01*
X149305110Y-121571866D01*
X149277661Y-121549339D01*
X149255134Y-121521890D01*
X149238393Y-121490569D01*
X149228085Y-121456591D01*
X149224000Y-121415110D01*
X149224000Y-120813890D01*
X149228085Y-120772409D01*
X149238393Y-120738431D01*
X149255134Y-120707110D01*
X149277661Y-120679661D01*
X149305110Y-120657134D01*
X149336431Y-120640393D01*
X149370409Y-120630085D01*
X149411890Y-120626000D01*
X150088110Y-120626000D01*
X150129591Y-120630085D01*
X150129591Y-120630085D01*
G37*
G36*
X144055591Y-120364085D02*
G01*
X144089569Y-120374393D01*
X144120890Y-120391134D01*
X144148339Y-120413661D01*
X144170866Y-120441110D01*
X144187607Y-120472431D01*
X144197915Y-120506409D01*
X144202000Y-120547890D01*
X144202000Y-121224110D01*
X144197915Y-121265591D01*
X144187607Y-121299569D01*
X144170866Y-121330890D01*
X144148339Y-121358339D01*
X144120890Y-121380866D01*
X144089569Y-121397607D01*
X144055591Y-121407915D01*
X144014110Y-121412000D01*
X143412890Y-121412000D01*
X143371409Y-121407915D01*
X143337431Y-121397607D01*
X143306110Y-121380866D01*
X143278661Y-121358339D01*
X143256134Y-121330890D01*
X143239393Y-121299569D01*
X143229085Y-121265591D01*
X143225000Y-121224110D01*
X143225000Y-120547890D01*
X143229085Y-120506409D01*
X143239393Y-120472431D01*
X143256134Y-120441110D01*
X143278661Y-120413661D01*
X143306110Y-120391134D01*
X143337431Y-120374393D01*
X143371409Y-120364085D01*
X143412890Y-120360000D01*
X144014110Y-120360000D01*
X144055591Y-120364085D01*
X144055591Y-120364085D01*
G37*
G36*
X142480591Y-120364085D02*
G01*
X142514569Y-120374393D01*
X142545890Y-120391134D01*
X142573339Y-120413661D01*
X142595866Y-120441110D01*
X142612607Y-120472431D01*
X142622915Y-120506409D01*
X142627000Y-120547890D01*
X142627000Y-121224110D01*
X142622915Y-121265591D01*
X142612607Y-121299569D01*
X142595866Y-121330890D01*
X142573339Y-121358339D01*
X142545890Y-121380866D01*
X142514569Y-121397607D01*
X142480591Y-121407915D01*
X142439110Y-121412000D01*
X141837890Y-121412000D01*
X141796409Y-121407915D01*
X141762431Y-121397607D01*
X141731110Y-121380866D01*
X141703661Y-121358339D01*
X141681134Y-121330890D01*
X141664393Y-121299569D01*
X141654085Y-121265591D01*
X141650000Y-121224110D01*
X141650000Y-120547890D01*
X141654085Y-120506409D01*
X141664393Y-120472431D01*
X141681134Y-120441110D01*
X141703661Y-120413661D01*
X141731110Y-120391134D01*
X141762431Y-120374393D01*
X141796409Y-120364085D01*
X141837890Y-120360000D01*
X142439110Y-120360000D01*
X142480591Y-120364085D01*
X142480591Y-120364085D01*
G37*
G36*
X148443000Y-121328000D02*
G01*
X147281000Y-121328000D01*
X147281000Y-120576000D01*
X148443000Y-120576000D01*
X148443000Y-121328000D01*
X148443000Y-121328000D01*
G37*
G36*
X138693591Y-119896085D02*
G01*
X138727569Y-119906393D01*
X138758890Y-119923134D01*
X138786339Y-119945661D01*
X138808866Y-119973110D01*
X138825607Y-120004431D01*
X138835915Y-120038409D01*
X138840000Y-120079890D01*
X138840000Y-120756110D01*
X138835915Y-120797591D01*
X138825607Y-120831569D01*
X138808866Y-120862890D01*
X138786339Y-120890339D01*
X138758890Y-120912866D01*
X138727569Y-120929607D01*
X138693591Y-120939915D01*
X138652110Y-120944000D01*
X138050890Y-120944000D01*
X138009409Y-120939915D01*
X137975431Y-120929607D01*
X137944110Y-120912866D01*
X137916661Y-120890339D01*
X137894134Y-120862890D01*
X137877393Y-120831569D01*
X137867085Y-120797591D01*
X137863000Y-120756110D01*
X137863000Y-120079890D01*
X137867085Y-120038409D01*
X137877393Y-120004431D01*
X137894134Y-119973110D01*
X137916661Y-119945661D01*
X137944110Y-119923134D01*
X137975431Y-119906393D01*
X138009409Y-119896085D01*
X138050890Y-119892000D01*
X138652110Y-119892000D01*
X138693591Y-119896085D01*
X138693591Y-119896085D01*
G37*
G36*
X137118591Y-119896085D02*
G01*
X137152569Y-119906393D01*
X137183890Y-119923134D01*
X137211339Y-119945661D01*
X137233866Y-119973110D01*
X137250607Y-120004431D01*
X137260915Y-120038409D01*
X137265000Y-120079890D01*
X137265000Y-120756110D01*
X137260915Y-120797591D01*
X137250607Y-120831569D01*
X137233866Y-120862890D01*
X137211339Y-120890339D01*
X137183890Y-120912866D01*
X137152569Y-120929607D01*
X137118591Y-120939915D01*
X137077110Y-120944000D01*
X136475890Y-120944000D01*
X136434409Y-120939915D01*
X136400431Y-120929607D01*
X136369110Y-120912866D01*
X136341661Y-120890339D01*
X136319134Y-120862890D01*
X136302393Y-120831569D01*
X136292085Y-120797591D01*
X136288000Y-120756110D01*
X136288000Y-120079890D01*
X136292085Y-120038409D01*
X136302393Y-120004431D01*
X136319134Y-119973110D01*
X136341661Y-119945661D01*
X136369110Y-119923134D01*
X136400431Y-119906393D01*
X136434409Y-119896085D01*
X136475890Y-119892000D01*
X137077110Y-119892000D01*
X137118591Y-119896085D01*
X137118591Y-119896085D01*
G37*
G36*
X134026000Y-120821000D02*
G01*
X132474000Y-120821000D01*
X132474000Y-114419000D01*
X134026000Y-114419000D01*
X134026000Y-120821000D01*
X134026000Y-120821000D01*
G37*
G36*
X128126000Y-120821000D02*
G01*
X126574000Y-120821000D01*
X126574000Y-114419000D01*
X128126000Y-114419000D01*
X128126000Y-120821000D01*
X128126000Y-120821000D01*
G37*
G36*
X144042091Y-118578085D02*
G01*
X144076069Y-118588393D01*
X144107390Y-118605134D01*
X144134839Y-118627661D01*
X144157366Y-118655110D01*
X144174107Y-118686431D01*
X144184415Y-118720409D01*
X144188500Y-118761890D01*
X144188500Y-119438110D01*
X144184415Y-119479591D01*
X144174107Y-119513569D01*
X144157366Y-119544890D01*
X144134839Y-119572339D01*
X144107390Y-119594866D01*
X144076069Y-119611607D01*
X144042091Y-119621915D01*
X144000610Y-119626000D01*
X143399390Y-119626000D01*
X143357909Y-119621915D01*
X143323931Y-119611607D01*
X143292610Y-119594866D01*
X143265161Y-119572339D01*
X143242634Y-119544890D01*
X143225893Y-119513569D01*
X143215585Y-119479591D01*
X143211500Y-119438110D01*
X143211500Y-118761890D01*
X143215585Y-118720409D01*
X143225893Y-118686431D01*
X143242634Y-118655110D01*
X143265161Y-118627661D01*
X143292610Y-118605134D01*
X143323931Y-118588393D01*
X143357909Y-118578085D01*
X143399390Y-118574000D01*
X144000610Y-118574000D01*
X144042091Y-118578085D01*
X144042091Y-118578085D01*
G37*
G36*
X142467091Y-118578085D02*
G01*
X142501069Y-118588393D01*
X142532390Y-118605134D01*
X142559839Y-118627661D01*
X142582366Y-118655110D01*
X142599107Y-118686431D01*
X142609415Y-118720409D01*
X142613500Y-118761890D01*
X142613500Y-119438110D01*
X142609415Y-119479591D01*
X142599107Y-119513569D01*
X142582366Y-119544890D01*
X142559839Y-119572339D01*
X142532390Y-119594866D01*
X142501069Y-119611607D01*
X142467091Y-119621915D01*
X142425610Y-119626000D01*
X141824390Y-119626000D01*
X141782909Y-119621915D01*
X141748931Y-119611607D01*
X141717610Y-119594866D01*
X141690161Y-119572339D01*
X141667634Y-119544890D01*
X141650893Y-119513569D01*
X141640585Y-119479591D01*
X141636500Y-119438110D01*
X141636500Y-118761890D01*
X141640585Y-118720409D01*
X141650893Y-118686431D01*
X141667634Y-118655110D01*
X141690161Y-118627661D01*
X141717610Y-118605134D01*
X141748931Y-118588393D01*
X141782909Y-118578085D01*
X141824390Y-118574000D01*
X142425610Y-118574000D01*
X142467091Y-118578085D01*
X142467091Y-118578085D01*
G37*
G36*
X137122591Y-118238085D02*
G01*
X137156569Y-118248393D01*
X137187890Y-118265134D01*
X137215339Y-118287661D01*
X137237866Y-118315110D01*
X137254607Y-118346431D01*
X137264915Y-118380409D01*
X137269000Y-118421890D01*
X137269000Y-119098110D01*
X137264915Y-119139591D01*
X137254607Y-119173569D01*
X137237866Y-119204890D01*
X137215339Y-119232339D01*
X137187890Y-119254866D01*
X137156569Y-119271607D01*
X137122591Y-119281915D01*
X137081110Y-119286000D01*
X136479890Y-119286000D01*
X136438409Y-119281915D01*
X136404431Y-119271607D01*
X136373110Y-119254866D01*
X136345661Y-119232339D01*
X136323134Y-119204890D01*
X136306393Y-119173569D01*
X136296085Y-119139591D01*
X136292000Y-119098110D01*
X136292000Y-118421890D01*
X136296085Y-118380409D01*
X136306393Y-118346431D01*
X136323134Y-118315110D01*
X136345661Y-118287661D01*
X136373110Y-118265134D01*
X136404431Y-118248393D01*
X136438409Y-118238085D01*
X136479890Y-118234000D01*
X137081110Y-118234000D01*
X137122591Y-118238085D01*
X137122591Y-118238085D01*
G37*
G36*
X138697591Y-118238085D02*
G01*
X138731569Y-118248393D01*
X138762890Y-118265134D01*
X138790339Y-118287661D01*
X138812866Y-118315110D01*
X138829607Y-118346431D01*
X138839915Y-118380409D01*
X138844000Y-118421890D01*
X138844000Y-119098110D01*
X138839915Y-119139591D01*
X138829607Y-119173569D01*
X138812866Y-119204890D01*
X138790339Y-119232339D01*
X138762890Y-119254866D01*
X138731569Y-119271607D01*
X138697591Y-119281915D01*
X138656110Y-119286000D01*
X138054890Y-119286000D01*
X138013409Y-119281915D01*
X137979431Y-119271607D01*
X137948110Y-119254866D01*
X137920661Y-119232339D01*
X137898134Y-119204890D01*
X137881393Y-119173569D01*
X137871085Y-119139591D01*
X137867000Y-119098110D01*
X137867000Y-118421890D01*
X137871085Y-118380409D01*
X137881393Y-118346431D01*
X137898134Y-118315110D01*
X137920661Y-118287661D01*
X137948110Y-118265134D01*
X137979431Y-118248393D01*
X138013409Y-118238085D01*
X138054890Y-118234000D01*
X138656110Y-118234000D01*
X138697591Y-118238085D01*
X138697591Y-118238085D01*
G37*
G36*
X138727591Y-116618085D02*
G01*
X138761569Y-116628393D01*
X138792890Y-116645134D01*
X138820339Y-116667661D01*
X138842866Y-116695110D01*
X138859607Y-116726431D01*
X138869915Y-116760409D01*
X138874000Y-116801890D01*
X138874000Y-117478110D01*
X138869915Y-117519591D01*
X138859607Y-117553569D01*
X138842866Y-117584890D01*
X138820339Y-117612339D01*
X138792890Y-117634866D01*
X138761569Y-117651607D01*
X138727591Y-117661915D01*
X138686110Y-117666000D01*
X138084890Y-117666000D01*
X138043409Y-117661915D01*
X138009431Y-117651607D01*
X137978110Y-117634866D01*
X137950661Y-117612339D01*
X137928134Y-117584890D01*
X137911393Y-117553569D01*
X137901085Y-117519591D01*
X137897000Y-117478110D01*
X137897000Y-116801890D01*
X137901085Y-116760409D01*
X137911393Y-116726431D01*
X137928134Y-116695110D01*
X137950661Y-116667661D01*
X137978110Y-116645134D01*
X138009431Y-116628393D01*
X138043409Y-116618085D01*
X138084890Y-116614000D01*
X138686110Y-116614000D01*
X138727591Y-116618085D01*
X138727591Y-116618085D01*
G37*
G36*
X137152591Y-116618085D02*
G01*
X137186569Y-116628393D01*
X137217890Y-116645134D01*
X137245339Y-116667661D01*
X137267866Y-116695110D01*
X137284607Y-116726431D01*
X137294915Y-116760409D01*
X137299000Y-116801890D01*
X137299000Y-117478110D01*
X137294915Y-117519591D01*
X137284607Y-117553569D01*
X137267866Y-117584890D01*
X137245339Y-117612339D01*
X137217890Y-117634866D01*
X137186569Y-117651607D01*
X137152591Y-117661915D01*
X137111110Y-117666000D01*
X136509890Y-117666000D01*
X136468409Y-117661915D01*
X136434431Y-117651607D01*
X136403110Y-117634866D01*
X136375661Y-117612339D01*
X136353134Y-117584890D01*
X136336393Y-117553569D01*
X136326085Y-117519591D01*
X136322000Y-117478110D01*
X136322000Y-116801890D01*
X136326085Y-116760409D01*
X136336393Y-116726431D01*
X136353134Y-116695110D01*
X136375661Y-116667661D01*
X136403110Y-116645134D01*
X136434431Y-116628393D01*
X136468409Y-116618085D01*
X136509890Y-116614000D01*
X137111110Y-116614000D01*
X137152591Y-116618085D01*
X137152591Y-116618085D01*
G37*
G36*
X151232585Y-113948802D02*
G01*
X151382410Y-113978604D01*
X151664674Y-114095521D01*
X151918705Y-114265259D01*
X152134741Y-114481295D01*
X152304479Y-114735326D01*
X152421396Y-115017590D01*
X152422977Y-115025539D01*
X152480263Y-115313532D01*
X152481000Y-115317240D01*
X152481000Y-115622760D01*
X152421396Y-115922410D01*
X152304479Y-116204674D01*
X152134741Y-116458705D01*
X151918705Y-116674741D01*
X151664674Y-116844479D01*
X151382410Y-116961396D01*
X151232585Y-116991198D01*
X151082761Y-117021000D01*
X150777239Y-117021000D01*
X150627415Y-116991198D01*
X150477590Y-116961396D01*
X150195326Y-116844479D01*
X149941295Y-116674741D01*
X149725259Y-116458705D01*
X149555521Y-116204674D01*
X149438604Y-115922410D01*
X149379000Y-115622760D01*
X149379000Y-115317240D01*
X149379738Y-115313532D01*
X149437023Y-115025539D01*
X149438604Y-115017590D01*
X149555521Y-114735326D01*
X149725259Y-114481295D01*
X149941295Y-114265259D01*
X150195326Y-114095521D01*
X150477590Y-113978604D01*
X150627415Y-113948802D01*
X150777239Y-113919000D01*
X151082761Y-113919000D01*
X151232585Y-113948802D01*
X151232585Y-113948802D01*
G37*
G36*
X144777591Y-115528085D02*
G01*
X144811569Y-115538393D01*
X144842890Y-115555134D01*
X144870339Y-115577661D01*
X144892866Y-115605110D01*
X144909607Y-115636431D01*
X144919915Y-115670409D01*
X144924000Y-115711890D01*
X144924000Y-116388110D01*
X144919915Y-116429591D01*
X144909607Y-116463569D01*
X144892866Y-116494890D01*
X144870339Y-116522339D01*
X144842890Y-116544866D01*
X144811569Y-116561607D01*
X144777591Y-116571915D01*
X144736110Y-116576000D01*
X144134890Y-116576000D01*
X144093409Y-116571915D01*
X144059431Y-116561607D01*
X144028110Y-116544866D01*
X144000661Y-116522339D01*
X143978134Y-116494890D01*
X143961393Y-116463569D01*
X143951085Y-116429591D01*
X143947000Y-116388110D01*
X143947000Y-115711890D01*
X143951085Y-115670409D01*
X143961393Y-115636431D01*
X143978134Y-115605110D01*
X144000661Y-115577661D01*
X144028110Y-115555134D01*
X144059431Y-115538393D01*
X144093409Y-115528085D01*
X144134890Y-115524000D01*
X144736110Y-115524000D01*
X144777591Y-115528085D01*
X144777591Y-115528085D01*
G37*
G36*
X143202591Y-115528085D02*
G01*
X143236569Y-115538393D01*
X143267890Y-115555134D01*
X143295339Y-115577661D01*
X143317866Y-115605110D01*
X143334607Y-115636431D01*
X143344915Y-115670409D01*
X143349000Y-115711890D01*
X143349000Y-116388110D01*
X143344915Y-116429591D01*
X143334607Y-116463569D01*
X143317866Y-116494890D01*
X143295339Y-116522339D01*
X143267890Y-116544866D01*
X143236569Y-116561607D01*
X143202591Y-116571915D01*
X143161110Y-116576000D01*
X142559890Y-116576000D01*
X142518409Y-116571915D01*
X142484431Y-116561607D01*
X142453110Y-116544866D01*
X142425661Y-116522339D01*
X142403134Y-116494890D01*
X142386393Y-116463569D01*
X142376085Y-116429591D01*
X142372000Y-116388110D01*
X142372000Y-115711890D01*
X142376085Y-115670409D01*
X142386393Y-115636431D01*
X142403134Y-115605110D01*
X142425661Y-115577661D01*
X142453110Y-115555134D01*
X142484431Y-115538393D01*
X142518409Y-115528085D01*
X142559890Y-115524000D01*
X143161110Y-115524000D01*
X143202591Y-115528085D01*
X143202591Y-115528085D01*
G37*
G36*
X121950443Y-114765519D02*
G01*
X122016627Y-114772037D01*
X122186466Y-114823557D01*
X122342991Y-114907222D01*
X122378729Y-114936552D01*
X122480186Y-115019814D01*
X122563448Y-115121271D01*
X122592778Y-115157009D01*
X122676443Y-115313534D01*
X122727963Y-115483373D01*
X122745359Y-115660000D01*
X122727963Y-115836627D01*
X122676443Y-116006466D01*
X122592778Y-116162991D01*
X122563448Y-116198729D01*
X122480186Y-116300186D01*
X122383661Y-116379401D01*
X122342991Y-116412778D01*
X122342989Y-116412779D01*
X122189372Y-116494890D01*
X122186466Y-116496443D01*
X122016627Y-116547963D01*
X121950442Y-116554482D01*
X121884260Y-116561000D01*
X121795740Y-116561000D01*
X121729558Y-116554482D01*
X121663373Y-116547963D01*
X121493534Y-116496443D01*
X121490629Y-116494890D01*
X121337011Y-116412779D01*
X121337009Y-116412778D01*
X121296339Y-116379401D01*
X121199814Y-116300186D01*
X121116552Y-116198729D01*
X121087222Y-116162991D01*
X121003557Y-116006466D01*
X120952037Y-115836627D01*
X120934641Y-115660000D01*
X120952037Y-115483373D01*
X121003557Y-115313534D01*
X121087222Y-115157009D01*
X121116552Y-115121271D01*
X121199814Y-115019814D01*
X121301271Y-114936552D01*
X121337009Y-114907222D01*
X121493534Y-114823557D01*
X121663373Y-114772037D01*
X121729557Y-114765519D01*
X121795740Y-114759000D01*
X121884260Y-114759000D01*
X121950443Y-114765519D01*
X121950443Y-114765519D01*
G37*
G36*
X138717591Y-114958085D02*
G01*
X138751569Y-114968393D01*
X138782890Y-114985134D01*
X138810339Y-115007661D01*
X138832866Y-115035110D01*
X138849607Y-115066431D01*
X138859915Y-115100409D01*
X138864000Y-115141890D01*
X138864000Y-115818110D01*
X138859915Y-115859591D01*
X138849607Y-115893569D01*
X138832866Y-115924890D01*
X138810339Y-115952339D01*
X138782890Y-115974866D01*
X138751569Y-115991607D01*
X138717591Y-116001915D01*
X138676110Y-116006000D01*
X138074890Y-116006000D01*
X138033409Y-116001915D01*
X137999431Y-115991607D01*
X137968110Y-115974866D01*
X137940661Y-115952339D01*
X137918134Y-115924890D01*
X137901393Y-115893569D01*
X137891085Y-115859591D01*
X137887000Y-115818110D01*
X137887000Y-115141890D01*
X137891085Y-115100409D01*
X137901393Y-115066431D01*
X137918134Y-115035110D01*
X137940661Y-115007661D01*
X137968110Y-114985134D01*
X137999431Y-114968393D01*
X138033409Y-114958085D01*
X138074890Y-114954000D01*
X138676110Y-114954000D01*
X138717591Y-114958085D01*
X138717591Y-114958085D01*
G37*
G36*
X137142591Y-114958085D02*
G01*
X137176569Y-114968393D01*
X137207890Y-114985134D01*
X137235339Y-115007661D01*
X137257866Y-115035110D01*
X137274607Y-115066431D01*
X137284915Y-115100409D01*
X137289000Y-115141890D01*
X137289000Y-115818110D01*
X137284915Y-115859591D01*
X137274607Y-115893569D01*
X137257866Y-115924890D01*
X137235339Y-115952339D01*
X137207890Y-115974866D01*
X137176569Y-115991607D01*
X137142591Y-116001915D01*
X137101110Y-116006000D01*
X136499890Y-116006000D01*
X136458409Y-116001915D01*
X136424431Y-115991607D01*
X136393110Y-115974866D01*
X136365661Y-115952339D01*
X136343134Y-115924890D01*
X136326393Y-115893569D01*
X136316085Y-115859591D01*
X136312000Y-115818110D01*
X136312000Y-115141890D01*
X136316085Y-115100409D01*
X136326393Y-115066431D01*
X136343134Y-115035110D01*
X136365661Y-115007661D01*
X136393110Y-114985134D01*
X136424431Y-114968393D01*
X136458409Y-114958085D01*
X136499890Y-114954000D01*
X137101110Y-114954000D01*
X137142591Y-114958085D01*
X137142591Y-114958085D01*
G37*
G36*
X143357000Y-114501000D02*
G01*
X142355000Y-114501000D01*
X142355000Y-113599000D01*
X143357000Y-113599000D01*
X143357000Y-114501000D01*
X143357000Y-114501000D01*
G37*
G36*
X140959591Y-113381085D02*
G01*
X140993569Y-113391393D01*
X141024890Y-113408134D01*
X141052339Y-113430661D01*
X141074866Y-113458110D01*
X141091607Y-113489431D01*
X141101915Y-113523409D01*
X141106000Y-113564890D01*
X141106000Y-114166110D01*
X141101915Y-114207591D01*
X141091607Y-114241569D01*
X141074866Y-114272890D01*
X141052339Y-114300339D01*
X141024890Y-114322866D01*
X140993569Y-114339607D01*
X140959591Y-114349915D01*
X140918110Y-114354000D01*
X140241890Y-114354000D01*
X140200409Y-114349915D01*
X140166431Y-114339607D01*
X140135110Y-114322866D01*
X140107661Y-114300339D01*
X140085134Y-114272890D01*
X140068393Y-114241569D01*
X140058085Y-114207591D01*
X140054000Y-114166110D01*
X140054000Y-113564890D01*
X140058085Y-113523409D01*
X140068393Y-113489431D01*
X140085134Y-113458110D01*
X140107661Y-113430661D01*
X140135110Y-113408134D01*
X140166431Y-113391393D01*
X140200409Y-113381085D01*
X140241890Y-113377000D01*
X140918110Y-113377000D01*
X140959591Y-113381085D01*
X140959591Y-113381085D01*
G37*
G36*
X121950443Y-112225519D02*
G01*
X122016627Y-112232037D01*
X122186466Y-112283557D01*
X122342991Y-112367222D01*
X122378729Y-112396552D01*
X122480186Y-112479814D01*
X122546402Y-112560500D01*
X122592778Y-112617009D01*
X122676443Y-112773534D01*
X122727963Y-112943373D01*
X122745359Y-113120000D01*
X122727963Y-113296627D01*
X122676443Y-113466466D01*
X122592778Y-113622991D01*
X122563448Y-113658729D01*
X122480186Y-113760186D01*
X122378729Y-113843448D01*
X122342991Y-113872778D01*
X122186466Y-113956443D01*
X122016627Y-114007963D01*
X121950443Y-114014481D01*
X121884260Y-114021000D01*
X121795740Y-114021000D01*
X121729557Y-114014481D01*
X121663373Y-114007963D01*
X121493534Y-113956443D01*
X121337009Y-113872778D01*
X121301271Y-113843448D01*
X121199814Y-113760186D01*
X121116552Y-113658729D01*
X121087222Y-113622991D01*
X121003557Y-113466466D01*
X120952037Y-113296627D01*
X120934641Y-113120000D01*
X120952037Y-112943373D01*
X121003557Y-112773534D01*
X121087222Y-112617009D01*
X121133598Y-112560500D01*
X121199814Y-112479814D01*
X121301271Y-112396552D01*
X121337009Y-112367222D01*
X121493534Y-112283557D01*
X121663373Y-112232037D01*
X121729557Y-112225519D01*
X121795740Y-112219000D01*
X121884260Y-112219000D01*
X121950443Y-112225519D01*
X121950443Y-112225519D01*
G37*
G36*
X145357000Y-113551000D02*
G01*
X144355000Y-113551000D01*
X144355000Y-112649000D01*
X145357000Y-112649000D01*
X145357000Y-113551000D01*
X145357000Y-113551000D01*
G37*
G36*
X140959591Y-111806085D02*
G01*
X140993569Y-111816393D01*
X141024890Y-111833134D01*
X141052339Y-111855661D01*
X141074866Y-111883110D01*
X141091607Y-111914431D01*
X141101915Y-111948409D01*
X141106000Y-111989890D01*
X141106000Y-112591110D01*
X141101915Y-112632591D01*
X141091607Y-112666569D01*
X141074866Y-112697890D01*
X141052339Y-112725339D01*
X141024890Y-112747866D01*
X140993569Y-112764607D01*
X140959591Y-112774915D01*
X140918110Y-112779000D01*
X140241890Y-112779000D01*
X140200409Y-112774915D01*
X140166431Y-112764607D01*
X140135110Y-112747866D01*
X140107661Y-112725339D01*
X140085134Y-112697890D01*
X140068393Y-112666569D01*
X140058085Y-112632591D01*
X140054000Y-112591110D01*
X140054000Y-111989890D01*
X140058085Y-111948409D01*
X140068393Y-111914431D01*
X140085134Y-111883110D01*
X140107661Y-111855661D01*
X140135110Y-111833134D01*
X140166431Y-111816393D01*
X140200409Y-111806085D01*
X140241890Y-111802000D01*
X140918110Y-111802000D01*
X140959591Y-111806085D01*
X140959591Y-111806085D01*
G37*
G36*
X138189928Y-112036764D02*
G01*
X138211009Y-112043160D01*
X138230445Y-112053548D01*
X138247476Y-112067524D01*
X138261452Y-112084555D01*
X138271840Y-112103991D01*
X138278236Y-112125072D01*
X138281000Y-112153140D01*
X138281000Y-112616860D01*
X138278236Y-112644928D01*
X138271840Y-112666009D01*
X138261452Y-112685445D01*
X138247476Y-112702476D01*
X138230445Y-112716452D01*
X138211009Y-112726840D01*
X138189928Y-112733236D01*
X138161860Y-112736000D01*
X136348140Y-112736000D01*
X136320072Y-112733236D01*
X136298991Y-112726840D01*
X136279555Y-112716452D01*
X136262524Y-112702476D01*
X136248548Y-112685445D01*
X136238160Y-112666009D01*
X136231764Y-112644928D01*
X136229000Y-112616860D01*
X136229000Y-112153140D01*
X136231764Y-112125072D01*
X136238160Y-112103991D01*
X136248548Y-112084555D01*
X136262524Y-112067524D01*
X136279555Y-112053548D01*
X136298991Y-112043160D01*
X136320072Y-112036764D01*
X136348140Y-112034000D01*
X138161860Y-112034000D01*
X138189928Y-112036764D01*
X138189928Y-112036764D01*
G37*
G36*
X133239928Y-112036764D02*
G01*
X133261009Y-112043160D01*
X133280445Y-112053548D01*
X133297476Y-112067524D01*
X133311452Y-112084555D01*
X133321840Y-112103991D01*
X133328236Y-112125072D01*
X133331000Y-112153140D01*
X133331000Y-112616860D01*
X133328236Y-112644928D01*
X133321840Y-112666009D01*
X133311452Y-112685445D01*
X133297476Y-112702476D01*
X133280445Y-112716452D01*
X133261009Y-112726840D01*
X133239928Y-112733236D01*
X133211860Y-112736000D01*
X131398140Y-112736000D01*
X131370072Y-112733236D01*
X131348991Y-112726840D01*
X131329555Y-112716452D01*
X131312524Y-112702476D01*
X131298548Y-112685445D01*
X131288160Y-112666009D01*
X131281764Y-112644928D01*
X131279000Y-112616860D01*
X131279000Y-112153140D01*
X131281764Y-112125072D01*
X131288160Y-112103991D01*
X131298548Y-112084555D01*
X131312524Y-112067524D01*
X131329555Y-112053548D01*
X131348991Y-112043160D01*
X131370072Y-112036764D01*
X131398140Y-112034000D01*
X133211860Y-112034000D01*
X133239928Y-112036764D01*
X133239928Y-112036764D01*
G37*
G36*
X143357000Y-112601000D02*
G01*
X142355000Y-112601000D01*
X142355000Y-111699000D01*
X143357000Y-111699000D01*
X143357000Y-112601000D01*
X143357000Y-112601000D01*
G37*
G36*
X152481000Y-111941000D02*
G01*
X149379000Y-111941000D01*
X149379000Y-108839000D01*
X152481000Y-108839000D01*
X152481000Y-111941000D01*
X152481000Y-111941000D01*
G37*
G36*
X122741000Y-111481000D02*
G01*
X120939000Y-111481000D01*
X120939000Y-109679000D01*
X122741000Y-109679000D01*
X122741000Y-111481000D01*
X122741000Y-111481000D01*
G37*
G36*
X138189928Y-110766764D02*
G01*
X138211009Y-110773160D01*
X138230445Y-110783548D01*
X138247476Y-110797524D01*
X138261452Y-110814555D01*
X138271840Y-110833991D01*
X138278236Y-110855072D01*
X138281000Y-110883140D01*
X138281000Y-111346860D01*
X138278236Y-111374928D01*
X138271840Y-111396009D01*
X138261452Y-111415445D01*
X138247476Y-111432476D01*
X138230445Y-111446452D01*
X138211009Y-111456840D01*
X138189928Y-111463236D01*
X138161860Y-111466000D01*
X136348140Y-111466000D01*
X136320072Y-111463236D01*
X136298991Y-111456840D01*
X136279555Y-111446452D01*
X136262524Y-111432476D01*
X136248548Y-111415445D01*
X136238160Y-111396009D01*
X136231764Y-111374928D01*
X136229000Y-111346860D01*
X136229000Y-110883140D01*
X136231764Y-110855072D01*
X136238160Y-110833991D01*
X136248548Y-110814555D01*
X136262524Y-110797524D01*
X136279555Y-110783548D01*
X136298991Y-110773160D01*
X136320072Y-110766764D01*
X136348140Y-110764000D01*
X138161860Y-110764000D01*
X138189928Y-110766764D01*
X138189928Y-110766764D01*
G37*
G36*
X133239928Y-110766764D02*
G01*
X133261009Y-110773160D01*
X133280445Y-110783548D01*
X133297476Y-110797524D01*
X133311452Y-110814555D01*
X133321840Y-110833991D01*
X133328236Y-110855072D01*
X133331000Y-110883140D01*
X133331000Y-111346860D01*
X133328236Y-111374928D01*
X133321840Y-111396009D01*
X133311452Y-111415445D01*
X133297476Y-111432476D01*
X133280445Y-111446452D01*
X133261009Y-111456840D01*
X133239928Y-111463236D01*
X133211860Y-111466000D01*
X131398140Y-111466000D01*
X131370072Y-111463236D01*
X131348991Y-111456840D01*
X131329555Y-111446452D01*
X131312524Y-111432476D01*
X131298548Y-111415445D01*
X131288160Y-111396009D01*
X131281764Y-111374928D01*
X131279000Y-111346860D01*
X131279000Y-110883140D01*
X131281764Y-110855072D01*
X131288160Y-110833991D01*
X131298548Y-110814555D01*
X131312524Y-110797524D01*
X131329555Y-110783548D01*
X131348991Y-110773160D01*
X131370072Y-110766764D01*
X131398140Y-110764000D01*
X133211860Y-110764000D01*
X133239928Y-110766764D01*
X133239928Y-110766764D01*
G37*
G36*
X144779591Y-109568085D02*
G01*
X144813569Y-109578393D01*
X144844890Y-109595134D01*
X144872339Y-109617661D01*
X144894866Y-109645110D01*
X144911607Y-109676431D01*
X144921915Y-109710409D01*
X144926000Y-109751890D01*
X144926000Y-110428110D01*
X144921915Y-110469591D01*
X144911607Y-110503569D01*
X144894866Y-110534890D01*
X144872339Y-110562339D01*
X144844890Y-110584866D01*
X144813569Y-110601607D01*
X144779591Y-110611915D01*
X144738110Y-110616000D01*
X144136890Y-110616000D01*
X144095409Y-110611915D01*
X144061431Y-110601607D01*
X144030110Y-110584866D01*
X144002661Y-110562339D01*
X143980134Y-110534890D01*
X143963393Y-110503569D01*
X143953085Y-110469591D01*
X143949000Y-110428110D01*
X143949000Y-109751890D01*
X143953085Y-109710409D01*
X143963393Y-109676431D01*
X143980134Y-109645110D01*
X144002661Y-109617661D01*
X144030110Y-109595134D01*
X144061431Y-109578393D01*
X144095409Y-109568085D01*
X144136890Y-109564000D01*
X144738110Y-109564000D01*
X144779591Y-109568085D01*
X144779591Y-109568085D01*
G37*
G36*
X143204591Y-109568085D02*
G01*
X143238569Y-109578393D01*
X143269890Y-109595134D01*
X143297339Y-109617661D01*
X143319866Y-109645110D01*
X143336607Y-109676431D01*
X143346915Y-109710409D01*
X143351000Y-109751890D01*
X143351000Y-110428110D01*
X143346915Y-110469591D01*
X143336607Y-110503569D01*
X143319866Y-110534890D01*
X143297339Y-110562339D01*
X143269890Y-110584866D01*
X143238569Y-110601607D01*
X143204591Y-110611915D01*
X143163110Y-110616000D01*
X142561890Y-110616000D01*
X142520409Y-110611915D01*
X142486431Y-110601607D01*
X142455110Y-110584866D01*
X142427661Y-110562339D01*
X142405134Y-110534890D01*
X142388393Y-110503569D01*
X142378085Y-110469591D01*
X142374000Y-110428110D01*
X142374000Y-109751890D01*
X142378085Y-109710409D01*
X142388393Y-109676431D01*
X142405134Y-109645110D01*
X142427661Y-109617661D01*
X142455110Y-109595134D01*
X142486431Y-109578393D01*
X142520409Y-109568085D01*
X142561890Y-109564000D01*
X143163110Y-109564000D01*
X143204591Y-109568085D01*
X143204591Y-109568085D01*
G37*
G36*
X138189928Y-109496764D02*
G01*
X138211009Y-109503160D01*
X138230445Y-109513548D01*
X138247476Y-109527524D01*
X138261452Y-109544555D01*
X138271840Y-109563991D01*
X138278236Y-109585072D01*
X138281000Y-109613140D01*
X138281000Y-110076860D01*
X138278236Y-110104928D01*
X138271840Y-110126009D01*
X138261452Y-110145445D01*
X138247476Y-110162476D01*
X138230445Y-110176452D01*
X138211009Y-110186840D01*
X138189928Y-110193236D01*
X138161860Y-110196000D01*
X136348140Y-110196000D01*
X136320072Y-110193236D01*
X136298991Y-110186840D01*
X136279555Y-110176452D01*
X136262524Y-110162476D01*
X136248548Y-110145445D01*
X136238160Y-110126009D01*
X136231764Y-110104928D01*
X136229000Y-110076860D01*
X136229000Y-109613140D01*
X136231764Y-109585072D01*
X136238160Y-109563991D01*
X136248548Y-109544555D01*
X136262524Y-109527524D01*
X136279555Y-109513548D01*
X136298991Y-109503160D01*
X136320072Y-109496764D01*
X136348140Y-109494000D01*
X138161860Y-109494000D01*
X138189928Y-109496764D01*
X138189928Y-109496764D01*
G37*
G36*
X133239928Y-109496764D02*
G01*
X133261009Y-109503160D01*
X133280445Y-109513548D01*
X133297476Y-109527524D01*
X133311452Y-109544555D01*
X133321840Y-109563991D01*
X133328236Y-109585072D01*
X133331000Y-109613140D01*
X133331000Y-110076860D01*
X133328236Y-110104928D01*
X133321840Y-110126009D01*
X133311452Y-110145445D01*
X133297476Y-110162476D01*
X133280445Y-110176452D01*
X133261009Y-110186840D01*
X133239928Y-110193236D01*
X133211860Y-110196000D01*
X131398140Y-110196000D01*
X131370072Y-110193236D01*
X131348991Y-110186840D01*
X131329555Y-110176452D01*
X131312524Y-110162476D01*
X131298548Y-110145445D01*
X131288160Y-110126009D01*
X131281764Y-110104928D01*
X131279000Y-110076860D01*
X131279000Y-109613140D01*
X131281764Y-109585072D01*
X131288160Y-109563991D01*
X131298548Y-109544555D01*
X131312524Y-109527524D01*
X131329555Y-109513548D01*
X131348991Y-109503160D01*
X131370072Y-109496764D01*
X131398140Y-109494000D01*
X133211860Y-109494000D01*
X133239928Y-109496764D01*
X133239928Y-109496764D01*
G37*
G36*
X133239928Y-108226764D02*
G01*
X133261009Y-108233160D01*
X133280445Y-108243548D01*
X133297476Y-108257524D01*
X133311452Y-108274555D01*
X133321840Y-108293991D01*
X133328236Y-108315072D01*
X133331000Y-108343140D01*
X133331000Y-108806860D01*
X133328236Y-108834928D01*
X133321840Y-108856009D01*
X133311452Y-108875445D01*
X133297476Y-108892476D01*
X133280445Y-108906452D01*
X133261009Y-108916840D01*
X133239928Y-108923236D01*
X133211860Y-108926000D01*
X131398140Y-108926000D01*
X131370072Y-108923236D01*
X131348991Y-108916840D01*
X131329555Y-108906452D01*
X131312524Y-108892476D01*
X131298548Y-108875445D01*
X131288160Y-108856009D01*
X131281764Y-108834928D01*
X131279000Y-108806860D01*
X131279000Y-108343140D01*
X131281764Y-108315072D01*
X131288160Y-108293991D01*
X131298548Y-108274555D01*
X131312524Y-108257524D01*
X131329555Y-108243548D01*
X131348991Y-108233160D01*
X131370072Y-108226764D01*
X131398140Y-108224000D01*
X133211860Y-108224000D01*
X133239928Y-108226764D01*
X133239928Y-108226764D01*
G37*
G36*
X138189928Y-108226764D02*
G01*
X138211009Y-108233160D01*
X138230445Y-108243548D01*
X138247476Y-108257524D01*
X138261452Y-108274555D01*
X138271840Y-108293991D01*
X138278236Y-108315072D01*
X138281000Y-108343140D01*
X138281000Y-108806860D01*
X138278236Y-108834928D01*
X138271840Y-108856009D01*
X138261452Y-108875445D01*
X138247476Y-108892476D01*
X138230445Y-108906452D01*
X138211009Y-108916840D01*
X138189928Y-108923236D01*
X138161860Y-108926000D01*
X136348140Y-108926000D01*
X136320072Y-108923236D01*
X136298991Y-108916840D01*
X136279555Y-108906452D01*
X136262524Y-108892476D01*
X136248548Y-108875445D01*
X136238160Y-108856009D01*
X136231764Y-108834928D01*
X136229000Y-108806860D01*
X136229000Y-108343140D01*
X136231764Y-108315072D01*
X136238160Y-108293991D01*
X136248548Y-108274555D01*
X136262524Y-108257524D01*
X136279555Y-108243548D01*
X136298991Y-108233160D01*
X136320072Y-108226764D01*
X136348140Y-108224000D01*
X138161860Y-108224000D01*
X138189928Y-108226764D01*
X138189928Y-108226764D01*
G37*
G36*
X126584999Y-106799737D02*
G01*
X126594608Y-106802652D01*
X126603472Y-106807390D01*
X126611212Y-106813742D01*
X126611213Y-106813743D01*
X126611237Y-106813763D01*
X126617640Y-106821573D01*
X126617677Y-106821628D01*
X126625480Y-106831147D01*
X126625511Y-106831122D01*
X126636853Y-106844972D01*
X126655779Y-106860537D01*
X126677377Y-106872111D01*
X126700819Y-106879249D01*
X126725202Y-106881676D01*
X126749591Y-106879300D01*
X126773047Y-106872211D01*
X126794670Y-106860682D01*
X126813628Y-106845157D01*
X126829193Y-106826231D01*
X126831029Y-106823175D01*
X126832418Y-106821486D01*
X126832419Y-106821484D01*
X126838801Y-106813725D01*
X126846573Y-106807360D01*
X126846575Y-106807358D01*
X126855399Y-106802654D01*
X126855438Y-106802633D01*
X126865055Y-106799727D01*
X126865085Y-106799718D01*
X126881113Y-106798148D01*
X128018860Y-106798148D01*
X128034999Y-106799737D01*
X128044608Y-106802652D01*
X128053472Y-106807390D01*
X128061237Y-106813763D01*
X128067610Y-106821528D01*
X128072348Y-106830392D01*
X128075263Y-106840001D01*
X128076852Y-106856140D01*
X128076852Y-108343860D01*
X128075263Y-108359999D01*
X128072348Y-108369608D01*
X128067610Y-108378472D01*
X128061237Y-108386237D01*
X128053472Y-108392610D01*
X128044608Y-108397348D01*
X128034999Y-108400263D01*
X128018860Y-108401852D01*
X126881140Y-108401852D01*
X126865001Y-108400263D01*
X126855392Y-108397348D01*
X126846528Y-108392610D01*
X126838763Y-108386237D01*
X126828116Y-108373263D01*
X126821947Y-108364032D01*
X126804619Y-108346706D01*
X126784244Y-108333093D01*
X126761605Y-108323717D01*
X126737572Y-108318937D01*
X126713068Y-108318938D01*
X126689035Y-108323720D01*
X126666396Y-108333098D01*
X126646022Y-108346713D01*
X126628696Y-108364041D01*
X126621825Y-108373317D01*
X126617640Y-108378427D01*
X126611275Y-108386199D01*
X126603516Y-108392581D01*
X126594661Y-108397326D01*
X126591623Y-108398251D01*
X126585085Y-108400242D01*
X126585082Y-108400242D01*
X126585050Y-108400252D01*
X126575000Y-108401247D01*
X126574935Y-108401247D01*
X126568825Y-108401852D01*
X125581140Y-108401852D01*
X125565001Y-108400263D01*
X125555392Y-108397348D01*
X125546528Y-108392610D01*
X125538763Y-108386237D01*
X125532390Y-108378472D01*
X125527652Y-108369608D01*
X125524737Y-108359999D01*
X125523148Y-108343860D01*
X125523148Y-106856140D01*
X125524737Y-106840001D01*
X125527652Y-106830392D01*
X125532390Y-106821528D01*
X125538763Y-106813763D01*
X125546528Y-106807390D01*
X125555392Y-106802652D01*
X125565001Y-106799737D01*
X125581140Y-106798148D01*
X126568860Y-106798148D01*
X126584999Y-106799737D01*
X126584999Y-106799737D01*
G37*
G36*
X132156591Y-105898085D02*
G01*
X132190569Y-105908393D01*
X132221890Y-105925134D01*
X132249339Y-105947661D01*
X132271866Y-105975110D01*
X132288607Y-106006431D01*
X132298915Y-106040409D01*
X132303000Y-106081890D01*
X132303000Y-106758110D01*
X132298915Y-106799591D01*
X132288607Y-106833569D01*
X132271866Y-106864890D01*
X132249339Y-106892339D01*
X132221890Y-106914866D01*
X132190569Y-106931607D01*
X132156591Y-106941915D01*
X132115110Y-106946000D01*
X131513890Y-106946000D01*
X131472409Y-106941915D01*
X131438431Y-106931607D01*
X131407110Y-106914866D01*
X131379661Y-106892339D01*
X131357134Y-106864890D01*
X131340393Y-106833569D01*
X131330085Y-106799591D01*
X131326000Y-106758110D01*
X131326000Y-106081890D01*
X131330085Y-106040409D01*
X131340393Y-106006431D01*
X131357134Y-105975110D01*
X131379661Y-105947661D01*
X131407110Y-105925134D01*
X131438431Y-105908393D01*
X131472409Y-105898085D01*
X131513890Y-105894000D01*
X132115110Y-105894000D01*
X132156591Y-105898085D01*
X132156591Y-105898085D01*
G37*
G36*
X133731591Y-105898085D02*
G01*
X133765569Y-105908393D01*
X133796890Y-105925134D01*
X133824339Y-105947661D01*
X133846866Y-105975110D01*
X133863607Y-106006431D01*
X133873915Y-106040409D01*
X133878000Y-106081890D01*
X133878000Y-106758110D01*
X133873915Y-106799591D01*
X133863607Y-106833569D01*
X133846866Y-106864890D01*
X133824339Y-106892339D01*
X133796890Y-106914866D01*
X133765569Y-106931607D01*
X133731591Y-106941915D01*
X133690110Y-106946000D01*
X133088890Y-106946000D01*
X133047409Y-106941915D01*
X133013431Y-106931607D01*
X132982110Y-106914866D01*
X132954661Y-106892339D01*
X132932134Y-106864890D01*
X132915393Y-106833569D01*
X132905085Y-106799591D01*
X132901000Y-106758110D01*
X132901000Y-106081890D01*
X132905085Y-106040409D01*
X132915393Y-106006431D01*
X132932134Y-105975110D01*
X132954661Y-105947661D01*
X132982110Y-105925134D01*
X133013431Y-105908393D01*
X133047409Y-105898085D01*
X133088890Y-105894000D01*
X133690110Y-105894000D01*
X133731591Y-105898085D01*
X133731591Y-105898085D01*
G37*
G36*
X138087591Y-105878085D02*
G01*
X138121569Y-105888393D01*
X138152890Y-105905134D01*
X138180339Y-105927661D01*
X138202866Y-105955110D01*
X138219607Y-105986431D01*
X138229915Y-106020409D01*
X138234000Y-106061890D01*
X138234000Y-106738110D01*
X138229915Y-106779591D01*
X138219607Y-106813569D01*
X138202866Y-106844890D01*
X138180339Y-106872339D01*
X138152890Y-106894866D01*
X138121569Y-106911607D01*
X138087591Y-106921915D01*
X138046110Y-106926000D01*
X137444890Y-106926000D01*
X137403409Y-106921915D01*
X137369431Y-106911607D01*
X137338110Y-106894866D01*
X137310661Y-106872339D01*
X137288134Y-106844890D01*
X137271393Y-106813569D01*
X137261085Y-106779591D01*
X137257000Y-106738110D01*
X137257000Y-106061890D01*
X137261085Y-106020409D01*
X137271393Y-105986431D01*
X137288134Y-105955110D01*
X137310661Y-105927661D01*
X137338110Y-105905134D01*
X137369431Y-105888393D01*
X137403409Y-105878085D01*
X137444890Y-105874000D01*
X138046110Y-105874000D01*
X138087591Y-105878085D01*
X138087591Y-105878085D01*
G37*
G36*
X136512591Y-105878085D02*
G01*
X136546569Y-105888393D01*
X136577890Y-105905134D01*
X136605339Y-105927661D01*
X136627866Y-105955110D01*
X136644607Y-105986431D01*
X136654915Y-106020409D01*
X136659000Y-106061890D01*
X136659000Y-106738110D01*
X136654915Y-106779591D01*
X136644607Y-106813569D01*
X136627866Y-106844890D01*
X136605339Y-106872339D01*
X136577890Y-106894866D01*
X136546569Y-106911607D01*
X136512591Y-106921915D01*
X136471110Y-106926000D01*
X135869890Y-106926000D01*
X135828409Y-106921915D01*
X135794431Y-106911607D01*
X135763110Y-106894866D01*
X135735661Y-106872339D01*
X135713134Y-106844890D01*
X135696393Y-106813569D01*
X135686085Y-106779591D01*
X135682000Y-106738110D01*
X135682000Y-106061890D01*
X135686085Y-106020409D01*
X135696393Y-105986431D01*
X135713134Y-105955110D01*
X135735661Y-105927661D01*
X135763110Y-105905134D01*
X135794431Y-105888393D01*
X135828409Y-105878085D01*
X135869890Y-105874000D01*
X136471110Y-105874000D01*
X136512591Y-105878085D01*
X136512591Y-105878085D01*
G37*
G36*
X127060721Y-104070174D02*
G01*
X127160995Y-104111709D01*
X127160996Y-104111710D01*
X127251242Y-104172010D01*
X127327990Y-104248758D01*
X127327991Y-104248760D01*
X127388291Y-104339005D01*
X127429826Y-104439279D01*
X127451000Y-104545730D01*
X127451000Y-104654270D01*
X127429826Y-104760721D01*
X127388291Y-104860995D01*
X127388290Y-104860996D01*
X127327990Y-104951242D01*
X127251242Y-105027990D01*
X127205812Y-105058345D01*
X127160995Y-105088291D01*
X127060721Y-105129826D01*
X126954270Y-105151000D01*
X126845730Y-105151000D01*
X126739279Y-105129826D01*
X126639005Y-105088291D01*
X126594188Y-105058345D01*
X126548758Y-105027990D01*
X126472010Y-104951242D01*
X126411710Y-104860996D01*
X126411709Y-104860995D01*
X126370174Y-104760721D01*
X126349000Y-104654270D01*
X126349000Y-104545730D01*
X126370174Y-104439279D01*
X126411709Y-104339005D01*
X126472009Y-104248760D01*
X126472010Y-104248758D01*
X126548758Y-104172010D01*
X126639004Y-104111710D01*
X126639005Y-104111709D01*
X126739279Y-104070174D01*
X126845730Y-104049000D01*
X126954270Y-104049000D01*
X127060721Y-104070174D01*
X127060721Y-104070174D01*
G37*
G36*
X141344591Y-103660085D02*
G01*
X141378569Y-103670393D01*
X141409890Y-103687134D01*
X141437339Y-103709661D01*
X141459866Y-103737110D01*
X141476607Y-103768431D01*
X141486915Y-103802409D01*
X141491000Y-103843890D01*
X141491000Y-104520110D01*
X141486915Y-104561591D01*
X141476607Y-104595569D01*
X141459866Y-104626890D01*
X141437339Y-104654339D01*
X141409890Y-104676866D01*
X141378569Y-104693607D01*
X141344591Y-104703915D01*
X141303110Y-104708000D01*
X140701890Y-104708000D01*
X140660409Y-104703915D01*
X140626431Y-104693607D01*
X140595110Y-104676866D01*
X140567661Y-104654339D01*
X140545134Y-104626890D01*
X140528393Y-104595569D01*
X140518085Y-104561591D01*
X140514000Y-104520110D01*
X140514000Y-103843890D01*
X140518085Y-103802409D01*
X140528393Y-103768431D01*
X140545134Y-103737110D01*
X140567661Y-103709661D01*
X140595110Y-103687134D01*
X140626431Y-103670393D01*
X140660409Y-103660085D01*
X140701890Y-103656000D01*
X141303110Y-103656000D01*
X141344591Y-103660085D01*
X141344591Y-103660085D01*
G37*
G36*
X146755591Y-103660085D02*
G01*
X146789569Y-103670393D01*
X146820890Y-103687134D01*
X146848339Y-103709661D01*
X146870866Y-103737110D01*
X146887607Y-103768431D01*
X146897915Y-103802409D01*
X146902000Y-103843890D01*
X146902000Y-104520110D01*
X146897915Y-104561591D01*
X146887607Y-104595569D01*
X146870866Y-104626890D01*
X146848339Y-104654339D01*
X146820890Y-104676866D01*
X146789569Y-104693607D01*
X146755591Y-104703915D01*
X146714110Y-104708000D01*
X146112890Y-104708000D01*
X146071409Y-104703915D01*
X146037431Y-104693607D01*
X146006110Y-104676866D01*
X145978661Y-104654339D01*
X145956134Y-104626890D01*
X145939393Y-104595569D01*
X145929085Y-104561591D01*
X145925000Y-104520110D01*
X145925000Y-103843890D01*
X145929085Y-103802409D01*
X145939393Y-103768431D01*
X145956134Y-103737110D01*
X145978661Y-103709661D01*
X146006110Y-103687134D01*
X146037431Y-103670393D01*
X146071409Y-103660085D01*
X146112890Y-103656000D01*
X146714110Y-103656000D01*
X146755591Y-103660085D01*
X146755591Y-103660085D01*
G37*
G36*
X145180591Y-103660085D02*
G01*
X145214569Y-103670393D01*
X145245890Y-103687134D01*
X145273339Y-103709661D01*
X145295866Y-103737110D01*
X145312607Y-103768431D01*
X145322915Y-103802409D01*
X145327000Y-103843890D01*
X145327000Y-104520110D01*
X145322915Y-104561591D01*
X145312607Y-104595569D01*
X145295866Y-104626890D01*
X145273339Y-104654339D01*
X145245890Y-104676866D01*
X145214569Y-104693607D01*
X145180591Y-104703915D01*
X145139110Y-104708000D01*
X144537890Y-104708000D01*
X144496409Y-104703915D01*
X144462431Y-104693607D01*
X144431110Y-104676866D01*
X144403661Y-104654339D01*
X144381134Y-104626890D01*
X144364393Y-104595569D01*
X144354085Y-104561591D01*
X144350000Y-104520110D01*
X144350000Y-103843890D01*
X144354085Y-103802409D01*
X144364393Y-103768431D01*
X144381134Y-103737110D01*
X144403661Y-103709661D01*
X144431110Y-103687134D01*
X144462431Y-103670393D01*
X144496409Y-103660085D01*
X144537890Y-103656000D01*
X145139110Y-103656000D01*
X145180591Y-103660085D01*
X145180591Y-103660085D01*
G37*
G36*
X142919591Y-103660085D02*
G01*
X142953569Y-103670393D01*
X142984890Y-103687134D01*
X143012339Y-103709661D01*
X143034866Y-103737110D01*
X143051607Y-103768431D01*
X143061915Y-103802409D01*
X143066000Y-103843890D01*
X143066000Y-104520110D01*
X143061915Y-104561591D01*
X143051607Y-104595569D01*
X143034866Y-104626890D01*
X143012339Y-104654339D01*
X142984890Y-104676866D01*
X142953569Y-104693607D01*
X142919591Y-104703915D01*
X142878110Y-104708000D01*
X142276890Y-104708000D01*
X142235409Y-104703915D01*
X142201431Y-104693607D01*
X142170110Y-104676866D01*
X142142661Y-104654339D01*
X142120134Y-104626890D01*
X142103393Y-104595569D01*
X142093085Y-104561591D01*
X142089000Y-104520110D01*
X142089000Y-103843890D01*
X142093085Y-103802409D01*
X142103393Y-103768431D01*
X142120134Y-103737110D01*
X142142661Y-103709661D01*
X142170110Y-103687134D01*
X142201431Y-103670393D01*
X142235409Y-103660085D01*
X142276890Y-103656000D01*
X142878110Y-103656000D01*
X142919591Y-103660085D01*
X142919591Y-103660085D01*
G37*
G36*
X129814468Y-103589565D02*
G01*
X129853138Y-103601296D01*
X129888777Y-103620346D01*
X129920017Y-103645983D01*
X129945654Y-103677223D01*
X129964704Y-103712862D01*
X129976435Y-103751532D01*
X129981000Y-103797888D01*
X129981000Y-104449112D01*
X129976435Y-104495468D01*
X129964704Y-104534138D01*
X129945654Y-104569777D01*
X129920017Y-104601017D01*
X129888777Y-104626654D01*
X129853138Y-104645704D01*
X129814468Y-104657435D01*
X129768112Y-104662000D01*
X128691888Y-104662000D01*
X128645532Y-104657435D01*
X128606862Y-104645704D01*
X128571223Y-104626654D01*
X128539983Y-104601017D01*
X128514346Y-104569777D01*
X128495296Y-104534138D01*
X128483565Y-104495468D01*
X128479000Y-104449112D01*
X128479000Y-103797888D01*
X128483565Y-103751532D01*
X128495296Y-103712862D01*
X128514346Y-103677223D01*
X128539983Y-103645983D01*
X128571223Y-103620346D01*
X128606862Y-103601296D01*
X128645532Y-103589565D01*
X128691888Y-103585000D01*
X129768112Y-103585000D01*
X129814468Y-103589565D01*
X129814468Y-103589565D01*
G37*
G36*
X137434468Y-103589565D02*
G01*
X137473138Y-103601296D01*
X137508777Y-103620346D01*
X137540017Y-103645983D01*
X137565654Y-103677223D01*
X137584704Y-103712862D01*
X137596435Y-103751532D01*
X137601000Y-103797888D01*
X137601000Y-104449112D01*
X137596435Y-104495468D01*
X137584704Y-104534138D01*
X137565654Y-104569777D01*
X137540017Y-104601017D01*
X137508777Y-104626654D01*
X137473138Y-104645704D01*
X137434468Y-104657435D01*
X137388112Y-104662000D01*
X136311888Y-104662000D01*
X136265532Y-104657435D01*
X136226862Y-104645704D01*
X136191223Y-104626654D01*
X136159983Y-104601017D01*
X136134346Y-104569777D01*
X136115296Y-104534138D01*
X136103565Y-104495468D01*
X136099000Y-104449112D01*
X136099000Y-103797888D01*
X136103565Y-103751532D01*
X136115296Y-103712862D01*
X136134346Y-103677223D01*
X136159983Y-103645983D01*
X136191223Y-103620346D01*
X136226862Y-103601296D01*
X136265532Y-103589565D01*
X136311888Y-103585000D01*
X137388112Y-103585000D01*
X137434468Y-103589565D01*
X137434468Y-103589565D01*
G37*
G36*
X123375256Y-101391298D02*
G01*
X123481579Y-101412447D01*
X123782042Y-101536903D01*
X124052451Y-101717585D01*
X124282415Y-101947549D01*
X124463097Y-102217958D01*
X124574998Y-102488110D01*
X124587553Y-102518422D01*
X124639948Y-102781826D01*
X124651000Y-102837391D01*
X124651000Y-103162609D01*
X124587553Y-103481579D01*
X124502409Y-103687134D01*
X124481709Y-103737110D01*
X124463097Y-103782042D01*
X124282415Y-104052451D01*
X124052451Y-104282415D01*
X123782042Y-104463097D01*
X123481579Y-104587553D01*
X123375256Y-104608702D01*
X123162611Y-104651000D01*
X122837389Y-104651000D01*
X122624744Y-104608702D01*
X122518421Y-104587553D01*
X122217958Y-104463097D01*
X121947549Y-104282415D01*
X121717585Y-104052451D01*
X121536903Y-103782042D01*
X121518292Y-103737110D01*
X121497591Y-103687134D01*
X121412447Y-103481579D01*
X121349000Y-103162609D01*
X121349000Y-102837391D01*
X121360053Y-102781826D01*
X121412447Y-102518422D01*
X121425003Y-102488110D01*
X121536903Y-102217958D01*
X121717585Y-101947549D01*
X121947549Y-101717585D01*
X122217958Y-101536903D01*
X122518421Y-101412447D01*
X122624744Y-101391298D01*
X122837389Y-101349000D01*
X123162611Y-101349000D01*
X123375256Y-101391298D01*
X123375256Y-101391298D01*
G37*
G36*
X134721000Y-104512000D02*
G01*
X133559000Y-104512000D01*
X133559000Y-103760000D01*
X134721000Y-103760000D01*
X134721000Y-104512000D01*
X134721000Y-104512000D01*
G37*
G36*
X132521000Y-104512000D02*
G01*
X131359000Y-104512000D01*
X131359000Y-101860000D01*
X132521000Y-101860000D01*
X132521000Y-104512000D01*
X132521000Y-104512000D01*
G37*
G36*
X129814468Y-101714565D02*
G01*
X129853138Y-101726296D01*
X129888777Y-101745346D01*
X129920017Y-101770983D01*
X129945654Y-101802223D01*
X129964704Y-101837862D01*
X129976435Y-101876532D01*
X129981000Y-101922888D01*
X129981000Y-102574112D01*
X129976435Y-102620468D01*
X129964704Y-102659138D01*
X129945654Y-102694777D01*
X129920017Y-102726017D01*
X129888777Y-102751654D01*
X129853138Y-102770704D01*
X129814468Y-102782435D01*
X129768112Y-102787000D01*
X128691888Y-102787000D01*
X128645532Y-102782435D01*
X128606862Y-102770704D01*
X128571223Y-102751654D01*
X128539983Y-102726017D01*
X128514346Y-102694777D01*
X128495296Y-102659138D01*
X128483565Y-102620468D01*
X128479000Y-102574112D01*
X128479000Y-101922888D01*
X128483565Y-101876532D01*
X128495296Y-101837862D01*
X128514346Y-101802223D01*
X128539983Y-101770983D01*
X128571223Y-101745346D01*
X128606862Y-101726296D01*
X128645532Y-101714565D01*
X128691888Y-101710000D01*
X129768112Y-101710000D01*
X129814468Y-101714565D01*
X129814468Y-101714565D01*
G37*
G36*
X137434468Y-101714565D02*
G01*
X137473138Y-101726296D01*
X137508777Y-101745346D01*
X137540017Y-101770983D01*
X137565654Y-101802223D01*
X137584704Y-101837862D01*
X137596435Y-101876532D01*
X137601000Y-101922888D01*
X137601000Y-102574112D01*
X137596435Y-102620468D01*
X137584704Y-102659138D01*
X137565654Y-102694777D01*
X137540017Y-102726017D01*
X137508777Y-102751654D01*
X137473138Y-102770704D01*
X137434468Y-102782435D01*
X137388112Y-102787000D01*
X136311888Y-102787000D01*
X136265532Y-102782435D01*
X136226862Y-102770704D01*
X136191223Y-102751654D01*
X136159983Y-102726017D01*
X136134346Y-102694777D01*
X136115296Y-102659138D01*
X136103565Y-102620468D01*
X136099000Y-102574112D01*
X136099000Y-101922888D01*
X136103565Y-101876532D01*
X136115296Y-101837862D01*
X136134346Y-101802223D01*
X136159983Y-101770983D01*
X136191223Y-101745346D01*
X136226862Y-101726296D01*
X136265532Y-101714565D01*
X136311888Y-101710000D01*
X137388112Y-101710000D01*
X137434468Y-101714565D01*
X137434468Y-101714565D01*
G37*
G36*
X146729591Y-101628085D02*
G01*
X146763569Y-101638393D01*
X146794890Y-101655134D01*
X146822339Y-101677661D01*
X146844866Y-101705110D01*
X146861607Y-101736431D01*
X146871915Y-101770409D01*
X146876000Y-101811890D01*
X146876000Y-102488110D01*
X146871915Y-102529591D01*
X146861607Y-102563569D01*
X146844866Y-102594890D01*
X146822339Y-102622339D01*
X146794890Y-102644866D01*
X146763569Y-102661607D01*
X146729591Y-102671915D01*
X146688110Y-102676000D01*
X146086890Y-102676000D01*
X146045409Y-102671915D01*
X146011431Y-102661607D01*
X145980110Y-102644866D01*
X145952661Y-102622339D01*
X145930134Y-102594890D01*
X145913393Y-102563569D01*
X145903085Y-102529591D01*
X145899000Y-102488110D01*
X145899000Y-101811890D01*
X145903085Y-101770409D01*
X145913393Y-101736431D01*
X145930134Y-101705110D01*
X145952661Y-101677661D01*
X145980110Y-101655134D01*
X146011431Y-101638393D01*
X146045409Y-101628085D01*
X146086890Y-101624000D01*
X146688110Y-101624000D01*
X146729591Y-101628085D01*
X146729591Y-101628085D01*
G37*
G36*
X145154591Y-101628085D02*
G01*
X145188569Y-101638393D01*
X145219890Y-101655134D01*
X145247339Y-101677661D01*
X145269866Y-101705110D01*
X145286607Y-101736431D01*
X145296915Y-101770409D01*
X145301000Y-101811890D01*
X145301000Y-102488110D01*
X145296915Y-102529591D01*
X145286607Y-102563569D01*
X145269866Y-102594890D01*
X145247339Y-102622339D01*
X145219890Y-102644866D01*
X145188569Y-102661607D01*
X145154591Y-102671915D01*
X145113110Y-102676000D01*
X144511890Y-102676000D01*
X144470409Y-102671915D01*
X144436431Y-102661607D01*
X144405110Y-102644866D01*
X144377661Y-102622339D01*
X144355134Y-102594890D01*
X144338393Y-102563569D01*
X144328085Y-102529591D01*
X144324000Y-102488110D01*
X144324000Y-101811890D01*
X144328085Y-101770409D01*
X144338393Y-101736431D01*
X144355134Y-101705110D01*
X144377661Y-101677661D01*
X144405110Y-101655134D01*
X144436431Y-101638393D01*
X144470409Y-101628085D01*
X144511890Y-101624000D01*
X145113110Y-101624000D01*
X145154591Y-101628085D01*
X145154591Y-101628085D01*
G37*
G36*
X142945591Y-101628085D02*
G01*
X142979569Y-101638393D01*
X143010890Y-101655134D01*
X143038339Y-101677661D01*
X143060866Y-101705110D01*
X143077607Y-101736431D01*
X143087915Y-101770409D01*
X143092000Y-101811890D01*
X143092000Y-102488110D01*
X143087915Y-102529591D01*
X143077607Y-102563569D01*
X143060866Y-102594890D01*
X143038339Y-102622339D01*
X143010890Y-102644866D01*
X142979569Y-102661607D01*
X142945591Y-102671915D01*
X142904110Y-102676000D01*
X142302890Y-102676000D01*
X142261409Y-102671915D01*
X142227431Y-102661607D01*
X142196110Y-102644866D01*
X142168661Y-102622339D01*
X142146134Y-102594890D01*
X142129393Y-102563569D01*
X142119085Y-102529591D01*
X142115000Y-102488110D01*
X142115000Y-101811890D01*
X142119085Y-101770409D01*
X142129393Y-101736431D01*
X142146134Y-101705110D01*
X142168661Y-101677661D01*
X142196110Y-101655134D01*
X142227431Y-101638393D01*
X142261409Y-101628085D01*
X142302890Y-101624000D01*
X142904110Y-101624000D01*
X142945591Y-101628085D01*
X142945591Y-101628085D01*
G37*
G36*
X141370591Y-101628085D02*
G01*
X141404569Y-101638393D01*
X141435890Y-101655134D01*
X141463339Y-101677661D01*
X141485866Y-101705110D01*
X141502607Y-101736431D01*
X141512915Y-101770409D01*
X141517000Y-101811890D01*
X141517000Y-102488110D01*
X141512915Y-102529591D01*
X141502607Y-102563569D01*
X141485866Y-102594890D01*
X141463339Y-102622339D01*
X141435890Y-102644866D01*
X141404569Y-102661607D01*
X141370591Y-102671915D01*
X141329110Y-102676000D01*
X140727890Y-102676000D01*
X140686409Y-102671915D01*
X140652431Y-102661607D01*
X140621110Y-102644866D01*
X140593661Y-102622339D01*
X140571134Y-102594890D01*
X140554393Y-102563569D01*
X140544085Y-102529591D01*
X140540000Y-102488110D01*
X140540000Y-101811890D01*
X140544085Y-101770409D01*
X140554393Y-101736431D01*
X140571134Y-101705110D01*
X140593661Y-101677661D01*
X140621110Y-101655134D01*
X140652431Y-101638393D01*
X140686409Y-101628085D01*
X140727890Y-101624000D01*
X141329110Y-101624000D01*
X141370591Y-101628085D01*
X141370591Y-101628085D01*
G37*
G36*
X134721000Y-102612000D02*
G01*
X133559000Y-102612000D01*
X133559000Y-101860000D01*
X134721000Y-101860000D01*
X134721000Y-102612000D01*
X134721000Y-102612000D01*
G37*
M02*
