G04 #@! TF.GenerationSoftware,KiCad,Pcbnew,(5.1.2)-1*
G04 #@! TF.CreationDate,2022-10-08T12:37:54+09:00*
G04 #@! TF.ProjectId,thamp,7468616d-702e-46b6-9963-61645f706362,v1.2*
G04 #@! TF.SameCoordinates,Original*
G04 #@! TF.FileFunction,Copper,L2,Bot*
G04 #@! TF.FilePolarity,Positive*
%FSLAX46Y46*%
G04 Gerber Fmt 4.6, Leading zero omitted, Abs format (unit mm)*
G04 Created by KiCad (PCBNEW (5.1.2)-1) date 2022-10-08 12:37:54*
%MOMM*%
%LPD*%
G04 APERTURE LIST*
%ADD10C,1.000000*%
%ADD11O,1.700000X1.700000*%
%ADD12R,1.700000X1.700000*%
%ADD13C,3.000000*%
%ADD14R,3.000000X3.000000*%
%ADD15C,0.800000*%
%ADD16C,0.300000*%
%ADD17C,0.254000*%
G04 APERTURE END LIST*
D10*
X126900000Y-104600000D03*
D11*
X137110000Y-123460000D03*
X134570000Y-123460000D03*
X132030000Y-123460000D03*
D12*
X129490000Y-123460000D03*
D13*
X150930000Y-115470000D03*
D14*
X150930000Y-110390000D03*
D11*
X121840000Y-115660000D03*
X121840000Y-113120000D03*
D12*
X121840000Y-110580000D03*
D15*
X131310300Y-117945000D03*
X147410000Y-117930000D03*
X147210000Y-112940000D03*
X140030000Y-120920000D03*
X122560000Y-107000000D03*
X139410000Y-105410000D03*
X130250000Y-107120000D03*
X148758000Y-104182000D03*
X152400000Y-122660000D03*
X131583175Y-113726256D03*
X125400000Y-111700000D03*
X131314500Y-119135200D03*
X123500000Y-117500000D03*
X138897100Y-122918000D03*
X134950600Y-119320100D03*
X142500000Y-106400000D03*
X130241100Y-115634400D03*
X125695000Y-109058900D03*
X133800000Y-113600000D03*
D16*
X134570000Y-123460000D02*
X134570000Y-122209700D01*
X131310300Y-117945000D02*
X134510000Y-121144700D01*
X134510000Y-121144700D02*
X134510000Y-122149700D01*
X134510000Y-122149700D02*
X134570000Y-122209700D01*
X123090300Y-115660000D02*
X125375300Y-117945000D01*
X125375300Y-117945000D02*
X131310300Y-117945000D01*
X121840000Y-115660000D02*
X123090300Y-115660000D01*
X147410000Y-117930000D02*
X147410000Y-113140000D01*
X147410000Y-113140000D02*
X147210000Y-112940000D01*
X130250000Y-107120000D02*
X130250000Y-112393081D01*
X130250000Y-112393081D02*
X131583175Y-113726256D01*
X129490000Y-122209700D02*
X131314500Y-120385200D01*
X131314500Y-120385200D02*
X131314500Y-119135200D01*
X129490000Y-123460000D02*
X129490000Y-122209700D01*
X125135200Y-119135200D02*
X131314500Y-119135200D01*
X123500000Y-117500000D02*
X125135200Y-119135200D01*
X123090300Y-113120000D02*
X127089200Y-117118900D01*
X127089200Y-117118900D02*
X131617700Y-117118900D01*
X131617700Y-117118900D02*
X134891500Y-120392700D01*
X134891500Y-120392700D02*
X136371800Y-120392700D01*
X136371800Y-120392700D02*
X138897100Y-122918000D01*
X121840000Y-113120000D02*
X123090300Y-113120000D01*
X142100001Y-106799999D02*
X142500000Y-106400000D01*
X134950600Y-113949400D02*
X142100001Y-106799999D01*
X134950600Y-119320100D02*
X134950600Y-113949400D01*
X125695000Y-109058900D02*
X130241100Y-113605000D01*
X130241100Y-113605000D02*
X130241100Y-115634400D01*
X127700000Y-104600000D02*
X126900000Y-104600000D01*
X128914002Y-104600000D02*
X127700000Y-104600000D01*
X133800000Y-109485998D02*
X128914002Y-104600000D01*
X133800000Y-113600000D02*
X133800000Y-109485998D01*
D17*
G36*
X126506853Y-117646710D02*
G01*
X126531436Y-117676664D01*
X126650967Y-117774762D01*
X126787340Y-117847654D01*
X126935313Y-117892542D01*
X127010226Y-117899920D01*
X127050639Y-117903900D01*
X127050644Y-117903900D01*
X127089200Y-117907697D01*
X127127756Y-117903900D01*
X131292543Y-117903900D01*
X131506821Y-118118178D01*
X131416439Y-118100200D01*
X131212561Y-118100200D01*
X131012602Y-118139974D01*
X130824244Y-118217995D01*
X130654726Y-118331263D01*
X130635789Y-118350200D01*
X125460358Y-118350200D01*
X124535000Y-117424843D01*
X124535000Y-117398061D01*
X124495226Y-117198102D01*
X124417205Y-117009744D01*
X124303937Y-116840226D01*
X124159774Y-116696063D01*
X123990256Y-116582795D01*
X123801898Y-116504774D01*
X123601939Y-116465000D01*
X123398061Y-116465000D01*
X123198102Y-116504774D01*
X123009744Y-116582795D01*
X122981099Y-116601935D01*
X123111641Y-116426920D01*
X123236825Y-116164099D01*
X123281476Y-116016890D01*
X123160155Y-115787000D01*
X121967000Y-115787000D01*
X121967000Y-116980814D01*
X122196891Y-117101481D01*
X122471252Y-117004157D01*
X122662745Y-116890090D01*
X122582795Y-117009744D01*
X122504774Y-117198102D01*
X122465000Y-117398061D01*
X122465000Y-117601939D01*
X122504774Y-117801898D01*
X122582795Y-117990256D01*
X122696063Y-118159774D01*
X122840226Y-118303937D01*
X123009744Y-118417205D01*
X123198102Y-118495226D01*
X123398061Y-118535000D01*
X123424843Y-118535000D01*
X124552858Y-119663016D01*
X124577436Y-119692964D01*
X124607384Y-119717542D01*
X124607387Y-119717545D01*
X124621758Y-119729339D01*
X124696967Y-119791062D01*
X124833340Y-119863954D01*
X124981313Y-119908841D01*
X125096639Y-119920200D01*
X125096646Y-119920200D01*
X125135199Y-119923997D01*
X125173752Y-119920200D01*
X130529500Y-119920200D01*
X130529500Y-120060043D01*
X128962185Y-121627358D01*
X128932237Y-121651936D01*
X128907659Y-121681884D01*
X128907655Y-121681888D01*
X128874690Y-121722056D01*
X128834139Y-121771467D01*
X128795177Y-121844360D01*
X128761246Y-121907841D01*
X128741805Y-121971928D01*
X128640000Y-121971928D01*
X128515518Y-121984188D01*
X128395820Y-122020498D01*
X128285506Y-122079463D01*
X128188815Y-122158815D01*
X128109463Y-122255506D01*
X128050498Y-122365820D01*
X128014188Y-122485518D01*
X128001928Y-122610000D01*
X128001928Y-124310000D01*
X128004883Y-124340000D01*
X121032279Y-124340000D01*
X120934576Y-124330420D01*
X120871643Y-124311420D01*
X120813594Y-124280554D01*
X120762657Y-124239011D01*
X120720752Y-124188356D01*
X120689485Y-124130529D01*
X120670044Y-124067728D01*
X120660000Y-123972165D01*
X120660000Y-121779872D01*
X120765000Y-121779872D01*
X120765000Y-122220128D01*
X120850890Y-122651925D01*
X121019369Y-123058669D01*
X121263962Y-123424729D01*
X121575271Y-123736038D01*
X121941331Y-123980631D01*
X122348075Y-124149110D01*
X122779872Y-124235000D01*
X123220128Y-124235000D01*
X123651925Y-124149110D01*
X124058669Y-123980631D01*
X124424729Y-123736038D01*
X124736038Y-123424729D01*
X124980631Y-123058669D01*
X125149110Y-122651925D01*
X125235000Y-122220128D01*
X125235000Y-121779872D01*
X125149110Y-121348075D01*
X124980631Y-120941331D01*
X124736038Y-120575271D01*
X124424729Y-120263962D01*
X124058669Y-120019369D01*
X123651925Y-119850890D01*
X123220128Y-119765000D01*
X122779872Y-119765000D01*
X122348075Y-119850890D01*
X121941331Y-120019369D01*
X121575271Y-120263962D01*
X121263962Y-120575271D01*
X121019369Y-120941331D01*
X120850890Y-121348075D01*
X120765000Y-121779872D01*
X120660000Y-121779872D01*
X120660000Y-116549781D01*
X120742412Y-116660269D01*
X120958645Y-116855178D01*
X121208748Y-117004157D01*
X121483109Y-117101481D01*
X121713000Y-116980814D01*
X121713000Y-115787000D01*
X121693000Y-115787000D01*
X121693000Y-115533000D01*
X121713000Y-115533000D01*
X121713000Y-115513000D01*
X121967000Y-115513000D01*
X121967000Y-115533000D01*
X123160155Y-115533000D01*
X123281476Y-115303110D01*
X123236825Y-115155901D01*
X123111641Y-114893080D01*
X122937588Y-114659731D01*
X122721355Y-114464822D01*
X122604477Y-114395201D01*
X122669014Y-114360706D01*
X122895134Y-114175134D01*
X122958304Y-114098161D01*
X126506853Y-117646710D01*
X126506853Y-117646710D01*
G37*
X126506853Y-117646710D02*
X126531436Y-117676664D01*
X126650967Y-117774762D01*
X126787340Y-117847654D01*
X126935313Y-117892542D01*
X127010226Y-117899920D01*
X127050639Y-117903900D01*
X127050644Y-117903900D01*
X127089200Y-117907697D01*
X127127756Y-117903900D01*
X131292543Y-117903900D01*
X131506821Y-118118178D01*
X131416439Y-118100200D01*
X131212561Y-118100200D01*
X131012602Y-118139974D01*
X130824244Y-118217995D01*
X130654726Y-118331263D01*
X130635789Y-118350200D01*
X125460358Y-118350200D01*
X124535000Y-117424843D01*
X124535000Y-117398061D01*
X124495226Y-117198102D01*
X124417205Y-117009744D01*
X124303937Y-116840226D01*
X124159774Y-116696063D01*
X123990256Y-116582795D01*
X123801898Y-116504774D01*
X123601939Y-116465000D01*
X123398061Y-116465000D01*
X123198102Y-116504774D01*
X123009744Y-116582795D01*
X122981099Y-116601935D01*
X123111641Y-116426920D01*
X123236825Y-116164099D01*
X123281476Y-116016890D01*
X123160155Y-115787000D01*
X121967000Y-115787000D01*
X121967000Y-116980814D01*
X122196891Y-117101481D01*
X122471252Y-117004157D01*
X122662745Y-116890090D01*
X122582795Y-117009744D01*
X122504774Y-117198102D01*
X122465000Y-117398061D01*
X122465000Y-117601939D01*
X122504774Y-117801898D01*
X122582795Y-117990256D01*
X122696063Y-118159774D01*
X122840226Y-118303937D01*
X123009744Y-118417205D01*
X123198102Y-118495226D01*
X123398061Y-118535000D01*
X123424843Y-118535000D01*
X124552858Y-119663016D01*
X124577436Y-119692964D01*
X124607384Y-119717542D01*
X124607387Y-119717545D01*
X124621758Y-119729339D01*
X124696967Y-119791062D01*
X124833340Y-119863954D01*
X124981313Y-119908841D01*
X125096639Y-119920200D01*
X125096646Y-119920200D01*
X125135199Y-119923997D01*
X125173752Y-119920200D01*
X130529500Y-119920200D01*
X130529500Y-120060043D01*
X128962185Y-121627358D01*
X128932237Y-121651936D01*
X128907659Y-121681884D01*
X128907655Y-121681888D01*
X128874690Y-121722056D01*
X128834139Y-121771467D01*
X128795177Y-121844360D01*
X128761246Y-121907841D01*
X128741805Y-121971928D01*
X128640000Y-121971928D01*
X128515518Y-121984188D01*
X128395820Y-122020498D01*
X128285506Y-122079463D01*
X128188815Y-122158815D01*
X128109463Y-122255506D01*
X128050498Y-122365820D01*
X128014188Y-122485518D01*
X128001928Y-122610000D01*
X128001928Y-124310000D01*
X128004883Y-124340000D01*
X121032279Y-124340000D01*
X120934576Y-124330420D01*
X120871643Y-124311420D01*
X120813594Y-124280554D01*
X120762657Y-124239011D01*
X120720752Y-124188356D01*
X120689485Y-124130529D01*
X120670044Y-124067728D01*
X120660000Y-123972165D01*
X120660000Y-121779872D01*
X120765000Y-121779872D01*
X120765000Y-122220128D01*
X120850890Y-122651925D01*
X121019369Y-123058669D01*
X121263962Y-123424729D01*
X121575271Y-123736038D01*
X121941331Y-123980631D01*
X122348075Y-124149110D01*
X122779872Y-124235000D01*
X123220128Y-124235000D01*
X123651925Y-124149110D01*
X124058669Y-123980631D01*
X124424729Y-123736038D01*
X124736038Y-123424729D01*
X124980631Y-123058669D01*
X125149110Y-122651925D01*
X125235000Y-122220128D01*
X125235000Y-121779872D01*
X125149110Y-121348075D01*
X124980631Y-120941331D01*
X124736038Y-120575271D01*
X124424729Y-120263962D01*
X124058669Y-120019369D01*
X123651925Y-119850890D01*
X123220128Y-119765000D01*
X122779872Y-119765000D01*
X122348075Y-119850890D01*
X121941331Y-120019369D01*
X121575271Y-120263962D01*
X121263962Y-120575271D01*
X121019369Y-120941331D01*
X120850890Y-121348075D01*
X120765000Y-121779872D01*
X120660000Y-121779872D01*
X120660000Y-116549781D01*
X120742412Y-116660269D01*
X120958645Y-116855178D01*
X121208748Y-117004157D01*
X121483109Y-117101481D01*
X121713000Y-116980814D01*
X121713000Y-115787000D01*
X121693000Y-115787000D01*
X121693000Y-115533000D01*
X121713000Y-115533000D01*
X121713000Y-115513000D01*
X121967000Y-115513000D01*
X121967000Y-115533000D01*
X123160155Y-115533000D01*
X123281476Y-115303110D01*
X123236825Y-115155901D01*
X123111641Y-114893080D01*
X122937588Y-114659731D01*
X122721355Y-114464822D01*
X122604477Y-114395201D01*
X122669014Y-114360706D01*
X122895134Y-114175134D01*
X122958304Y-114098161D01*
X126506853Y-117646710D01*
G36*
X154065424Y-100669580D02*
G01*
X154128356Y-100688580D01*
X154186405Y-100719445D01*
X154237343Y-100760989D01*
X154279248Y-100811644D01*
X154310515Y-100869471D01*
X154329956Y-100932272D01*
X154340000Y-101027835D01*
X154340001Y-123967711D01*
X154330420Y-124065424D01*
X154311420Y-124128357D01*
X154280554Y-124186406D01*
X154239011Y-124237343D01*
X154188356Y-124279248D01*
X154130529Y-124310515D01*
X154067728Y-124329956D01*
X153972165Y-124340000D01*
X138308863Y-124340000D01*
X138350706Y-124289014D01*
X138488599Y-124031034D01*
X138532246Y-123887149D01*
X138595202Y-123913226D01*
X138795161Y-123953000D01*
X138999039Y-123953000D01*
X139198998Y-123913226D01*
X139387356Y-123835205D01*
X139556874Y-123721937D01*
X139701037Y-123577774D01*
X139814305Y-123408256D01*
X139892326Y-123219898D01*
X139932100Y-123019939D01*
X139932100Y-122816061D01*
X139892326Y-122616102D01*
X139814305Y-122427744D01*
X139701037Y-122258226D01*
X139556874Y-122114063D01*
X139387356Y-122000795D01*
X139198998Y-121922774D01*
X138999039Y-121883000D01*
X138972257Y-121883000D01*
X136954147Y-119864890D01*
X136929564Y-119834936D01*
X136810033Y-119736838D01*
X136673660Y-119663946D01*
X136525687Y-119619059D01*
X136410361Y-119607700D01*
X136410353Y-119607700D01*
X136371800Y-119603903D01*
X136333247Y-119607700D01*
X135948670Y-119607700D01*
X135985600Y-119422039D01*
X135985600Y-119218161D01*
X135945826Y-119018202D01*
X135867805Y-118829844D01*
X135754537Y-118660326D01*
X135735600Y-118641389D01*
X135735600Y-115259721D01*
X148795000Y-115259721D01*
X148795000Y-115680279D01*
X148877047Y-116092756D01*
X149037988Y-116481302D01*
X149271637Y-116830983D01*
X149569017Y-117128363D01*
X149918698Y-117362012D01*
X150307244Y-117522953D01*
X150719721Y-117605000D01*
X151140279Y-117605000D01*
X151552756Y-117522953D01*
X151941302Y-117362012D01*
X152290983Y-117128363D01*
X152588363Y-116830983D01*
X152822012Y-116481302D01*
X152982953Y-116092756D01*
X153065000Y-115680279D01*
X153065000Y-115259721D01*
X152982953Y-114847244D01*
X152822012Y-114458698D01*
X152588363Y-114109017D01*
X152290983Y-113811637D01*
X151941302Y-113577988D01*
X151552756Y-113417047D01*
X151140279Y-113335000D01*
X150719721Y-113335000D01*
X150307244Y-113417047D01*
X149918698Y-113577988D01*
X149569017Y-113811637D01*
X149271637Y-114109017D01*
X149037988Y-114458698D01*
X148877047Y-114847244D01*
X148795000Y-115259721D01*
X135735600Y-115259721D01*
X135735600Y-114274557D01*
X141120157Y-108890000D01*
X148791928Y-108890000D01*
X148791928Y-111890000D01*
X148804188Y-112014482D01*
X148840498Y-112134180D01*
X148899463Y-112244494D01*
X148978815Y-112341185D01*
X149075506Y-112420537D01*
X149185820Y-112479502D01*
X149305518Y-112515812D01*
X149430000Y-112528072D01*
X152430000Y-112528072D01*
X152554482Y-112515812D01*
X152674180Y-112479502D01*
X152784494Y-112420537D01*
X152881185Y-112341185D01*
X152960537Y-112244494D01*
X153019502Y-112134180D01*
X153055812Y-112014482D01*
X153068072Y-111890000D01*
X153068072Y-108890000D01*
X153055812Y-108765518D01*
X153019502Y-108645820D01*
X152960537Y-108535506D01*
X152881185Y-108438815D01*
X152784494Y-108359463D01*
X152674180Y-108300498D01*
X152554482Y-108264188D01*
X152430000Y-108251928D01*
X149430000Y-108251928D01*
X149305518Y-108264188D01*
X149185820Y-108300498D01*
X149075506Y-108359463D01*
X148978815Y-108438815D01*
X148899463Y-108535506D01*
X148840498Y-108645820D01*
X148804188Y-108765518D01*
X148791928Y-108890000D01*
X141120157Y-108890000D01*
X142575157Y-107435000D01*
X142601939Y-107435000D01*
X142801898Y-107395226D01*
X142990256Y-107317205D01*
X143159774Y-107203937D01*
X143303937Y-107059774D01*
X143417205Y-106890256D01*
X143495226Y-106701898D01*
X143535000Y-106501939D01*
X143535000Y-106298061D01*
X143495226Y-106098102D01*
X143417205Y-105909744D01*
X143303937Y-105740226D01*
X143159774Y-105596063D01*
X142990256Y-105482795D01*
X142801898Y-105404774D01*
X142601939Y-105365000D01*
X142398061Y-105365000D01*
X142198102Y-105404774D01*
X142009744Y-105482795D01*
X141840226Y-105596063D01*
X141696063Y-105740226D01*
X141582795Y-105909744D01*
X141504774Y-106098102D01*
X141465000Y-106298061D01*
X141465000Y-106324843D01*
X134702342Y-113087501D01*
X134603937Y-112940226D01*
X134585000Y-112921289D01*
X134585000Y-109524554D01*
X134588797Y-109485998D01*
X134585000Y-109447442D01*
X134585000Y-109447437D01*
X134581020Y-109407024D01*
X134573642Y-109332111D01*
X134528754Y-109184138D01*
X134455862Y-109047765D01*
X134357764Y-108928234D01*
X134327810Y-108903651D01*
X129496349Y-104072190D01*
X129471766Y-104042236D01*
X129352235Y-103944138D01*
X129215862Y-103871246D01*
X129067889Y-103826359D01*
X128952563Y-103815000D01*
X128952555Y-103815000D01*
X128914002Y-103811203D01*
X128875449Y-103815000D01*
X127720132Y-103815000D01*
X127623520Y-103718388D01*
X127437624Y-103594176D01*
X127231067Y-103508617D01*
X127011788Y-103465000D01*
X126788212Y-103465000D01*
X126568933Y-103508617D01*
X126362376Y-103594176D01*
X126176480Y-103718388D01*
X126018388Y-103876480D01*
X125894176Y-104062376D01*
X125808617Y-104268933D01*
X125765000Y-104488212D01*
X125765000Y-104711788D01*
X125808617Y-104931067D01*
X125894176Y-105137624D01*
X126018388Y-105323520D01*
X126176480Y-105481612D01*
X126362376Y-105605824D01*
X126568933Y-105691383D01*
X126788212Y-105735000D01*
X127011788Y-105735000D01*
X127231067Y-105691383D01*
X127437624Y-105605824D01*
X127623520Y-105481612D01*
X127720132Y-105385000D01*
X128588845Y-105385000D01*
X133015001Y-109811156D01*
X133015000Y-112921289D01*
X132996063Y-112940226D01*
X132882795Y-113109744D01*
X132804774Y-113298102D01*
X132765000Y-113498061D01*
X132765000Y-113701939D01*
X132804774Y-113901898D01*
X132882795Y-114090256D01*
X132996063Y-114259774D01*
X133140226Y-114403937D01*
X133309744Y-114517205D01*
X133498102Y-114595226D01*
X133698061Y-114635000D01*
X133901939Y-114635000D01*
X134101898Y-114595226D01*
X134165601Y-114568839D01*
X134165600Y-118556643D01*
X132200045Y-116591088D01*
X132175464Y-116561136D01*
X132055933Y-116463038D01*
X131919560Y-116390146D01*
X131771587Y-116345259D01*
X131656261Y-116333900D01*
X131656253Y-116333900D01*
X131617700Y-116330103D01*
X131579147Y-116333900D01*
X131005311Y-116333900D01*
X131045037Y-116294174D01*
X131158305Y-116124656D01*
X131236326Y-115936298D01*
X131276100Y-115736339D01*
X131276100Y-115532461D01*
X131236326Y-115332502D01*
X131158305Y-115144144D01*
X131045037Y-114974626D01*
X131026100Y-114955689D01*
X131026100Y-113643552D01*
X131029897Y-113604999D01*
X131026100Y-113566446D01*
X131026100Y-113566439D01*
X131014741Y-113451113D01*
X130969854Y-113303140D01*
X130896962Y-113166767D01*
X130798864Y-113047236D01*
X130768917Y-113022659D01*
X126730000Y-108983743D01*
X126730000Y-108956961D01*
X126690226Y-108757002D01*
X126612205Y-108568644D01*
X126498937Y-108399126D01*
X126354774Y-108254963D01*
X126185256Y-108141695D01*
X125996898Y-108063674D01*
X125796939Y-108023900D01*
X125593061Y-108023900D01*
X125393102Y-108063674D01*
X125204744Y-108141695D01*
X125035226Y-108254963D01*
X124891063Y-108399126D01*
X124777795Y-108568644D01*
X124699774Y-108757002D01*
X124660000Y-108956961D01*
X124660000Y-109160839D01*
X124699774Y-109360798D01*
X124777795Y-109549156D01*
X124891063Y-109718674D01*
X125035226Y-109862837D01*
X125204744Y-109976105D01*
X125393102Y-110054126D01*
X125593061Y-110093900D01*
X125619843Y-110093900D01*
X129456100Y-113930158D01*
X129456101Y-114955688D01*
X129437163Y-114974626D01*
X129323895Y-115144144D01*
X129245874Y-115332502D01*
X129206100Y-115532461D01*
X129206100Y-115736339D01*
X129245874Y-115936298D01*
X129323895Y-116124656D01*
X129437163Y-116294174D01*
X129476889Y-116333900D01*
X127414357Y-116333900D01*
X123672647Y-112592190D01*
X123648064Y-112562236D01*
X123528533Y-112464138D01*
X123392160Y-112391246D01*
X123244187Y-112346359D01*
X123128861Y-112335000D01*
X123128853Y-112335000D01*
X123102864Y-112332440D01*
X123080706Y-112290986D01*
X122895134Y-112064866D01*
X122865313Y-112040393D01*
X122934180Y-112019502D01*
X123044494Y-111960537D01*
X123141185Y-111881185D01*
X123220537Y-111784494D01*
X123279502Y-111674180D01*
X123315812Y-111554482D01*
X123328072Y-111430000D01*
X123328072Y-109730000D01*
X123315812Y-109605518D01*
X123279502Y-109485820D01*
X123220537Y-109375506D01*
X123141185Y-109278815D01*
X123044494Y-109199463D01*
X122934180Y-109140498D01*
X122814482Y-109104188D01*
X122690000Y-109091928D01*
X120990000Y-109091928D01*
X120865518Y-109104188D01*
X120745820Y-109140498D01*
X120660000Y-109186370D01*
X120660000Y-102779872D01*
X120765000Y-102779872D01*
X120765000Y-103220128D01*
X120850890Y-103651925D01*
X121019369Y-104058669D01*
X121263962Y-104424729D01*
X121575271Y-104736038D01*
X121941331Y-104980631D01*
X122348075Y-105149110D01*
X122779872Y-105235000D01*
X123220128Y-105235000D01*
X123651925Y-105149110D01*
X124058669Y-104980631D01*
X124424729Y-104736038D01*
X124736038Y-104424729D01*
X124980631Y-104058669D01*
X125149110Y-103651925D01*
X125235000Y-103220128D01*
X125235000Y-102779872D01*
X125149110Y-102348075D01*
X124980631Y-101941331D01*
X124736038Y-101575271D01*
X124424729Y-101263962D01*
X124058669Y-101019369D01*
X123651925Y-100850890D01*
X123220128Y-100765000D01*
X122779872Y-100765000D01*
X122348075Y-100850890D01*
X121941331Y-101019369D01*
X121575271Y-101263962D01*
X121263962Y-101575271D01*
X121019369Y-101941331D01*
X120850890Y-102348075D01*
X120765000Y-102779872D01*
X120660000Y-102779872D01*
X120660000Y-101032279D01*
X120669580Y-100934576D01*
X120688580Y-100871644D01*
X120719445Y-100813595D01*
X120760989Y-100762657D01*
X120811644Y-100720752D01*
X120869471Y-100689485D01*
X120932272Y-100670044D01*
X121027835Y-100660000D01*
X153967721Y-100660000D01*
X154065424Y-100669580D01*
X154065424Y-100669580D01*
G37*
X154065424Y-100669580D02*
X154128356Y-100688580D01*
X154186405Y-100719445D01*
X154237343Y-100760989D01*
X154279248Y-100811644D01*
X154310515Y-100869471D01*
X154329956Y-100932272D01*
X154340000Y-101027835D01*
X154340001Y-123967711D01*
X154330420Y-124065424D01*
X154311420Y-124128357D01*
X154280554Y-124186406D01*
X154239011Y-124237343D01*
X154188356Y-124279248D01*
X154130529Y-124310515D01*
X154067728Y-124329956D01*
X153972165Y-124340000D01*
X138308863Y-124340000D01*
X138350706Y-124289014D01*
X138488599Y-124031034D01*
X138532246Y-123887149D01*
X138595202Y-123913226D01*
X138795161Y-123953000D01*
X138999039Y-123953000D01*
X139198998Y-123913226D01*
X139387356Y-123835205D01*
X139556874Y-123721937D01*
X139701037Y-123577774D01*
X139814305Y-123408256D01*
X139892326Y-123219898D01*
X139932100Y-123019939D01*
X139932100Y-122816061D01*
X139892326Y-122616102D01*
X139814305Y-122427744D01*
X139701037Y-122258226D01*
X139556874Y-122114063D01*
X139387356Y-122000795D01*
X139198998Y-121922774D01*
X138999039Y-121883000D01*
X138972257Y-121883000D01*
X136954147Y-119864890D01*
X136929564Y-119834936D01*
X136810033Y-119736838D01*
X136673660Y-119663946D01*
X136525687Y-119619059D01*
X136410361Y-119607700D01*
X136410353Y-119607700D01*
X136371800Y-119603903D01*
X136333247Y-119607700D01*
X135948670Y-119607700D01*
X135985600Y-119422039D01*
X135985600Y-119218161D01*
X135945826Y-119018202D01*
X135867805Y-118829844D01*
X135754537Y-118660326D01*
X135735600Y-118641389D01*
X135735600Y-115259721D01*
X148795000Y-115259721D01*
X148795000Y-115680279D01*
X148877047Y-116092756D01*
X149037988Y-116481302D01*
X149271637Y-116830983D01*
X149569017Y-117128363D01*
X149918698Y-117362012D01*
X150307244Y-117522953D01*
X150719721Y-117605000D01*
X151140279Y-117605000D01*
X151552756Y-117522953D01*
X151941302Y-117362012D01*
X152290983Y-117128363D01*
X152588363Y-116830983D01*
X152822012Y-116481302D01*
X152982953Y-116092756D01*
X153065000Y-115680279D01*
X153065000Y-115259721D01*
X152982953Y-114847244D01*
X152822012Y-114458698D01*
X152588363Y-114109017D01*
X152290983Y-113811637D01*
X151941302Y-113577988D01*
X151552756Y-113417047D01*
X151140279Y-113335000D01*
X150719721Y-113335000D01*
X150307244Y-113417047D01*
X149918698Y-113577988D01*
X149569017Y-113811637D01*
X149271637Y-114109017D01*
X149037988Y-114458698D01*
X148877047Y-114847244D01*
X148795000Y-115259721D01*
X135735600Y-115259721D01*
X135735600Y-114274557D01*
X141120157Y-108890000D01*
X148791928Y-108890000D01*
X148791928Y-111890000D01*
X148804188Y-112014482D01*
X148840498Y-112134180D01*
X148899463Y-112244494D01*
X148978815Y-112341185D01*
X149075506Y-112420537D01*
X149185820Y-112479502D01*
X149305518Y-112515812D01*
X149430000Y-112528072D01*
X152430000Y-112528072D01*
X152554482Y-112515812D01*
X152674180Y-112479502D01*
X152784494Y-112420537D01*
X152881185Y-112341185D01*
X152960537Y-112244494D01*
X153019502Y-112134180D01*
X153055812Y-112014482D01*
X153068072Y-111890000D01*
X153068072Y-108890000D01*
X153055812Y-108765518D01*
X153019502Y-108645820D01*
X152960537Y-108535506D01*
X152881185Y-108438815D01*
X152784494Y-108359463D01*
X152674180Y-108300498D01*
X152554482Y-108264188D01*
X152430000Y-108251928D01*
X149430000Y-108251928D01*
X149305518Y-108264188D01*
X149185820Y-108300498D01*
X149075506Y-108359463D01*
X148978815Y-108438815D01*
X148899463Y-108535506D01*
X148840498Y-108645820D01*
X148804188Y-108765518D01*
X148791928Y-108890000D01*
X141120157Y-108890000D01*
X142575157Y-107435000D01*
X142601939Y-107435000D01*
X142801898Y-107395226D01*
X142990256Y-107317205D01*
X143159774Y-107203937D01*
X143303937Y-107059774D01*
X143417205Y-106890256D01*
X143495226Y-106701898D01*
X143535000Y-106501939D01*
X143535000Y-106298061D01*
X143495226Y-106098102D01*
X143417205Y-105909744D01*
X143303937Y-105740226D01*
X143159774Y-105596063D01*
X142990256Y-105482795D01*
X142801898Y-105404774D01*
X142601939Y-105365000D01*
X142398061Y-105365000D01*
X142198102Y-105404774D01*
X142009744Y-105482795D01*
X141840226Y-105596063D01*
X141696063Y-105740226D01*
X141582795Y-105909744D01*
X141504774Y-106098102D01*
X141465000Y-106298061D01*
X141465000Y-106324843D01*
X134702342Y-113087501D01*
X134603937Y-112940226D01*
X134585000Y-112921289D01*
X134585000Y-109524554D01*
X134588797Y-109485998D01*
X134585000Y-109447442D01*
X134585000Y-109447437D01*
X134581020Y-109407024D01*
X134573642Y-109332111D01*
X134528754Y-109184138D01*
X134455862Y-109047765D01*
X134357764Y-108928234D01*
X134327810Y-108903651D01*
X129496349Y-104072190D01*
X129471766Y-104042236D01*
X129352235Y-103944138D01*
X129215862Y-103871246D01*
X129067889Y-103826359D01*
X128952563Y-103815000D01*
X128952555Y-103815000D01*
X128914002Y-103811203D01*
X128875449Y-103815000D01*
X127720132Y-103815000D01*
X127623520Y-103718388D01*
X127437624Y-103594176D01*
X127231067Y-103508617D01*
X127011788Y-103465000D01*
X126788212Y-103465000D01*
X126568933Y-103508617D01*
X126362376Y-103594176D01*
X126176480Y-103718388D01*
X126018388Y-103876480D01*
X125894176Y-104062376D01*
X125808617Y-104268933D01*
X125765000Y-104488212D01*
X125765000Y-104711788D01*
X125808617Y-104931067D01*
X125894176Y-105137624D01*
X126018388Y-105323520D01*
X126176480Y-105481612D01*
X126362376Y-105605824D01*
X126568933Y-105691383D01*
X126788212Y-105735000D01*
X127011788Y-105735000D01*
X127231067Y-105691383D01*
X127437624Y-105605824D01*
X127623520Y-105481612D01*
X127720132Y-105385000D01*
X128588845Y-105385000D01*
X133015001Y-109811156D01*
X133015000Y-112921289D01*
X132996063Y-112940226D01*
X132882795Y-113109744D01*
X132804774Y-113298102D01*
X132765000Y-113498061D01*
X132765000Y-113701939D01*
X132804774Y-113901898D01*
X132882795Y-114090256D01*
X132996063Y-114259774D01*
X133140226Y-114403937D01*
X133309744Y-114517205D01*
X133498102Y-114595226D01*
X133698061Y-114635000D01*
X133901939Y-114635000D01*
X134101898Y-114595226D01*
X134165601Y-114568839D01*
X134165600Y-118556643D01*
X132200045Y-116591088D01*
X132175464Y-116561136D01*
X132055933Y-116463038D01*
X131919560Y-116390146D01*
X131771587Y-116345259D01*
X131656261Y-116333900D01*
X131656253Y-116333900D01*
X131617700Y-116330103D01*
X131579147Y-116333900D01*
X131005311Y-116333900D01*
X131045037Y-116294174D01*
X131158305Y-116124656D01*
X131236326Y-115936298D01*
X131276100Y-115736339D01*
X131276100Y-115532461D01*
X131236326Y-115332502D01*
X131158305Y-115144144D01*
X131045037Y-114974626D01*
X131026100Y-114955689D01*
X131026100Y-113643552D01*
X131029897Y-113604999D01*
X131026100Y-113566446D01*
X131026100Y-113566439D01*
X131014741Y-113451113D01*
X130969854Y-113303140D01*
X130896962Y-113166767D01*
X130798864Y-113047236D01*
X130768917Y-113022659D01*
X126730000Y-108983743D01*
X126730000Y-108956961D01*
X126690226Y-108757002D01*
X126612205Y-108568644D01*
X126498937Y-108399126D01*
X126354774Y-108254963D01*
X126185256Y-108141695D01*
X125996898Y-108063674D01*
X125796939Y-108023900D01*
X125593061Y-108023900D01*
X125393102Y-108063674D01*
X125204744Y-108141695D01*
X125035226Y-108254963D01*
X124891063Y-108399126D01*
X124777795Y-108568644D01*
X124699774Y-108757002D01*
X124660000Y-108956961D01*
X124660000Y-109160839D01*
X124699774Y-109360798D01*
X124777795Y-109549156D01*
X124891063Y-109718674D01*
X125035226Y-109862837D01*
X125204744Y-109976105D01*
X125393102Y-110054126D01*
X125593061Y-110093900D01*
X125619843Y-110093900D01*
X129456100Y-113930158D01*
X129456101Y-114955688D01*
X129437163Y-114974626D01*
X129323895Y-115144144D01*
X129245874Y-115332502D01*
X129206100Y-115532461D01*
X129206100Y-115736339D01*
X129245874Y-115936298D01*
X129323895Y-116124656D01*
X129437163Y-116294174D01*
X129476889Y-116333900D01*
X127414357Y-116333900D01*
X123672647Y-112592190D01*
X123648064Y-112562236D01*
X123528533Y-112464138D01*
X123392160Y-112391246D01*
X123244187Y-112346359D01*
X123128861Y-112335000D01*
X123128853Y-112335000D01*
X123102864Y-112332440D01*
X123080706Y-112290986D01*
X122895134Y-112064866D01*
X122865313Y-112040393D01*
X122934180Y-112019502D01*
X123044494Y-111960537D01*
X123141185Y-111881185D01*
X123220537Y-111784494D01*
X123279502Y-111674180D01*
X123315812Y-111554482D01*
X123328072Y-111430000D01*
X123328072Y-109730000D01*
X123315812Y-109605518D01*
X123279502Y-109485820D01*
X123220537Y-109375506D01*
X123141185Y-109278815D01*
X123044494Y-109199463D01*
X122934180Y-109140498D01*
X122814482Y-109104188D01*
X122690000Y-109091928D01*
X120990000Y-109091928D01*
X120865518Y-109104188D01*
X120745820Y-109140498D01*
X120660000Y-109186370D01*
X120660000Y-102779872D01*
X120765000Y-102779872D01*
X120765000Y-103220128D01*
X120850890Y-103651925D01*
X121019369Y-104058669D01*
X121263962Y-104424729D01*
X121575271Y-104736038D01*
X121941331Y-104980631D01*
X122348075Y-105149110D01*
X122779872Y-105235000D01*
X123220128Y-105235000D01*
X123651925Y-105149110D01*
X124058669Y-104980631D01*
X124424729Y-104736038D01*
X124736038Y-104424729D01*
X124980631Y-104058669D01*
X125149110Y-103651925D01*
X125235000Y-103220128D01*
X125235000Y-102779872D01*
X125149110Y-102348075D01*
X124980631Y-101941331D01*
X124736038Y-101575271D01*
X124424729Y-101263962D01*
X124058669Y-101019369D01*
X123651925Y-100850890D01*
X123220128Y-100765000D01*
X122779872Y-100765000D01*
X122348075Y-100850890D01*
X121941331Y-101019369D01*
X121575271Y-101263962D01*
X121263962Y-101575271D01*
X121019369Y-101941331D01*
X120850890Y-102348075D01*
X120765000Y-102779872D01*
X120660000Y-102779872D01*
X120660000Y-101032279D01*
X120669580Y-100934576D01*
X120688580Y-100871644D01*
X120719445Y-100813595D01*
X120760989Y-100762657D01*
X120811644Y-100720752D01*
X120869471Y-100689485D01*
X120932272Y-100670044D01*
X121027835Y-100660000D01*
X153967721Y-100660000D01*
X154065424Y-100669580D01*
G36*
X134309158Y-120920516D02*
G01*
X134333736Y-120950464D01*
X134363684Y-120975042D01*
X134363687Y-120975045D01*
X134393059Y-120999150D01*
X134453267Y-121048562D01*
X134589640Y-121121454D01*
X134703172Y-121155894D01*
X134737612Y-121166341D01*
X134751990Y-121167757D01*
X134852939Y-121177700D01*
X134852946Y-121177700D01*
X134891499Y-121181497D01*
X134930052Y-121177700D01*
X136046643Y-121177700D01*
X136861257Y-121992314D01*
X136818889Y-121996487D01*
X136538966Y-122081401D01*
X136280986Y-122219294D01*
X136054866Y-122404866D01*
X135869294Y-122630986D01*
X135834799Y-122695523D01*
X135765178Y-122578645D01*
X135570269Y-122362412D01*
X135336920Y-122188359D01*
X135074099Y-122063175D01*
X134926890Y-122018524D01*
X134697000Y-122139845D01*
X134697000Y-123333000D01*
X134717000Y-123333000D01*
X134717000Y-123587000D01*
X134697000Y-123587000D01*
X134697000Y-123607000D01*
X134443000Y-123607000D01*
X134443000Y-123587000D01*
X134423000Y-123587000D01*
X134423000Y-123333000D01*
X134443000Y-123333000D01*
X134443000Y-122139845D01*
X134213110Y-122018524D01*
X134065901Y-122063175D01*
X133803080Y-122188359D01*
X133569731Y-122362412D01*
X133374822Y-122578645D01*
X133305201Y-122695523D01*
X133270706Y-122630986D01*
X133085134Y-122404866D01*
X132859014Y-122219294D01*
X132601034Y-122081401D01*
X132321111Y-121996487D01*
X132102950Y-121975000D01*
X131957050Y-121975000D01*
X131738889Y-121996487D01*
X131458966Y-122081401D01*
X131200986Y-122219294D01*
X130974866Y-122404866D01*
X130950393Y-122434687D01*
X130929502Y-122365820D01*
X130870537Y-122255506D01*
X130791185Y-122158815D01*
X130714212Y-122095645D01*
X131842311Y-120967546D01*
X131872264Y-120942964D01*
X131970362Y-120823433D01*
X132043254Y-120687060D01*
X132077165Y-120575271D01*
X132088142Y-120539087D01*
X132095520Y-120464174D01*
X132099500Y-120423761D01*
X132099500Y-120423756D01*
X132103297Y-120385200D01*
X132099500Y-120346644D01*
X132099500Y-119813911D01*
X132118437Y-119794974D01*
X132231705Y-119625456D01*
X132309726Y-119437098D01*
X132349500Y-119237139D01*
X132349500Y-119033261D01*
X132331522Y-118942880D01*
X134309158Y-120920516D01*
X134309158Y-120920516D01*
G37*
X134309158Y-120920516D02*
X134333736Y-120950464D01*
X134363684Y-120975042D01*
X134363687Y-120975045D01*
X134393059Y-120999150D01*
X134453267Y-121048562D01*
X134589640Y-121121454D01*
X134703172Y-121155894D01*
X134737612Y-121166341D01*
X134751990Y-121167757D01*
X134852939Y-121177700D01*
X134852946Y-121177700D01*
X134891499Y-121181497D01*
X134930052Y-121177700D01*
X136046643Y-121177700D01*
X136861257Y-121992314D01*
X136818889Y-121996487D01*
X136538966Y-122081401D01*
X136280986Y-122219294D01*
X136054866Y-122404866D01*
X135869294Y-122630986D01*
X135834799Y-122695523D01*
X135765178Y-122578645D01*
X135570269Y-122362412D01*
X135336920Y-122188359D01*
X135074099Y-122063175D01*
X134926890Y-122018524D01*
X134697000Y-122139845D01*
X134697000Y-123333000D01*
X134717000Y-123333000D01*
X134717000Y-123587000D01*
X134697000Y-123587000D01*
X134697000Y-123607000D01*
X134443000Y-123607000D01*
X134443000Y-123587000D01*
X134423000Y-123587000D01*
X134423000Y-123333000D01*
X134443000Y-123333000D01*
X134443000Y-122139845D01*
X134213110Y-122018524D01*
X134065901Y-122063175D01*
X133803080Y-122188359D01*
X133569731Y-122362412D01*
X133374822Y-122578645D01*
X133305201Y-122695523D01*
X133270706Y-122630986D01*
X133085134Y-122404866D01*
X132859014Y-122219294D01*
X132601034Y-122081401D01*
X132321111Y-121996487D01*
X132102950Y-121975000D01*
X131957050Y-121975000D01*
X131738889Y-121996487D01*
X131458966Y-122081401D01*
X131200986Y-122219294D01*
X130974866Y-122404866D01*
X130950393Y-122434687D01*
X130929502Y-122365820D01*
X130870537Y-122255506D01*
X130791185Y-122158815D01*
X130714212Y-122095645D01*
X131842311Y-120967546D01*
X131872264Y-120942964D01*
X131970362Y-120823433D01*
X132043254Y-120687060D01*
X132077165Y-120575271D01*
X132088142Y-120539087D01*
X132095520Y-120464174D01*
X132099500Y-120423761D01*
X132099500Y-120423756D01*
X132103297Y-120385200D01*
X132099500Y-120346644D01*
X132099500Y-119813911D01*
X132118437Y-119794974D01*
X132231705Y-119625456D01*
X132309726Y-119437098D01*
X132349500Y-119237139D01*
X132349500Y-119033261D01*
X132331522Y-118942880D01*
X134309158Y-120920516D01*
M02*
