M48
; DRILL file {KiCad (5.1.2)-1} date 2022/10/08 12:37:56
; FORMAT={-:-/ absolute / metric / decimal}
; #@! TF.CreationDate,2022-10-08T12:37:56+09:00
; #@! TF.GenerationSoftware,Kicad,Pcbnew,(5.1.2)-1
FMAT,2
METRIC
T1C0.400
T2C0.500
T3C1.000
T4C1.520
T5C3.200
%
G90
G05
T1
X122.56Y-107.0
X123.5Y-117.5
X125.4Y-111.7
X125.695Y-109.059
X130.241Y-115.634
X130.25Y-107.12
X131.31Y-117.945
X131.314Y-119.135
X131.583Y-113.726
X133.8Y-113.6
X134.951Y-119.32
X138.897Y-122.918
X139.41Y-105.41
X140.03Y-120.92
X142.5Y-106.4
X147.21Y-112.94
X147.41Y-117.93
X148.758Y-104.182
X152.4Y-122.66
T2
X126.9Y-104.6
T3
X129.49Y-123.46
X132.03Y-123.46
X134.57Y-123.46
X137.11Y-123.46
X121.84Y-110.58
X121.84Y-113.12
X121.84Y-115.66
T4
X150.93Y-110.39
X150.93Y-115.47
T5
X123.0Y-122.0
X123.0Y-103.0
T0
M30
